<?xml version="1.0" standalone="no"?>
<!DOCTYPE svg PUBLIC "-//W3C//DTD SVG 1.1//EN" "http://www.w3.org/Graphics/SVG/1.1/DTD/svg11.dtd" >
<svg xmlns="http://www.w3.org/2000/svg">
<metadata>
This is a custom SVG webfont generated by Font Squirrel.
Copyright   : IncisedBlack C Copyright PJl 02
</metadata>
<defs>
<font id="webfont36YFO7Ec" horiz-adv-x="323" >
<font-face units-per-em="1000" ascent="800" descent="-200" />
<missing-glyph horiz-adv-x="240" />
<glyph unicode=" "  horiz-adv-x="240" />
<glyph unicode="&#x09;" horiz-adv-x="240" />
<glyph unicode="&#xa0;" horiz-adv-x="240" />
<glyph unicode="!" horiz-adv-x="253" d="M15 785q0 5 26.5 21t62.5 42q1 0 13.5 10.5l28 23t30.5 23t21 10.5q12 0 23.5 -29t11.5 -88q0 -24 -8 -62t-18 -78t-19.5 -74t-12.5 -50l-5.5 -25t-5 -25t-4 -33t-1.5 -47q0 -33 4.5 -55.5l7 -36t0 -19.5t-16.5 -6q-11 0 -23.5 22.5t-24 56t-20 74t-11.5 76.5l20 170 q-1 17 -5 37t-11 35t-17.5 21.5t-24.5 -4.5h-16q0 3 -2.5 5t-2.5 5zM67 117q0 3 11.5 19t26 33.5l27 31.5t15.5 14q1 0 15.5 -13.5t31.5 -31t30.5 -33t13.5 -18.5q0 -12 -24.5 -37t-59.5 -70q-4 3 -18 16t-29.5 29.5t-27.5 33t-12 26.5zM83 803q17 -26 24.5 -54t7.5 -55 q0 -37 -3.5 -61t-7.5 -42t-7 -33.5t-3 -35.5q0 -28 2 -41.5t5.5 -24l8.5 -25t12 -46.5q2 6 1.5 24.5t-1.5 39t-2 37t-1 18.5q3 24 8.5 54l11.5 60t10.5 57t4.5 47q0 34 -9.5 63.5t-22.5 45.5q-7 -4 -17.5 -11t-21.5 -17zM98 116q0 -7 8.5 -17t19.5 -18t21.5 -12.5t14.5 -0.5 q-11 23 -21.5 33t-10.5 25q0 16 12 21.5t12 17.5q0 5 -3.5 7t-7.5 7q-20 -33 -32.5 -47.5t-12.5 -15.5z" />
<glyph unicode="&#x22;" horiz-adv-x="381" d="M15 795l56.5 61.5t30.5 27.5l55.5 -51t24.5 -24q0 -5 -3 -10t-11.5 -14.5l-22 -25l-34.5 -41.5q-20 -24 -30 -41t-15 -27t-8 -14.5t-8 -4.5q-14 0 -14 17q0 3 6.5 14.5l14.5 25l14.5 25.5t6.5 15q0 12 -10 20t-21.5 14.5t-21.5 14t-10 18.5zM48 796q9 -6 17.5 -14 t16.5 -14t15.5 -8t13.5 4q-18 13 -25.5 23.5t-7.5 11.5q0 2 5 9t11.5 14l11.5 12.5l5 5.5q-11 10 -23 -3t-40 -41zM199 792l56.5 61.5t30.5 27.5l55.5 -51t24.5 -24q0 -5 -3 -10t-11.5 -14.5l-22 -25l-34.5 -41.5q-20 -24 -30 -41t-15 -27t-8 -14.5t-8 -4.5q-14 0 -14 17 q0 3 6.5 14.5l14.5 25l14.5 25.5t6.5 15q0 12 -10 20t-21.5 14.5t-21.5 14t-10 18.5zM232 793q9 -6 17.5 -14t16.5 -14t15.5 -8t13.5 4q-18 13 -25.5 23.5t-7.5 11.5q0 2 5 9t11.5 14l11.5 12.5l5 5.5q-11 11 -23 -1.5z" />
<glyph unicode="&#x26;" horiz-adv-x="612" d="M15 216q0 52 19 94t42.5 74.5t44 55t24.5 34.5l-63 172q5 6 30.5 25t88.5 74q55 49 79.5 80t32.5 31q2 0 15.5 -9t28.5 -26t27 -42.5t12 -57.5q0 -51 -28 -97t-96 -96q2 -6 19.5 -43.5l40 -83l44 -86t31.5 -51.5q13 8 21 21t12 26.5t5.5 25.5t1.5 18q0 32 -23 58.5 t-56 26.5v21q36 36 53 62t25 42.5t12 24t13 7.5q15 0 22 -22.5t29 -54.5q4 -6 12 -14.5t15.5 -17.5t13 -19t5.5 -19q0 -10 -5.5 -16t-14 -10l-17 -8t-14.5 -10t-15 -25t-17.5 -40l-15 -38.5t-6.5 -19.5q-8 -17 -13 -44t-0.5 -53.5t21.5 -45.5t52 -19q8 0 16.5 16t16 35.5 l13.5 35.5t10 16q1 0 9.5 -5t8.5 -13q0 -7 -5.5 -16l-12.5 -20.5t-12.5 -24.5t-5.5 -28q0 -1 -12.5 -26t-29 -55t-33 -55t-23.5 -25q-10 0 -27.5 18.5t-35.5 41.5t-33.5 45t-22.5 28q-1 -1 -22.5 -26.5l-49 -56t-52.5 -55.5t-33 -25q-6 0 -32.5 23t-59.5 70q-31 43 -55.5 94 t-24.5 103zM50 226q0 -26 7.5 -51t18 -47t22.5 -40l20 -30q8 -10 16.5 -24.5t18 -27.5t19 -22t18.5 -9q4 0 12 7t16 16q-44 43 -72 82.5t-42.5 80.5t-18 86t0.5 99q-3 -4 -9 -17t-12 -30t-10.5 -36t-4.5 -37zM117 628q0 -8 11 -35.5t27.5 -65l36 -79l36 -77l28 -59 l12.5 -25.5q22 -59 52 -111t58.5 -92t52 -66t32.5 -32q5 10 10 15.5t5 12.5q-36 33 -66.5 65t-52.5 74q-16 30 -35.5 71.5l-44.5 93.5q-69 145 -102.5 229.5t-46.5 91.5q-2 -2 -7.5 -5.5t-5.5 -5.5zM149 325q0 -54 18 -97.5t41 -75.5t43.5 -52t25.5 -27q11 11 23.5 26 t12.5 27q0 6 -4 12.5l-13.5 21t-25 41t-37.5 71.5q-26 53 -37 87.5t-30 53.5q-5 -28 -11 -48t-6 -40zM209 706l55 -143q0 1 4 2.5l4 1.5q11 18 19 33.5t8 46.5q0 34 -14.5 61.5t-35.5 40.5q-10 -12 -20 -18.5t-20 -24.5zM279 782q10 -15 19.5 -23.5t17 -17t12.5 -20.5t7 -35 v26q4 -18 3.5 -9t-6.5 26.5t-19 35t-34 17.5zM419 461q6 -4 14 -11.5l15 -14t13 -10t9 -0.5v12q-8 5 -8.5 9t-2 8.5t-8 9.5t-25.5 12q-1 -5 -3 -8.5t-4 -6.5z" />
<glyph unicode="'" horiz-adv-x="197" d="M15 795l56.5 61.5t30.5 27.5l55.5 -51t24.5 -24q0 -5 -3 -10t-11.5 -14.5l-22 -25l-34.5 -41.5q-20 -24 -30 -41t-15 -27t-8 -14.5t-8 -4.5q-14 0 -14 17q0 3 6.5 14.5l14.5 25l14.5 25.5t6.5 15q0 12 -10 20t-21.5 14.5t-21.5 14t-10 18.5zM48 796q9 -6 17.5 -14 t16.5 -14t15.5 -8t13.5 4q-18 13 -25.5 23.5t-7.5 11.5q0 2 5 9t11.5 14l11.5 12.5l5 5.5q-11 10 -23 -3t-40 -41z" />
<glyph unicode="," horiz-adv-x="199" d="M15 33l59.5 66t30.5 29q35 -32 55.5 -52.5t23.5 -27.5q0 -8 -8 -16.5l-24.5 -26.5t-40.5 -49.5t-55 -85.5q-5 2 -7.5 2.5t-5.5 1.5v16q12 25 19.5 39t12 21.5l6 10t1.5 3.5q0 5 -10.5 13.5l-23 18.5t-23 20t-10.5 17zM50 33q6 -4 14 -11.5l16 -14.5t15 -10.5t11 1.5v11 q-7 3 -17.5 6t-10.5 16q0 8 12.5 21.5t23.5 23.5q-2 9 -8 7t-14.5 -10t-19 -19t-22.5 -21z" />
<glyph unicode="-" d="M15 227q3 12 7.5 27t9.5 29.5t10.5 26.5t9.5 16l253 7l1.5 -6t1.5 -5q0 -41 -20.5 -68t-62.5 -27h-210zM48 251q14 3 20.5 8.5t9.5 11.5t5 11t8 8t16.5 0t31 -5t53 -0.5t81.5 13.5l-202 4q-9 -20 -12 -29.5t-11 -21.5z" />
<glyph unicode="." horiz-adv-x="190" d="M15 47l41.5 57.5l34.5 47.5l15.5 -16l28.5 -31l27.5 -32.5t12.5 -19.5q0 -8 -22.5 -37.5t-56.5 -61.5q-6 4 -19 17.5l-27 29t-24.5 29t-10.5 17.5zM52 42q11 -8 25 -22.5t19 -22.5q7 5 9 7.5t3 3.5q-9 17 -19.5 28t-10.5 18q0 9 8 13t13 25q-3 3 -8 -2.5t-12 -14.5 l-14 -18.5t-13 -14.5z" />
<glyph unicode="0" horiz-adv-x="524" d="M15 87v610q14 5 53 9t92 23q43 15 70.5 31t44 28.5t24 20.5t10.5 8q7 0 23.5 -15l37 -33t40 -33t32.5 -15q4 0 11 9t16 19.5t19 18t21 5.5v-16q-23 -24 -35 -38t-17 -30t-5.5 -39t-1.5 -65q-1 -68 -2.5 -124t-2 -109l-1 -109t1.5 -124q0 -12 7.5 -18.5t11.5 -9.5 q-7 -9 -16 -10.5t-25.5 -2t-43.5 -5.5t-69 -21q-58 -22 -98.5 -51l-56.5 -40h-11q-14 32 -36 49.5t-43 29t-36 21t-15 26.5zM41 126q0 -32 39.5 -59t92.5 -59q4 4 7.5 8t7.5 8q-41 31 -64 42.5l-34.5 17.5t-14 14t-2.5 31v540h-32v-543zM160 134q15 -7 32 -19.5t31 -24.5 l25 -21t14 -9q33 0 44.5 26.5t11.5 84.5v450q0 11 -1 20t-6 17q-19 14 -45.5 31.5t-49.5 24t-39.5 -6.5t-16.5 -60v-513zM255 736q10 -15 19.5 -22.5t20 -13l22 -12t25.5 -19.5v-578h13q16 9 17.5 27.5t1.5 35.5q0 76 0.5 138.5l1 122.5t1.5 122.5t2 139.5q-41 22 -70 48.5 t-34 27.5q-8 0 -8 -2t-12 -15z" />
<glyph unicode="1" horiz-adv-x="410" d="M15 718q0 7 20.5 17.5t65.5 29.5q26 11 41.5 22t24.5 19.5l14 13.5t11 5q19 -11 34.5 -24t27 -33t18.5 -48.5t9 -69.5v-472q0 -12 7 -23t16.5 -20.5t19.5 -17t15 -10.5q7 7 16.5 18.5t18.5 20.5t15 10t6 -13q0 -8 -15.5 -32.5t-35 -50.5t-36.5 -46.5t-19 -20.5 q-13 0 -32 15.5t-37 35t-32 37.5t-19 23l-12 -15t-27 -29.5t-27.5 -20t-12.5 13.5q0 3 12 16.5t26 32t26 39.5t12 41v464q0 11 -5 26t-13.5 28.5t-21 22.5t-27.5 9l-69 -35q-11 5 -13 9t-2 12zM145 753q5 -17 9.5 -20.5t9.5 -9.5t11 -20.5t13 -52.5q0 -74 -0.5 -134 t-1.5 -117.5t-1.5 -118t0.5 -133.5q0 -17 14.5 -38t31.5 -39t31 -30.5l14 -12.5q7 4 16 4v13q-37 28 -57 72t-29 97.5t-9 112.5t3.5 116.5t7.5 111.5t4 96q0 20 -0.5 33t-5 23.5t-15 21t-31.5 25.5h-15z" />
<glyph unicode="2" horiz-adv-x="580" d="M15 20q-6 32 6.5 81.5t44.5 109.5t87 116q38 40 67.5 56.5t52 22.5t38 7t26 8t16.5 27t9 63q3 37 3 64.5t1 65.5q0 7 0.5 22t-1.5 30.5t-8 27t-19 11.5q-6 0 -17 -11.5t-30.5 -25.5t-49 -25.5t-71.5 -11.5q-13 0 -33 11.5t-39.5 27.5t-33.5 34t-14 30q0 14 15 7t38 -7 q39 0 65.5 21.5t58.5 65.5q33 -37 53 -56.5t39.5 -29.5t43.5 -13.5t63 -8.5q14 -2 22 -4.5t14 -3.5t12 -0.5t15 4.5h13q-5 -15 -13 -33t-8 -26v-238q0 -14 6 -20t10.5 -11.5t5.5 -13.5t-10 -26q-15 9 -25.5 13.5t-20 5.5t-20 0.5t-25.5 -0.5q-131 0 -211.5 -72.5 t-132.5 -211.5l3 -21q34 22 62 42.5t56.5 36t60 24.5t71.5 9q41 0 74 -10t57 -22t38 -22t16 -10q10 0 16 7t11 15.5t10.5 15.5t14.5 7q11 0 14 -6t3 -11q0 -8 -14 -24.5l-33.5 -39.5t-40.5 -52t-35 -62h-13q-44 46 -97 61t-99 15q-29 0 -59.5 -10.5t-57 -23.5l-46.5 -23.5 t-29 -10.5q-20 0 -26 32zM117 732q16 -2 25 -4.5t17 -2.5t22 7t28.5 15.5t26.5 16.5t15 11q-8 8 -14 15.5t-10 7.5q-1 0 -10 -7.5l-19.5 -17l-19.5 -17.5t-9 -9q-9 -5 -14 -6t-10 -1t-11 -1t-17 -7zM125 95q17 7 40 14.5t48 14t49 10.5t42 4q13 0 32.5 -2t42 -9t45 -19 t41.5 -33q7 10 7.5 11.5t8.5 11.5q-36 32 -84.5 46.5t-90.5 14.5q-22 0 -48 -5.5t-51 -14.5t-46.5 -20.5t-35.5 -23.5zM383 431q4 -1 14 -2t11 -1v286h-25v-283z" />
<glyph unicode="3" horiz-adv-x="577" d="M15 19q0 1 13 22.5t40.5 47t70.5 46.5t103 21q48 0 74 -11t41 -24.5t24 -24.5t22 -11t16 25t3 49q0 40 3 68t3 67q0 37 -4.5 55.5t-13 27.5t-20 13t-26.5 10q-2 1 -18 11t-26 10q-11 0 -18.5 -9.5t-28.5 -22.5q-1 1 -3 8.5t-4.5 16t-4 15.5l-1.5 7q0 16 8 21.5t19 5 t22 -3.5t17 -3q42 0 63 19t29 43t8.5 45.5t1.5 26.5l-13 143q-12 6 -23.5 -5l-29.5 -27t-44.5 -29.5t-68.5 -13.5q-13 0 -38.5 10.5t-50.5 26t-43.5 32.5t-18.5 30q0 3 2.5 6t2.5 7q57 0 94 11t59 24t31.5 24t11.5 11q1 0 18 -16t45 -34.5t62.5 -32t70.5 -8.5h62 q-3 -26 -8.5 -49.5t-7.5 -33.5q-1 -24 -2 -39.5t-1 -28t1 -24t2 -27.5q1 -17 8.5 -40t12.5 -43q-25 -2 -42.5 0.5t-46.5 2.5q-18 0 -56.5 -5t-68.5 -26q6 -7 20.5 -15.5t39 -14t60.5 -6t86 7.5q0 -3 -3 -15.5t-7 -39.5t-7.5 -70t-3.5 -106q0 -24 3.5 -39t8 -25.5t9.5 -19.5 t8 -21q-12 -4 -37 -4t-57 -2.5t-69.5 -11t-74.5 -29.5q-11 -5 -24.5 -20t-39.5 -31q-32 34 -55 51t-65 17q-20 0 -36 -5t-30.5 -11.5l-27.5 -12t-27 -5.5q0 3 -2 5t-2 6zM92 81q32 13 69.5 20.5t57.5 7.5q36 0 60.5 -7t40 -15.5t23.5 -15.5t12 -7q3 0 5.5 3.5t7.5 4.5 q-23 36 -54.5 45.5t-70.5 9.5q-90 0 -151 -46zM131 736l42 -11.5t18 -3.5q27 0 51 7t43 16t31.5 18.5t16.5 14.5q-12 11 -18.5 18t-12.5 7l-12.5 -7.5t-29 -16l-32.5 -16.5t-23 -9q-12 -5 -34.5 -4.5t-39.5 -12.5zM436.5 619.5q0.5 -34.5 2 -66.5t4.5 -47h28v219 q-11 1 -16 1.5t-12 2.5q-4 -13 -5.5 -44t-1 -65.5zM439 109q0 -9 6 -9q15 0 22 13.5t9.5 31.5t2 36.5t-0.5 29.5v119q0 6 -2.5 21t-4.5 18h-32v-260z" />
<glyph unicode="4" horiz-adv-x="596" d="M15 253q0 71 25.5 119.5t69.5 101l102.5 122.5t123.5 185q9 -13 9.5 -23t5.5 -24q7 22 8 44t1 59q5 -4 11.5 -12t21.5 -22t43.5 -35.5t77.5 -53.5q-11 -20 -33 -11q-1 -3 -4 -43.5t-6 -95t-5.5 -111.5t-2.5 -92q0 -65 3 -87.5t29 -22.5q23 0 36.5 14.5t32.5 24.5 q3 -8 4.5 -24.5t2 -35t-1 -36t-5.5 -26.5q-13 13 -21 20t-34 23h-43q-2 -9 -5 -17.5t-3 -17.5q0 -4 5.5 -19t14 -31t18.5 -28.5t19 -12.5q6 0 13 6.5t13.5 15.5t12 17.5t7.5 12.5h13q1 -4 4 -7.5t3 -7.5t-18 -27.5t-41 -50t-44.5 -48t-29.5 -21.5q-2 0 -18.5 12t-36 33 t-36.5 49.5t-21 62.5q-3 26 1 42t-0.5 25.5t-24.5 13t-71 3.5h-166q-32 0 -46 5.5t-14 31.5zM46 281q0 -11 6.5 -14t7.5 -4h15q0 65 26.5 118.5t61 99t68.5 83.5t49 72q-11 -26 -49 -65t-79 -85.5t-73.5 -99t-32.5 -105.5zM150 283q0 -15 8.5 -19.5t23 -5t32 0t35.5 -3.5h83 l15 470q-2 -57 -33 -118t-67 -120l-66.5 -111.5t-30.5 -92.5zM365 350q1 -31 1 -56.5v-50t0.5 -50t1.5 -56.5q1 -25 12.5 -48t26 -40.5t27 -27.5t15.5 -10q5 0 7.5 3t6.5 4q-28 36 -41.5 51.5t-19.5 31t-8 41t-6 81.5q-6 77 -2 161t8.5 160.5t5 137.5t-14.5 91z" />
<glyph unicode="5" horiz-adv-x="570" d="M15 -9q0 7 10 30t31 47.5t52.5 43.5t74.5 19q62 0 107.5 -24.5t70.5 -42.5q14 13 16.5 59t2.5 113q0 26 -0.5 52t-5 50.5t-15.5 45.5t-31 36q-28 21 -55.5 11.5t-54 -30l-53.5 -41t-55 -20.5q-7 0 -13.5 3.5t-6.5 16.5q0 11 9 23t12 21q5 20 10.5 122t-7.5 283 q15 3 21.5 3.5t17.5 0.5q32 0 55.5 -5t44.5 -11t43 -11t51 -5q42 0 75 8t57 18.5t40.5 20t27.5 12.5v-31q-10 -21 -25 -46.5t-38.5 -47.5t-57 -37t-79.5 -15q-31 0 -49 3t-31.5 6t-26.5 5.5t-35 2.5q-3 0 -11 -1.5t-28 -1.5l-20 -270q17 0 57.5 19t82.5 42t74.5 42.5 t33.5 19.5q8 0 19.5 -9.5t25 -22l28 -26t28.5 -21.5q15 17 23.5 28t19.5 28h13l2 -3t2 -4q0 -11 -8 -20.5t-18 -26.5t-18 -46.5t-8 -81.5q0 -16 -1.5 -37l-3 -44l-3 -45.5t-1.5 -41.5q0 -44 4 -65t7.5 -31.5t5.5 -17.5t-1 -24q-29 12 -46 16.5t-26 4.5q-44 0 -78.5 -10.5 t-60 -25t-43.5 -29l-30 -23.5q-3 3 -11.5 14.5t-23.5 24.5t-36 23.5t-48 10.5q-8 0 -23.5 -10.5l-30.5 -20.5t-26.5 -13.5t-11.5 10.5zM139 91q40 0 66.5 -7t43.5 -16t27 -16t16 -7q16 0 34 7q-47 25 -74 35.5t-59 10.5h-18t-8.5 -1t-8.5 -2zM158 777q0 -10 6 -14t16 -5.5 t22 -2t24 -2.5q45 -8 80 -18t66 -10q43 0 70 18.5l57 40.5q-29 -8 -59.5 -17.5t-71.5 -9.5q-82 1 -128 15.5t-66 15.5q-6 0 -11 -2.5t-5 -8.5zM333 456q69 -46 71 -123q1 -39 1 -71t-0.5 -62t-1.5 -62t-3 -71q8 -1 6.5 -1t14.5 1q0 39 1 71.5t1.5 63.5l1 63.5t-0.5 71.5 q-1 36 -11.5 60t-23.5 38.5t-25 21t-15 6.5q-5 0 -8.5 -2.5t-7.5 -4.5z" />
<glyph unicode="6" horiz-adv-x="554" d="M15 25v17l31 48.5t15 53.5q3 76 4.5 138t2.5 121t0.5 121t-2.5 138q0 4 -5 15.5t-7 32.5q25 7 55.5 8.5t42.5 6.5q52 21 89.5 42.5t63.5 40.5l42.5 31.5t26.5 15.5q0 -10 -3.5 -19.5t-1.5 -20t14 -23t42 -28.5q27 -14 45.5 -14t29.5 3.5l16 5t5 -9.5q0 -4 -10 -17 t-29.5 -27.5t-49 -25.5t-68.5 -11q-36 0 -60 10t-40 21.5t-26 21.5t-16 10q-16 0 -22.5 -15.5t-6.5 -29.5v-258l3.5 -1.5t4.5 -1.5q13 0 42 18t58.5 39.5l52.5 39.5t25 18q10 0 21.5 -11.5t24 -25.5t26 -25.5t28.5 -11.5q5 0 7 1t6 6t11 15t22 28h11q1 0 2 -4t1 -7 q0 -12 -8 -21.5t-18 -24.5t-18 -39t-8 -65v-68v-61t1.5 -61t4.5 -69q1 -6 4.5 -9t7.5 -6v-22q-11 -2 -16.5 -2.5t-9.5 0t-8.5 1.5t-12.5 1q-57 0 -100.5 -14.5t-74.5 -32t-50 -32t-26 -14.5q-5 0 -24.5 16l-42.5 36t-44 36t-29 16q-4 0 -8.5 -7t-11 -15.5t-14.5 -15.5 t-18 -7zM82 101q5 -3 24 -19.5l40.5 -34.5l38.5 -33.5t19 -16.5q3 2 6 4.5t7 3.5q-57 70 -79.5 146t-28 158t-0.5 170.5t4 182.5q0 14 -4.5 22t-23.5 6zM193 144q0 -16 31.5 -38t66.5 -53q6 6 17 10.5t22.5 7.5t20.5 4.5t11 1.5l5 178v39.5t-1 46t-2 39.5t-2 20 q-1 5 -11 12.5t-21 15t-19.5 12.5t-5.5 5q-18 0 -38 -11t-36.5 -25t-27 -27t-10.5 -17v-221zM315 770q32 -16 55 -30.5t54 -14.5q5 0 7.5 1.5t14.5 2.5q-43 12 -70.5 36t-36.5 31q-10 -11 -13 -13t-11 -13zM334 467q18 -10 30 -20t19.5 -25t10.5 -37.5t3 -58.5l-1 -241 q6 1 12 1.5t10 1.5l3 340q-4 2 -14 10l-21 16.5t-21 15.5t-15 7t-8 -3t-8 -7z" />
<glyph unicode="7" horiz-adv-x="547" d="M15 653l108 172q24 -13 39.5 -24.5t31.5 -20t37 -13.5t55 -5q60 0 100 11t67.5 25t45.5 26.5t33 15.5v-39q-21 -70 -51 -121.5t-62.5 -93t-64 -76.5t-57 -73t-40.5 -82t-15 -103q0 -18 6.5 -40.5t16.5 -42t23.5 -33t26.5 -13.5q18 0 27.5 17.5t31.5 37.5q5 -4 9.5 -7 t4.5 -11q0 -15 -21.5 -35.5t-55.5 -65.5q-22 -29 -33 -47.5t-16.5 -29t-8 -14.5t-7.5 -4q-7 0 -30 13t-48 40t-44.5 69t-19.5 99q0 66 21.5 119.5t49 92.5t52.5 63t32 32q72 84 118.5 129l73.5 71.5t38.5 43.5t14.5 45q-47 -47 -91.5 -75t-83.5 -43t-70.5 -19.5t-52.5 -4.5 q-36 0 -62 5.5t-43 12.5t-26.5 12.5t-12.5 5.5q-5 0 -7 -5.5t-4 -12.5t-6 -12.5t-13 -5.5t-12 4.5t-5 9.5zM112 745q25 -7 50.5 -15.5t60.5 -8.5q24 0 32 1.5t13 3.5t13 4t33 2q-41 0 -66.5 4.5t-44 11.5t-34.5 15.5t-37 17.5l-12 -20t-8 -16zM127 188q0 -38 15 -71t34 -57 t37 -37.5t25 -13.5q15 0 15 16q0 3 -14 17t-30.5 38t-30.5 58t-14 78q0 58 21.5 112t41.5 88q-22 -25 -40.5 -55t-32 -61t-20.5 -60.5t-7 -51.5z" />
<glyph unicode="8" horiz-adv-x="521" d="M15 47q0 11 6.5 17l14 13.5t14 17.5t6.5 28v214q0 9 -12 18v17q62 3 107.5 18.5t63.5 24.5q-20 14 -45 19.5t-47.5 7t-38 0.5t-16.5 -1q-11 0 -13 10.5t0 31.5t5.5 52t3.5 71q-1 32 -5.5 56t-9.5 46q9 5 35 14.5t61.5 25.5t76 38.5t79.5 53.5q4 -5 24.5 -22.5t45.5 -36.5 t49 -34t36 -15q10 0 17.5 13.5t23.5 29.5q1 0 5 -0.5t4 -4.5q0 -5 -5 -13t-11 -20t-10.5 -28.5t-3.5 -39.5q1 -32 0.5 -58.5l-1 -52t-1.5 -52t-1 -58.5q-43 0 -72 -3t-48 -6.5t-29 -7t-15 -3.5l-8 -8q22 -15 59.5 -26t112.5 -11q1 -5 4 -17t3 -22v-253q-36 -13 -45 -12 t-14 0q-46 -18 -76 -39t-49.5 -38t-30.5 -28.5t-20 -11.5q-17 0 -37.5 18.5t-43 41t-46.5 41t-48 18.5q-3 0 -6 -5.5t-8.5 -13t-14 -15t-20.5 -11.5q-6 6 -6 11zM77 110q27 -9 56 -27.5t53 -36.5t39.5 -32t16.5 -14q5 0 8.5 2t8.5 2v11q-47 37 -76 57.5l-44.5 32t-21 18 t-5.5 15.5v210q-17 4 -35 4v-242zM79 697l5 -219q6 4 13.5 5l7.5 1v217q-9 -1 -13.5 -2t-12.5 -2zM179 162q33 -16 59.5 -34.5t45 -34.5t29 -26.5t11.5 -10.5q14 0 20 10t8 41q2 34 2.5 61.5l1 54t0.5 54.5t1 61q-3 28 -26.5 40t-53 13t-58 -7t-40.5 -20v-202zM179 474 q27 -10 52.5 -21.5t29.5 -11.5q5 0 15.5 3l23.5 7t27 7.5t25 4.5l5 151q0 14 -6 24t-22 23t-44.5 33t-73.5 55q-7 -5 -12.5 -7t-10 -5t-7 -9t-2.5 -20v-234zM242 760q18 -11 29.5 -20.5l24.5 -19.5t31.5 -21t50.5 -26v-202q11 -2 26 0l4 206q-15 4 -34.5 15.5t-40 26.5 t-39.5 31.5t-33 30.5q-4 -5 -5 -6t-14 -15zM372 99q0 -9 4 -11.5t9.5 -1t10.5 4.5t8 4v253q-11 3 -10.5 2.5t-13.5 1.5z" />
<glyph unicode="9" horiz-adv-x="532" d="M15 39q0 10 15.5 28.5t44.5 36.5t70.5 31.5t93.5 13.5q30 0 51.5 -7.5t55.5 -13.5l1 226l-7 5l-145 -112q-3 1 -21.5 12t-41 26t-44 31t-29.5 26v372q54 0 99.5 21t80 46.5t56 46.5t27.5 21q15 0 31.5 -14l35.5 -31.5t39 -31.5t41 -14q2 2 12.5 11t23 16.5t12.5 -1.5 q0 -4 -6 -13t-14 -19t-14 -18.5t-6 -12.5q-4 -85 -4 -155t1.5 -136.5t4 -136.5t3.5 -156q5 -4 9.5 -7t11.5 -5v-13l-94 -31.5t-56 -24t-44.5 -32l-59.5 -55.5q-33 31 -60.5 46.5t-53.5 19.5t-54 0t-61 -10q-1 5 -3 7.5t-2 6.5zM83 357l25.5 -20t21.5 -15.5l24.5 -17 l34.5 -25.5l8.5 7t8.5 8q-22 11 -42.5 22.5t-35 26.5t-20.5 34t3 45q0 28 2.5 64.5t3 74t-2 72.5t-12.5 60q-5 -2 -11 -2.5t-8 -0.5v-333zM113 93q35 5 68.5 0t65 -10.5t59 -6.5t50.5 12l-62.5 23t-63.5 10q-6 0 -23.5 -3.5t-36.5 -8.5l-35.5 -9.5t-21.5 -6.5zM189 424 q0 -14 9 -27t21.5 -23.5t25.5 -17t21 -6.5q3 0 14.5 7.5l24.5 16.5l24 16.5l11 7.5q0 44 3 91q2 28 2.5 50.5t0.5 44v44t1 50.5q-20 8 -37 21t-30.5 25l-23 20.5t-14.5 8.5t-13 -4.5t-16.5 -10.5t-15 -12t-8.5 -8v-294zM267 773q18 -24 37 -37.5t35 -22.5t26 -17t10 -21 v-153.5t-0.5 -135.5t-1.5 -135.5t-2 -153.5q36 13 38 42.5t1 76.5v470q0 9 -18 25t-40.5 32l-41.5 28.5l-22 14.5q-7 -7 -11.5 -9t-9.5 -4z" />
<glyph unicode=":" horiz-adv-x="202" d="M15 416q26 41 45.5 66t35.5 29q4 0 18 -13.5t29.5 -30.5t28 -33t12.5 -22q0 -2 -8.5 -13.5t-21 -27t-28 -32.5t-29.5 -30q0 1 -13 15.5l-28.5 32.5t-28 35.5t-12.5 23.5zM16 62q32 40 53.5 64.5t30.5 27.5q2 0 16 -12t29.5 -28.5t28.5 -33.5t13 -27q0 -14 -22.5 -35.5 t-63.5 -65.5h-8q-4 6 -16.5 22.5l-26 34.5t-24 33.5t-10.5 19.5zM45 416q10 -12 21 -28t35 -32q3 6 5 8q-5 19 -16.5 29.5t-11.5 20.5q0 16 11.5 28t11.5 20q0 11 -6.5 7t-15.5 -13.5t-18.5 -21.5t-15.5 -18zM50 59q4 -4 11.5 -15.5t16.5 -22t18.5 -16t16.5 2.5 q-12 23 -21.5 32t-9.5 19q4 10 11 20l13 18t8 13t-4 5q-13 0 -29.5 -21t-30.5 -35z" />
<glyph unicode=";" horiz-adv-x="199" d="M15 58q0 1 13 16.5l29.5 33.5l31 33t16.5 15q3 0 15.5 -11.5l26.5 -25.5t25.5 -27.5t11.5 -16.5q0 -9 -6.5 -16t-18 -17.5t-27 -27.5t-33.5 -45q-1 -1 -6 -11l-11.5 -22.5l-12.5 -24t-9 -16.5l-11.5 5t-4.5 7q0 3 6 15l13 25.5l13 25t6 14.5t-10.5 13l-23 22l-23 22.5 t-10.5 13.5zM19 413l52 70.5t29 31.5q36 -35 58.5 -60.5t25.5 -39.5q0 -3 -7.5 -14.5t-19 -27t-26 -32.5t-28.5 -31l-14.5 14.5t-29 31t-28 34t-12.5 23.5zM51 56q12 -5 19 -12.5t21 -27.5q2 2 8.5 6.5t6.5 10.5q0 13 -6 14.5t-14 -0.5v28l20.5 23.5t5.5 7.5q-4 8 -7 7 t-8.5 -8l-16 -20t-29.5 -29zM51 408q12 -11 18 -17.5l10.5 -11.5t9.5 -10t17 -12l4.5 6.5t3.5 5.5q-17 28 -24.5 30.5t-7.5 8.5q0 21 12 33t12 23q0 10 -5.5 7t-14 -13t-18 -24z" />
<glyph unicode="?" horiz-adv-x="449" d="M15 777v15q62 -21 110 4.5t64 79.5h13q32 -48 72.5 -75l76 -52.5t59.5 -60t24 -97.5q0 -55 -27.5 -97t-57.5 -61q-19 -12 -46 -23t-51.5 -22t-41.5 -24.5t-17 -30.5q0 -9 7 -16t15.5 -13l15.5 -11t7 -10q0 -10 -4.5 -19t-15.5 -9q-25 0 -42 13t-27 31t-14.5 37.5 t-4.5 33.5q0 46 17.5 75.5t43 50t56 35t56 31.5t43 39t17.5 57q0 14 -5 31t-13.5 31t-19 23.5t-21.5 9.5q-4 0 -14.5 -8.5t-28 -18.5t-43 -18.5t-58.5 -8.5q-11 0 -28 2.5t-36.5 10.5t-40.5 23.5t-40 41.5zM91 762q11 -2 18.5 -5.5t12.5 -3.5q27 0 49 12.5t54 38.5 q-1 2 -7.5 12t-20.5 21q-12 -30 -39.5 -49.5t-66.5 -25.5zM132 99q3 15 19.5 36t37.5 69q5 -2 20.5 -16.5l32 -31l29.5 -30l13 -13.5q0 -11 -24.5 -34.5t-57.5 -72.5q-42 42 -57.5 60t-12.5 33zM143 92q8 -3 13 -6.5t6 -4.5q10 9 19 20t16 21.5t11.5 18l4.5 7.5q0 7 -5 10.5 t-15 9.5q-6 -19 -24 -40t-26 -36zM150 364q0 -13 2.5 -20.5t5.5 -21.5q0 58 18 90.5t44.5 52t58 30.5t58 25t44.5 36t18 64q0 24 -7 42t-17 32q8 -24 7.5 -44t-4.5 -34.5t-9.5 -23.5t-8.5 -12q-21 -23 -56.5 -40.5t-69.5 -39.5t-59 -53.5t-25 -82.5z" />
<glyph unicode="A" horiz-adv-x="926" d="M15 -236q0 22 17 47t37.5 46.5t38 37t18.5 19.5q3 10 -0.5 27t0.5 45q6 42 24 75t41 57t47 39t42 21q44 16 70.5 20.5t42 4.5h23t12.5 7t10.5 23.5t18.5 51.5q23 62 36.5 103.5t20 67t8 37t1.5 14.5q0 25 -15 46.5t-37 37.5t-47 25t-44 9q-24 0 -44.5 -16.5t-20.5 -41.5 q0 -20 7 -29t17.5 -13t22 -7t20.5 -12q-9 -4 -18 -4q-21 0 -38 8.5t-29.5 21t-19.5 27.5t-7 28q0 15 8 37t26.5 42t48.5 34t74 14q50 0 71.5 -8.5t41.5 -6.5q-32 43 -73.5 60t-79.5 17q-48 0 -81 -15.5t-52.5 -40t-28 -55t-8.5 -60.5q0 -36 14.5 -68t37 -56t50.5 -38t54 -14 q16 0 33 6t32 13l25.5 12t13.5 2v-11q-32 -25 -56 -34t-63 -9q-21 0 -50 12t-55 37t-44.5 64.5t-18.5 94.5t19.5 104.5t53 87t77.5 59.5t92 22q67 0 113.5 -28.5t72.5 -59.5q9 7 13.5 15.5t7.5 18l6.5 20t12.5 22.5l46.5 -182t41.5 -182q8 -40 13 -61.5l9 -37.5l8.5 -32.5 l12.5 -47.5q1 -3 6.5 -29.5t15 -58t22.5 -57t28 -25.5q6 0 16 9.5t21 32.5q5 -3 9 -6.5t4 -10.5q0 -10 -13.5 -31l-31.5 -47.5t-35.5 -56t-25.5 -56.5q-2 0 -4.5 -2.5t-4.5 -2.5t-17 19.5l-33 44l-33.5 47t-18.5 28.5q-7 14 -8.5 24t-2.5 19t-3 18.5t-10 21.5 q-41 -51 -62 -90.5t-33 -66.5t-20 -41t-23 -14q-6 0 -21 11.5t-37 25t-50 25t-59 11.5q-40 0 -75 -12.5t-63 -32.5t-48 -45.5t-30 -50.5l9 -9q11 8 32 17t46.5 17t52 13t47.5 5h102q37 0 85 -13t91 -35t72.5 -50.5t29.5 -59.5q0 -40 -24.5 -66.5t-62.5 -42.5t-84 -22t-90 -6 q-33 0 -61.5 6t-51.5 14t-39 15.5t-23 10.5q-48 20 -74.5 44.5t-40.5 45.5t-20 35.5t-14 14.5q-47 -28 -75.5 -52.5t-32.5 -56.5q0 -41 19 -58t42.5 -21t44.5 0t25 4v-15h-59q-21 10 -36 16.5t-24.5 15.5t-14.5 23t-5 39zM161 -130q0 -20 28.5 -48.5t73 -55t98.5 -45.5 t105 -19q56 0 97 12t68 29.5t40 37.5t13 36q0 27 -27 47t-70 34t-97 21t-107 7q-34 0 -73 -5t-72 -12.5t-55 -18t-22 -20.5zM205 54q44 25 76.5 37.5t79.5 12.5q55 0 91.5 -17t80.5 -46q5 11 9 15t9 20q-15 8 -29 17t-31.5 17t-41.5 13t-59 5q-32 0 -56 -3t-45 -11 t-41 -22.5t-43 -37.5zM284 766q4 2 17.5 6.5t30.5 9t34.5 8t29.5 3.5q21 0 47.5 -6t52.5 -20t49 -36.5t38 -55.5l12.5 27.5t4.5 17.5q0 6 -13 23t-36 35.5t-54 33t-68 14.5q-27 0 -67.5 -14t-77.5 -46zM366 653q37 0 57 -3t36 -12.5t34 -27.5t51 -48q5 11 8 18.5t3 12.5 q0 11 -13 22.5t-33 22t-43 17t-44 6.5q-17 0 -24 -2t-32 -6zM466 206q38 -8 62 -16.5t38.5 -15t20.5 -10.5t8 -4q5 0 8 3t8.5 13t16 27.5t30.5 46.5v35h-164q-2 -3 -5.5 -12t-7.5 -21l-8 -24.5zM501 313q36 0 57.5 -0.5t36.5 -0.5h27t29 1q-4 17 -10 22t-25 6q-40 3 -57 3 t-23.5 -1t-10 -2t-16.5 0q-2 -5 -4 -13.5t-4 -14.5zM523 404q0 -5 11 -7.5t27.5 -4t35.5 -1.5h34l-9 39.5t-13.5 55l-14.5 53.5t-11 34q-2 -15 -11.5 -42.5t-20.5 -54.5l-19.5 -48t-8.5 -24zM602 630q0 -3 3.5 -21t12.5 -54l24 -93l37 -138q12 -44 17.5 -71l9 -45.5t7.5 -32 t13 -30t25.5 -40l44.5 -60.5q17 12 17 28q0 6 -9.5 13t-22 21.5t-26 40.5t-22.5 69q-7 36 -15.5 72.5l-19.5 83.5q-2 6 -7.5 30l-13.5 56.5l-17.5 69l-18 68t-15 53.5t-8.5 25q-5 -27 -10.5 -35t-5.5 -10z" />
<glyph unicode="B" horiz-adv-x="709" d="M15 760q0 30 12.5 53.5t31.5 40.5t41 26t41 9q42 0 64 -23t34.5 -50.5t21 -50.5t22.5 -23q28 0 36 33t6 82h15v-28q0 -1 -4 -19.5l-8.5 -40.5l-8 -40t-3.5 -19q0 1 15.5 14l38.5 33l50.5 43l53.5 43t47 33t30 13q18 0 35.5 -13.5t32 -40.5t23.5 -66t9 -90 q0 -33 -1.5 -53.5t-11.5 -38t-32 -37t-62 -49.5q8 -4 32 -10.5t50.5 -19.5t47 -35t20.5 -58v-235q-13 -3 -25.5 -3.5t-27.5 -3t-34.5 -9t-46.5 -21.5q-21 -12 -40 -30t-34.5 -35t-27.5 -29t-19 -12q-5 0 -25.5 14.5t-51 31.5t-70.5 31.5t-84 14.5q-28 0 -53 -11t-43.5 -28 t-29.5 -37.5t-11 -39.5q0 -21 12.5 -21.5t39.5 7t68.5 17.5t99.5 10q21 0 60 -5.5t76.5 -18.5t65.5 -34.5t28 -53.5q0 -21 -14.5 -37t-39.5 -27t-58 -16.5t-70 -5.5q-59 0 -103 13t-63 22q-44 20 -61.5 38.5t-27 32t-21 19.5t-44.5 1q10 17 19.5 18.5t11.5 8.5q0 58 9.5 103 t50.5 79q13 10 30 19t33 15t28 10t16 6l-8 8t-8 9v11q21 2 34 11t21 22.5t10.5 29t2.5 28.5v88q-23 0 -41 0.5t-32 -4.5t-24 -18.5t-18 -41.5q-10 11 -13 15.5t-3 26.5q0 30 12.5 43t31.5 18.5t41 8.5t41 14v21q-19 5 -30 6.5t-30 1.5q-20 0 -45 -6t-46.5 -18.5t-36.5 -31 t-15 -43.5q0 -35 17.5 -58t39 -37t41 -20t23.5 -8q-10 -12 -8.5 -11t-11.5 1q-18 0 -42.5 10.5t-47 31t-38 51.5t-15.5 72q0 36 15.5 64t39 48t51.5 31.5t53 13.5q40 3 71 20t43 36.5t0 35.5t-60 16q-26 0 -45.5 10t-33.5 25t-23 33t-13 34q0 3 -1 14.5t-5 25t-10.5 24 t-16.5 10.5q-4 0 -12 -6t-16.5 -17t-14.5 -27t-6 -35q0 -17 10 -41.5t23.5 -47.5t27 -39t19.5 -16q-46 22 -73 62t-27 79zM84 466q41 22 88.5 25t87.5 2v15h-91q-16 -7 -24.5 -7.5t-16 -2t-17 -8t-27.5 -24.5zM91 -76q27 -24 50.5 -42t49 -30t54.5 -18t66 -6q92 0 137 17 t45 43q0 16 -31 28t-69 20t-70.5 12t-35.5 4q-12 0 -21 0.5t-20.5 0.5t-27 -1t-40.5 -4q-43 -4 -60.5 -10t-26.5 -14zM110 857q16 -13 21 -37.5t12 -50.5t22 -48t53 -30h16q-28 12 -39.5 34t-18.5 46.5t-16.5 47.5t-33.5 38h-16zM201 106q37 0 65 -3t54 -11.5t53.5 -23 t64.5 -37.5q5 6 6.5 8.5l8.5 14.5q-15 15 -36.5 27.5t-45.5 22t-48 14.5t-43 5q-7 0 -30 -6.5t-49 -10.5zM269 193q32 6 59 4.5t49.5 -6l40.5 -8t31 -1.5q0 31 1 71.5l2 80.5t0 74.5t-6 53.5q-22 -5 -27.5 -16.5t-5 -30t1.5 -43t-8 -56.5q-9 -31 -26 -50t-36.5 -31.5 t-39.5 -21.5t-36 -20zM280 249q17 8 28.5 28t18.5 41.5t10 40t3 24.5v303q0 1 -4 2.5t-9 2.5q-24 -69 -32 -107.5t-7.5 -65.5t5 -52t4.5 -67v-100l-2 -7t-5 -16t-6 -17t-4 -10zM403 735l7 -245q16 -4 23.5 -3t15.5 3v302q-25 -11 -32.5 -30t-13.5 -27zM470 421 q0 -9 0.5 -18.5t1 -34t1 -70.5t0.5 -129q27 -11 42.5 -19.5t28.5 -19.5l5 144q1 30 1.5 65.5t-4 66t-16 51t-33.5 20.5q-18 0 -22.5 -16.5t-4.5 -39.5zM477 501q21 15 30.5 28t13 29t3 36.5t-0.5 49.5q0 12 1 31t-2 39t-13 38t-32 29v-280zM481 816q46 -24 59 -63t13 -102 q0 -34 -0.5 -43.5t-1.5 -13.5t-2.5 -12t-4.5 -38q14 12 22 23t12 25t5 33.5t1 49.5q0 45 -9 75.5t-21.5 49t-26.5 26t-25 7.5q-7 0 -13 -8t-8 -9zM557 462q4 -8 12 -29t8 -31q1 -39 1 -71t-1 -63t-2.5 -63t-2.5 -71q11 7 17.5 12t17.5 8l9 169q2 48 -10 83t-49 56z" />
<glyph unicode="C" horiz-adv-x="666" d="M15 378q0 27 4 60t12.5 67t20 67t26.5 60q1 2 20 36t47 76t61 79t63 45q-10 -16 -19 -28.5l-18 -25.5t-18.5 -29.5t-20.5 -42.5v-11q0 -1 3.5 -3t4.5 -2q21 0 51.5 19t69.5 47.5l86 63t101 64.5h12q0 -20 3 -46.5t9 -50.5t15.5 -40.5t21.5 -16.5q21 0 27.5 20.5t5.5 46 t-6 49.5t-5 30q7 7 13.5 1t11 -19.5t7.5 -31.5t3 -34q0 -70 -22.5 -99t-51 -37t-55 -5t-33.5 -1l5 -583q9 1 33.5 17.5t50.5 50t46.5 86t20.5 124.5q0 70 -9.5 102t-9.5 38q0 5 5.5 7.5t8.5 5.5h11q13 -31 18.5 -68t5.5 -71q0 -69 -19 -141.5t-58.5 -131t-99.5 -96 t-141 -37.5q-11 0 -39.5 4t-64 17t-73.5 38.5t-69.5 69t-52 107t-19.5 153.5zM39 335q0 -34 14.5 -74t34 -76t39.5 -63.5t30 -34.5q16 -12 41.5 -23t48.5 -20t39 -14.5t13 -5.5q-63 15 -107.5 66t-72 112.5t-40 121.5t-12.5 94q0 36 7.5 73.5t18 72.5t22 65l19.5 50 q-17 -25 -34 -59t-30.5 -70t-22 -70.5t-8.5 -61.5v-83zM161 467q0 -39 7 -79.5t16 -73.5t18.5 -55t14.5 -26q8 15 13.5 35.5t8.5 40t4.5 33.5l1.5 14q2 52 1.5 95t-1.5 84t-2.5 84t-1.5 95q-25 -11 -34.5 -13t-17.5 -15q-3 -3 -7.5 -32.5t-9 -66t-8 -71t-3.5 -49.5zM232 194 q9 -15 26.5 -33.5t40.5 -35t50 -27.5t57 -11q11 0 19.5 1.5t16.5 2.5q0 87 1 158t1.5 139.5l1 139.5t-0.5 158q0 14 -4 23t-10.5 17l-14 18t-13.5 26q0 -51 -0.5 -92.5t-0.5 -81t1 -81t3 -92.5q3 -78 -6 -111.5t-30.5 -49t-56 -26t-81.5 -42.5zM260 250q18 11 27.5 30.5 t13.5 42t5 45t2 38.5q2 50 2 91t-1 80t-2.5 79.5t-1.5 90.5h-14q-12 -12 -15.5 -23.5t-4.5 -28.5q-5 -61 -2.5 -125.5t4.5 -124.5t0.5 -111t-13.5 -84zM425 812q0 -44 23.5 -64t72.5 -38q-28 19 -40 29t-16.5 21t-6 28.5t-9.5 51.5q-5 -2 -14.5 -8.5t-9.5 -19.5z" />
<glyph unicode="D" horiz-adv-x="764" d="M15 -36q0 26 13 66t44.5 77.5t84 64t131.5 26.5q13 0 57.5 -7t112.5 -21q3 10 5 18.5t2 21.5v515q0 1 -2.5 5.5t-6.5 4.5q-3 -1 -20 -5.5t-45 -10t-48 -5.5q-96 0 -142.5 44.5t-46.5 104.5q0 1 1.5 12t2.5 13q14 -5 17.5 -10.5t7.5 -10t15 -7t40 -2.5q40 0 77 5.5t74 12 t75 11.5t80 5q79 0 120 -26t59 -59t21 -63t5 -38l-11 -536q-27 0 -47.5 -4t-38.5 -10.5t-37 -16l-43 -20.5q-37 -18 -61 -39.5t-39.5 -41l-25.5 -32.5t-19 -13q-8 0 -23 17.5t-41 38t-64.5 38t-92.5 17.5q-16 0 -44.5 -8t-55.5 -23t-47 -37.5t-20 -52.5q0 -49 23 -86.5 t62 -62.5t92 -38t113 -13q46 0 99 11.5t98 36t75 62.5t30 92q0 6 -3 20.5l-6 29.5t-4.5 26t1.5 11q5 0 16.5 -22t11.5 -75q0 -46 -21.5 -88t-62 -73.5t-98.5 -50t-131 -18.5q-57 0 -113.5 13t-102.5 40t-74.5 68.5t-28.5 97.5zM19 406q0 34 15 63t39.5 50.5t56.5 35t67 18.5 q23 3 33 -0.5t15 0.5q3 3 5 15t16.5 30t47 41t96.5 48h20q-1 -4 -6 -12.5t-10.5 -27t-10 -50.5t-4.5 -83v-111q0 -3 2 -13t2.5 -24.5t-1 -31.5t-7.5 -35q-9 -24 -32.5 -45.5t-50.5 -37.5t-52.5 -25t-38.5 -9q-7 0 -6 10.5t4.5 25t8 29t4.5 22.5q0 29 -23.5 41.5t-49.5 12.5 q-24 0 -31 -6t-11 -33q-21 14 -28 30.5t-7 40.5q0 34 21.5 46t48 13t49.5 -3.5t27 -4.5q-5 7 -16.5 13t-24.5 10.5t-25 7t-18 2.5q-36 0 -67 -23t-31 -61q0 -21 8 -41t21 -35.5t28 -24.5t28 -9t26.5 5t25.5 11t22 10t16 2v-17q-24 -19 -48 -23t-42 -4q-10 0 -28.5 7t-37 25 t-32.5 48.5t-14 76.5zM63 462q16 10 42 17t42 7q21 0 46 -7.5t29 -7.5q5 0 6 1t6 1v33q-9 4 -25 8t-38 4l-12 -1t-29 -6.5t-35.5 -17t-31.5 -31.5zM117 359q32 6 51.5 4t31 -6.5t17 -9t8.5 -4.5q7 0 8 6.5l1 6.5q-6 6 -17.5 11.5t-24 10t-23.5 7.5t-17 3q-13 0 -20 -9z M150 126q6 0 36.5 1.5t70.5 -5t84 -25.5t77 -60q5 4 14 9.5t9 12.5q0 15 -28.5 31t-64 29.5t-68 22t-41.5 8.5q-17 0 -26.5 -1.5t-17.5 -4.5t-18 -7.5t-27 -10.5zM189 809q3 -3 9 -14t21 -22.5t42 -21t71 -9.5q39 0 64 4t44 8t35.5 8t38.5 4q37 0 58.5 -8.5t32.5 -26 t14.5 -43.5t3.5 -61q1 -65 1 -118t-1 -104l-2 -104.5t-1 -118.5q20 8 26 24t6 47.5t-1 81t4 123.5q4 53 3 92t0 93q3 29 1.5 57t-10.5 49.5t-28 35t-51 13.5q-41 0 -68.5 -4.5t-54 -9.5t-57.5 -9.5t-78 -4.5h-33.5t-24 3t-26 11t-39.5 25zM260 241q20 11 29 32.5t12.5 48 t3 53.5t-0.5 48v94q0 44 4.5 69.5t7.5 53.5q-29 -40 -39 -73.5t-11.5 -61t-0.5 -50t-5 -40.5v-174zM485.5 434.5q0.5 -8.5 4.5 -19.5q32 17 56.5 11.5t49.5 -3.5q0 21 1 34t1.5 25t0 26t-2.5 37q-24 -4 -33 -7.5t-16 -5t-18 0.5t-39 8q0 -34 -1.5 -53.5l-2.5 -32t-0.5 -21z M490 161q52 -29 79 -7t27 83v154l-24.5 8.5t-21.5 3.5q-2 0 -15.5 -1.5t-29 -9.5t-15.5 -25v-206zM490 576q8 1 17 -4t21.5 -8.5t29 -0.5t38.5 21v91q0 34 -16 49t-55 15q-10 0 -18 -1.5t-17 -3.5v-158z" />
<glyph unicode="E" horiz-adv-x="709" d="M15 419q0 6 6 41t30.5 92.5t72.5 134.5t132 166h13v-21q-23 -36 -32.5 -56.5l-15.5 -33.5v-11q0 -1 3.5 -3l3.5 -2q11 0 95 44.5t223 128.5h22q1 -25 -5.5 -39t-6.5 -36q0 -5 2.5 -15.5t7 -21t12 -18t18.5 -7.5q26 0 34.5 14.5t8.5 35t-3 42.5t1 38q16 -16 18.5 -28.5 t2.5 -30.5q0 -60 -20 -90.5t-47 -42.5t-54.5 -11t-42.5 3q-5 -37 -4.5 -62.5t0.5 -60.5q13 -1 32.5 5t34.5 6q27 0 46 -12t37 -31q19 11 21 19.5t14 8.5q9 0 12.5 -5.5l6.5 -10.5l-126 -199q-12 8 -17 25.5l-10.5 37.5t-16 39t-34.5 30v-378q90 28 135 100t45 167 q19 5 21.5 -5.5t2.5 -27.5q0 -69 -25 -131t-68.5 -109t-103.5 -74.5t-130 -27.5q-14 0 -45.5 5.5t-70.5 21.5t-81 45t-76.5 76t-56.5 114.5t-22 160.5zM47 399q0 -78 18.5 -135t47 -96.5t61 -64.5t61 -38.5t47.5 -18.5t20 -5q2 0 6 1.5t8 1.5q-53 17 -97.5 53.5t-76.5 88.5 t-50 117t-18 140q0 44 13 92.5t19 80.5q-2 -9 -11.5 -28.5t-20 -48t-19 -64t-8.5 -76.5zM180.5 511q-1.5 -36 1.5 -81q0 -2 4 -28t11.5 -60t18.5 -67t25 -49q13 21 22 33.5t13.5 25t5.5 30t-2 48.5q-1 31 -0.5 56t0.5 49t-0.5 49t-2.5 56q-4 52 -6 84.5t-7 49.5 q-14 -11 -23 -14.5t-27 6.5q-11 -43 -20 -74.5t-12 -75.5q0 -2 -1.5 -38zM253 198l33.5 -31t43 -34t50 -27.5t55.5 -11.5q8 0 14 1.5t13 2.5v384q-28 -25 -33.5 -40t-4.5 -32t1.5 -41.5t-14.5 -68.5q-12 -36 -35 -53t-47.5 -25t-45.5 -11.5t-30 -12.5zM297 257 q8 8 13.5 15.5t10 22t8 39t7.5 65.5l-2 332h-18q-7 -8 -13 -13t-6 -15v-446zM421 765q0 -10 1 -20t2 -35t2 -71.5t1 -129.5q23 19 31 31t8 20v147q0 9 -4.5 14t-10.5 12.5t-12 20t-9 36.5q-7 -8 -8 -14.5t-1 -10.5zM455 791q0 -16 8.5 -30t20.5 -24.5t25.5 -16.5t23.5 -6 q5 0 10.5 1.5t13.5 3.5q-21 3 -34 12t-21 21.5t-14.5 28.5t-14.5 33l-13 -11.5t-5 -11.5zM497 517q14 -9 24.5 -17t19 -18.5t16 -25.5t15.5 -38l10 15.5t3 9.5q0 12 -10 25t-22 23.5t-22.5 17.5t-12.5 8h-21z" />
<glyph unicode="F" horiz-adv-x="754" d="M15 3q0 34 11.5 65.5t31 55.5t47 38.5t58.5 14.5q33 0 55 -9.5t36 -21.5t22 -21.5t13 -9.5q19 0 29 23t13.5 55.5t3.5 68v60.5q0 15 -0.5 33.5t-1 35t-1 29t-1.5 14.5h-110q-2 0 -7 6t-5 5q0 55 30.5 77.5t69.5 26.5q21 2 24.5 13t3.5 29.5t2 43.5t20 57q12 22 47.5 51.5 t79.5 57t90 49t80 27.5q0 -1 -4 -25t-3.5 -52.5t11.5 -52t41 -23.5q14 0 15.5 11t6.5 23q7 -7 11.5 -12t4.5 -18q0 -12 -8 -27t-22 -28.5t-33 -22.5t-42 -9q-13 0 -22.5 6.5t-35.5 16.5q-5 -21 -6.5 -37.5t-1.5 -35.5q0 -26 6.5 -36t15 -12.5t15 -0.5t6.5 0t-6.5 -17.5 l-14.5 -35t-15 -38.5t-7 -28v-206q0 -4 -1.5 -16.5t-3 -27t-3 -26.5t-1.5 -15q0 -13 22.5 -21.5t49 -23.5t49 -40.5t22.5 -71.5q0 -44 -17.5 -92t-53.5 -87.5t-90.5 -65t-128.5 -25.5q-71 0 -142 18t-127.5 55t-92 93t-35.5 132zM67 -81q0 -23 12 -45t29.5 -41t36.5 -33.5 t32 -20.5q8 -4 31.5 -11t53 -14t61 -12.5t56.5 -5.5q60 0 113 16.5t93.5 45t64 68t23.5 85.5q0 52 -23.5 86.5t-92.5 53.5q-20 -49 -68 -74t-113 -25q-6 -5 -11.5 -16t-5.5 -22q0 -26 10 -47t23 -35.5t26.5 -23t19.5 -10.5v-16q-4 0 -5.5 -2t-6.5 -2q-17 0 -34 18.5t-29 46 t-17 59.5t2 58q-10 5 -32.5 9t-46 6.5t-42 3.5t-20.5 1q-51 0 -79 -15t-41.5 -33.5t-16.5 -34.5t-3 -18zM110 55h165q-5 7 -26 23t-62 16q-20 0 -35 -7t-42 -32zM249 462q33 -4 49.5 -4h17.5q3 3 6.5 6t3.5 8q0 7 -2 13h-60q-7 -7 -9 -10t-6 -13zM316 79q18 -18 34 -28 t19 -10q2 0 7.5 6.5t17 17t31 22.5t49.5 22q24 7 37.5 7t21 4t11 19t6.5 54q4 47 2.5 82t-0.5 82q0 11 1 19t1 15.5t-2.5 16.5t-10.5 22l-57 -4q-24 -48 -31.5 -81.5t-8.5 -59.5t-1.5 -47t-11.5 -44t-37 -50t-78 -65zM340 135q52 36 54 98q1 55 0.5 100.5t-1.5 89l-2 88.5 t0 101q0 21 4 45l8 50q-21 -38 -31 -72.5t-13 -69t-1 -71t5 -79.5q4 -54 5.5 -93.5t-0.5 -93.5q-1 -24 -11.5 -52t-16.5 -41zM394 31q17 -3 33 -3.5t32.5 4.5t33.5 16.5t36 34.5v11h-40q-13 -7 -18 -6.5t-11.5 -2.5t-20.5 -14t-45 -40zM477 457q8 1 12.5 1t8.5 -0.5 t10.5 -1.5t18.5 -1q10 0 15.5 -0.5t9 1.5t6 7.5t7.5 18.5q-1 0 -26.5 1.5t-56.5 1.5q-2 -11 -3 -17.5t-2 -10.5zM477 581q0 -14 4 -23t39 -9q7 0 13.5 0.5t16.5 2.5l2 95q0 25 -6 40t-13.5 28t-13.5 27.5t-6 38.5q-12 -11 -19.5 -39.5t-11 -60t-4.5 -60t-1 -40.5zM541 780 q0 -17 10 -36.5t25 -36.5t32 -28t31 -11q9 3 15 4.5t9 2.5q-39 28 -54.5 40t-20.5 22.5t-6.5 26t-13.5 50.5l-19.5 -11.5t-7.5 -22.5z" />
<glyph unicode="G" horiz-adv-x="748" d="M15 382q0 11 3 35t9.5 55.5t18 68.5t29.5 73q11 22 32.5 54l42.5 61q3 4 20.5 26l36.5 44t34.5 35t15.5 -1q0 -1 -18.5 -33t-44.5 -95v-11q0 -1 3.5 -2.5t4.5 -1.5q39 0 90.5 31.5t100 70.5t86.5 73t51 39q1 -44 9.5 -71t40.5 -31q19 0 29 9t14.5 22.5t4.5 30v32.5 q20 4 21 -5.5t1 -14.5q0 -19 -4.5 -43.5t-18.5 -60.5t-41 -86t-73 -118q11 -11 46.5 -22.5t74 -36t69 -69t30.5 -121.5q0 -84 -30.5 -144.5t-79.5 -99.5t-111 -57t-124 -18q-97 0 -167.5 30.5t-116.5 82.5t-67.5 121.5t-21.5 147.5zM45 368q0 -75 20 -127t48 -86.5 t57.5 -54.5t47.5 -30q-37 44 -64 83t-44.5 80.5t-26 88.5t-8.5 106q0 22 5.5 51.5t12 58.5t13 52.5t8.5 32.5q-3 -10 -14 -30.5t-23 -52t-22 -74t-10 -98.5zM164 473q0 -99 13.5 -172.5t41.5 -126t69.5 -87t98.5 -54.5h49l1 451q-17 -17 -25.5 -23t-12 -10t-4 -11t-0.5 -27 v-87q0 -36 -24.5 -61t-55 -41t-57.5 -23.5t-33 -8.5q-2 5 -3.5 7.5t-1.5 10.5q0 2 7 10.5t15 26.5t14 47.5t5 74.5l-8 310q-26 -10 -43.5 -19t-27.5 -28.5t-14 -56t-4 -102.5zM268 243q22 21 33.5 45t11.5 34q2 56 1.5 102t-2 90l-3 90t-2.5 101q-15 -5 -21.5 -11 t-8.5 -16.5t-1.5 -26t0.5 -37.5q-1 -43 -0.5 -78l1 -69t1.5 -69.5t1 -79.5q0 -26 -2.5 -42.5t-8.5 -32.5zM395 495q35 24 66 59t54.5 67t38 56t15.5 26q-27 -15 -55.5 -7.5t-52.5 22.5t-40.5 30.5t-18.5 15.5q-1 -3 -3 -5.5t-4 -5.5v-258zM437 795q0 -12 12 -24t28 -22.5 t32 -17t24 -6.5q5 0 11.5 1.5t16.5 2.5q-20 5 -35.5 9.5t-27 14t-20 26t-15.5 45.5q-7 -5 -16.5 -14t-9.5 -15zM463 151q0 -31 1 -60.5t6 -44.5q24 11 40 15t25 15.5t13 37t4 79.5q0 20 -6.5 31t-31.5 11q-37 0 -44 -24t-7 -60zM465 255q10 0 27.5 2t61.5 -2q0 8 0.5 14.5 t0.5 17v27t-1 44.5h-89q5 -12 5.5 -17.5t-0.5 -14t-3 -24t-2 -47.5zM470 444q0 -25 9.5 -47.5t32.5 -22.5q35 0 43 33.5t8 82.5q0 33 -14.5 41.5t-32 -0.5t-32 -32.5t-14.5 -54.5zM576 124q23 13 35 44t17.5 64t6 59.5t0.5 30.5q0 2 -1 29t-6.5 57t-15.5 52.5t-28 16.5z" />
<glyph unicode="H" horiz-adv-x="978" d="M15 -204q0 19 11.5 37t25.5 32.5t25.5 24.5t12.5 12q2 6 -5 23.5t-7 39.5q0 33 21 75t61 78.5t98 62t131 25.5q45 0 76 -6.5t53 -14.5l38.5 -14.5t33.5 -6.5q5 0 8.5 0.5t8.5 0.5l15 688q-3 1 -5 3t-6 2q-28 0 -37.5 -36t-9.5 -80q0 -38 -1 -68l-2 -58.5t-1.5 -58.5 t-0.5 -67q0 -67 -1 -107t-16 -67t-50.5 -48t-105.5 -51h-24l-8 8l39 53.5t17 60.5q0 11 -17.5 19.5t-44.5 8.5q-29 0 -41 -15t-23 -36q-18 5 -27.5 18.5t-9.5 25.5q0 41 19 60.5t45 26.5t52.5 5.5t41.5 -1.5v18q-14 11 -27.5 14t-32.5 3q-16 0 -42.5 -7t-52.5 -21t-45 -35 t-19 -48q0 -36 18 -53t42 -23t47.5 -5t33.5 1q2 -10 -5.5 -14.5t-18 -6t-21 -1.5h-14.5q-25 0 -49 16.5t-42.5 41t-30 53.5t-11.5 53q0 42 27 75.5t65 55.5t79 31t69 2h26q5 50 27.5 103t58.5 96.5t83.5 71.5t102.5 28q39 0 64.5 -8t44.5 -22t34 -32.5l32 -39.5q2 0 10.5 6 l19.5 14t22.5 17.5t18.5 17.5h20q1 0 2 -5.5t1 -10.5q-20 -8 -50.5 -30.5t-69.5 -54l-86.5 -70l-101.5 -79.5v-109l134 153h21q0 -5 8 -24t19.5 -40t24 -37.5t22.5 -16.5t17.5 16.5t30.5 39.5q1 -4 2 -6.5t1 -5.5q0 -6 -7 -18t-16 -25.5l-17.5 -26.5t-10.5 -21l-7 -189v-80 q0 -5 6.5 -19t24.5 -44q13 5 24 23.5t31 58.5h12l9 -8l-30 -53l-19.5 -36.5t-17 -35l-22.5 -47.5q-11 -24 -19 -45.5t-25 -21.5q-4 0 -21.5 25t-37.5 57.5l-37 62.5t-21 41q-19 -13 -35.5 -43t-31 -61t-27.5 -54.5t-25 -23.5q-2 0 -23 14.5t-57.5 31.5t-87 31.5t-110.5 14.5 q-42 0 -80.5 -11.5t-68.5 -30.5t-47.5 -43.5t-17.5 -50.5q0 -11 1.5 -14t6.5 -14q13 3 34 12t51.5 18.5t70 17.5t88.5 8q83 0 138 -16.5t83 -23.5q8 -2 32 -9.5t49 -20.5t44.5 -32.5t19.5 -46.5q0 -36 -22 -59.5t-58 -37.5t-81.5 -19.5t-92.5 -5.5q-51 0 -101 26t-96 58 l-86.5 58t-73.5 26q-7 0 -20.5 -10t-26.5 -24.5t-22.5 -29.5t-9.5 -24q0 -22 18.5 -32t41.5 -13t43.5 -2t24.5 0q-8 -7 -12 -9.5t-7.5 -3t-8.5 0.5t-14 1q-38 0 -69.5 17t-31.5 55zM120 763q5 28 13.5 50.5t25.5 39.5t43.5 26.5t67.5 12.5q1 0 15.5 -4t31.5 -18t31 -40 t14 -71q0 -1 3.5 -11.5t11.5 -25.5q28 18 30.5 53t2.5 93q17 -10 18 -20t1 -35q0 -70 -29 -109.5t-86 -39.5q-54 0 -75.5 26t-26.5 63q-3 21 -4 40.5t-22 19.5q-13 0 -25 -15t-12 -35q0 -63 32 -92t79 -40v-12q-5 0 -7 -1.5t-6 -1.5q-6 0 -27 8.5t-43 26.5t-39.5 46 t-17.5 66zM137 -122q53 -60 134.5 -102t196.5 -42q42 0 81 4t68.5 13.5t47.5 26t18 41.5t-28 44.5t-66.5 32.5t-79.5 20t-67 8q-42 2 -70.5 1t-68.5 -1q-9 0 -33 -5t-51 -12t-50.5 -15t-31.5 -14zM208 466q26 25 58.5 33.5t61 9t48.5 -3.5t22 -4v17q-2 1 -12.5 4l-25 7 t-18.5 4q-28 0 -51 -9t-40 -20.5t-28 -22.5zM232 792q8 -19 8.5 -33t5.5 -26t19 -23t49 -24q-16 16 -22 37.5t-11 42t-15 37t-34 22.5v-33zM271 115q1 0 37 -0.5t85.5 -8t103 -26.5t90.5 -56q4 2 14 15t10 20q0 9 -30.5 20t-72 21t-84 16.5t-66.5 6.5q-29 0 -46.5 -2 t-40.5 -6zM310 384q28 7 48 3.5t47 -3.5v11q-7 4 -9.5 6t-4.5 2.5t-5.5 0t-13.5 -0.5q-21 0 -36 -6t-26 -13zM426 265q16 6 25.5 17.5t13.5 36.5t5 68.5t1 113.5v82t0.5 45.5t1.5 26t3 21t5 32t7 58.5q-15 -21 -26.5 -39.5t-19 -39.5t-10 -46.5t0.5 -60.5q7 -80 8 -135 t-1.5 -91t-6.5 -57t-7 -32zM638 442q0 -14 8.5 -26.5t37.5 -12.5q8 0 22 5t14 15q0 60 -37 82q-21 -32 -33 -42.5t-12 -20.5zM638 731q0 -38 0.5 -56t3.5 -32q14 12 25 18t18.5 13t11.5 18.5t4 34.5q0 19 -3 40t-9.5 39.5t-17 33t-25.5 20.5q-2 -7 -3.5 -25.5t-2.5 -39.5 t-1.5 -39t-0.5 -25zM639 154q8 -3 20.5 5t24.5 24t20.5 36.5t8.5 43.5q0 28 -5 32.5t-31 4.5q-20 0 -29 -6t-9 -22v-118zM641.5 351q-0.5 -11 0.5 -23q31 5 42.5 3.5t28.5 -3.5v50l-18 -1.5t-53 -1.5q0 -13 -0.5 -24zM690 857q11 -14 18 -35t11 -43.5t5 -43t1 -32.5 q16 13 26 25t10 38q0 42 -23 63t-48 28zM701 529q27 -17 36 -39.5t9 -53t-4.5 -69.5t-4.5 -90v-91q0 -7 8 -27t20.5 -43.5t27 -45.5t27 -33.5t20.5 -8t8 31.5q0 6 -12.5 22t-27.5 39.5t-27.5 53.5t-12.5 64q0 68 5.5 116.5t5.5 84.5t-11.5 63.5t-45.5 53.5 q-7 -14 -11.5 -18.5z" />
<glyph unicode="I" horiz-adv-x="674" d="M15 4q0 29 8 59.5t23.5 55.5t40 40.5t57.5 15.5t54.5 -15.5t37.5 -35.5t27.5 -40t24.5 -28q5 10 11.5 26t31.5 35v167q0 20 -8 30.5t-10 10.5q-1 0 -14 -2t-28 -6t-27 -10.5t-12 -16.5q0 -4 7 -10l13 -11t7 -8.5t-10 -3.5q-9 0 -20.5 7t-22 18t-17.5 25.5t-7 29.5 q0 24 13 38.5t33.5 22.5t45.5 12t49 7q0 5 2 6t2 5q0 21 -10.5 24t-39.5 3q-30 0 -57.5 -9.5t-49 -26.5t-34.5 -39t-13 -48q0 -35 20.5 -59.5t46 -41t48 -25.5t26.5 -13h-32q-27 12 -51.5 27t-43 35.5t-29 47.5t-10.5 62q0 65 32.5 109.5t94.5 74.5q17 8 31 10t25.5 2 t20 -0.5t14.5 3.5q3 3 6.5 10.5t6.5 16.5l5.5 16t3.5 9q20 31 47 49.5t52.5 30t44.5 19t23 16.5q13 31 24 51t25.5 35t36 29t55.5 34h13q-12 -29 -19 -38t-10 -16t-3 -22.5t1 -57.5q2 -70 3 -128t1.5 -113t0 -113t-1.5 -128q-1 -61 -21 -110.5t-54 -84.5t-80.5 -54 t-100.5 -19q-20 0 -49.5 4.5t-59 10l-54.5 10t-36 4.5q-10 0 -30 -8t-39.5 -21t-34 -30.5t-14.5 -35.5q0 -4 10 -31t39 -58t81.5 -56t138.5 -25q39 0 88 10t91.5 28.5t71.5 46t29 62.5q0 30 -19.5 41.5l-41.5 23.5q4 8 4.5 12.5t9.5 4.5q21 0 42 -22.5t21 -54.5 q0 -42 -26 -74t-71 -54t-105.5 -33.5t-129.5 -11.5q-60 0 -110.5 24t-87.5 62t-57.5 85t-20.5 94zM47 -13q26 14 37.5 26.5t27 20.5t44.5 11t89 -2q-39 23 -61.5 29t-29.5 6q-36 0 -67.5 -24t-39.5 -67zM130 768q0 22 10 45.5t29.5 42.5t47.5 31.5t65 12.5q52 0 74.5 -23.5 t33.5 -51.5t18.5 -51.5t29.5 -23.5q16 0 20.5 15t3 36t-4.5 43t-2 36h11q3 -14 7 -26t4 -34q0 -61 -29 -95t-79 -34q-43 0 -63 25.5t-32 56t-23.5 56t-38.5 25.5q-12 0 -23.5 -9t-20 -22t-14 -28t-5.5 -27q0 -9 9 -33t19 -37q27 -36 50 -47.5t42 -12t34.5 3.5t27.5 -2 q-10 -10 -15 -14t-10 -5.5t-12 -1t-20 0.5q-37 0 -64 17t-45 40.5t-26.5 49t-8.5 41.5zM165 453q29 12 47.5 16.5t34.5 6t32.5 1t40.5 0.5l-4 24q-21 -5 -35 -4t-29 -0.5t-35 -10t-52 -33.5zM229 332q3 9 14.5 12t26 3.5t29.5 -0.5t24 0v20h-22t-28.5 -3t-26.5 -10.5 t-17 -21.5zM271 859q11 -11 14 -25.5t9 -33t21 -41t49 -49.5h23q-24 29 -35.5 50l-20 37.5t-17 31t-26.5 30.5h-17zM299 304h13h-13zM316 43q10 0 18.5 -9t37.5 -9q17 0 39 4t42 13t34 24.5t14 39.5q2 85 2 154.5t-1 136t-2.5 135.5t-2.5 154q-13 -10 -19.5 -17.5 t-9.5 -16.5t-2.5 -20.5t0.5 -28.5q1 -54 2.5 -98t2 -86.5t0.5 -87t-1 -99.5q0 -21 -7 -46.5t-21.5 -49t-38 -42.5t-56.5 -27q6 -5 7 -5.5t5 -9.5q-11 -8 -16 -2t-16 13v-20h-11zM344 109l13 15t10.5 18.5t7.5 29.5t4 49q1 53 0.5 95.5t-2 83.5t-2.5 83.5t0 95.5 q0 11 6.5 29.5t8.5 26.5q-15 -15 -24 -31t-14 -31t-6.5 -27t-1.5 -17v-420zM521 543.5q0 -74.5 0.5 -145.5t1.5 -145.5t2 -165.5q19 29 21 49t2 33v601q-7 -8 -16.5 -26t-9.5 -34q-1 -92 -1 -166.5z" />
<glyph unicode="J" horiz-adv-x="674" d="M15 4q0 29 8 59.5t23.5 55.5t40 40.5t57.5 15.5t54.5 -15.5t37.5 -35.5t27.5 -40t24.5 -28q5 10 11.5 26t31.5 35v167q0 20 -8 30.5t-10 10.5q-1 0 -14 -2t-28 -6t-27 -10.5t-12 -16.5q0 -4 7 -10l13 -11t7 -8.5t-10 -3.5q-9 0 -20.5 7t-22 18t-17.5 25.5t-7 29.5 q0 24 13 38.5t33.5 22.5t45.5 12t49 7q0 5 2 6t2 5q0 21 -10.5 24t-39.5 3q-30 0 -57.5 -9.5t-49 -26.5t-34.5 -39t-13 -48q0 -35 20.5 -59.5t46 -41t48 -25.5t26.5 -13h-32q-27 12 -51.5 27t-43 35.5t-29 47.5t-10.5 62q0 65 32.5 109.5t94.5 74.5q17 8 31 10t25.5 2 t20 -0.5t14.5 3.5q3 3 6.5 10.5t6.5 16.5l5.5 16t3.5 9q20 31 47 49.5t52.5 30t44.5 19t23 16.5q13 31 24 51t25.5 35t36 29t55.5 34h13q-12 -29 -19 -38t-10 -16t-3 -22.5t1 -57.5q2 -70 3 -128t1.5 -113t0 -113t-1.5 -128q-1 -61 -21 -110.5t-54 -84.5t-80.5 -54 t-100.5 -19q-20 0 -49.5 4.5t-59 10l-54.5 10t-36 4.5q-10 0 -30 -8t-39.5 -21t-34 -30.5t-14.5 -35.5q0 -4 10 -31t39 -58t81.5 -56t138.5 -25q39 0 88 10t91.5 28.5t71.5 46t29 62.5q0 30 -19.5 41.5l-41.5 23.5q4 8 4.5 12.5t9.5 4.5q21 0 42 -22.5t21 -54.5 q0 -42 -26 -74t-71 -54t-105.5 -33.5t-129.5 -11.5q-60 0 -110.5 24t-87.5 62t-57.5 85t-20.5 94zM47 -13q26 14 37.5 26.5t27 20.5t44.5 11t89 -2q-39 23 -61.5 29t-29.5 6q-36 0 -67.5 -24t-39.5 -67zM130 768q0 22 10 45.5t29.5 42.5t47.5 31.5t65 12.5q52 0 74.5 -23.5 t33.5 -51.5t18.5 -51.5t29.5 -23.5q16 0 20.5 15t3 36t-4.5 43t-2 36h11q3 -14 7 -26t4 -34q0 -61 -29 -95t-79 -34q-43 0 -63 25.5t-32 56t-23.5 56t-38.5 25.5q-12 0 -23.5 -9t-20 -22t-14 -28t-5.5 -27q0 -9 9 -33t19 -37q27 -36 50 -47.5t42 -12t34.5 3.5t27.5 -2 q-10 -10 -15 -14t-10 -5.5t-12 -1t-20 0.5q-37 0 -64 17t-45 40.5t-26.5 49t-8.5 41.5zM165 453q29 12 47.5 16.5t34.5 6t32.5 1t40.5 0.5l-4 24q-21 -5 -35 -4t-29 -0.5t-35 -10t-52 -33.5zM229 332q3 9 14.5 12t26 3.5t29.5 -0.5t24 0v20h-22t-28.5 -3t-26.5 -10.5 t-17 -21.5zM271 859q11 -11 14 -25.5t9 -33t21 -41t49 -49.5h23q-24 29 -35.5 50l-20 37.5t-17 31t-26.5 30.5h-17zM299 304h13h-13zM316 43q10 0 18.5 -9t37.5 -9q17 0 39 4t42 13t34 24.5t14 39.5q2 85 2 154.5t-1 136t-2.5 135.5t-2.5 154q-13 -10 -19.5 -17.5 t-9.5 -16.5t-2.5 -20.5t0.5 -28.5q1 -54 2.5 -98t2 -86.5t0.5 -87t-1 -99.5q0 -21 -7 -46.5t-21.5 -49t-38 -42.5t-56.5 -27q6 -5 7 -5.5t5 -9.5q-11 -8 -16 -2t-16 13v-20h-11zM344 109l13 15t10.5 18.5t7.5 29.5t4 49q1 53 0.5 95.5t-2 83.5t-2.5 83.5t0 95.5 q0 11 6.5 29.5t8.5 26.5q-15 -15 -24 -31t-14 -31t-6.5 -27t-1.5 -17v-420zM521 543.5q0 -74.5 0.5 -145.5t1.5 -145.5t2 -165.5q19 29 21 49t2 33v601q-7 -8 -16.5 -26t-9.5 -34q-1 -92 -1 -166.5z" />
<glyph unicode="K" horiz-adv-x="892" d="M15 -40q0 41 29 82t75 73.5t103 52.5t112 20q20 0 47 -4t55 -11t53 -17.5t41 -22.5q11 10 15 44.5t4.5 77.5t-0.5 86t-1 70q-2 0 -3.5 2t-3.5 2q-27 0 -40 -17.5t-19 -41t-9 -46t-10 -31.5q-21 -26 -62.5 -42l-84.5 -32h-28q-1 4 -2.5 4.5t-1.5 5.5t7 7t15 7.5t15 17 t7 33.5q0 27 -25.5 35t-51 3.5t-38.5 -17.5t12 -29v-13h-24q-24 12 -36 24.5t-12 33.5q0 30 17.5 48.5t43.5 28.5t57.5 13.5t59.5 3.5q0 3 1.5 4.5t1.5 4.5q0 4 -18 17.5t-41 13.5q-20 0 -50 -8t-58.5 -23.5t-49 -38.5t-20.5 -53t22.5 -46.5t50.5 -24.5t54 -9.5t32 -3.5v-17 q-13 -2 -21 -2.5t-16 -0.5q-29 0 -57 10.5t-49.5 30t-34.5 47t-13 61.5q0 10 4.5 31t18 46t40 49.5t69.5 41.5q28 11 51 13.5t40.5 1.5t27.5 -3t12 -1q9 6 8 23t-1 40q0 28 25 60.5t69 66t105 65t133 57.5q1 -3 -1.5 -25.5t0 -48.5t14.5 -47.5t42 -21.5q19 0 24.5 23t7 51 t3 51.5t12.5 23.5q14 0 15 -15.5t1 -25.5q0 -72 -24.5 -132t-56 -105.5t-61 -75.5t-39.5 -42q26 -10 50.5 -22.5t45.5 -29t37.5 -38t24.5 -50.5q9 -32 10 -58t2.5 -48t8.5 -40t27 -35q4 3 15.5 17.5l22.5 28.5t20 20.5t9 -6.5q0 -4 -7 -14.5l-16.5 -26l-20.5 -34.5t-19 -40 q-2 -6 -10 -22.5t-18.5 -34t-20.5 -31.5t-15 -14q-52 0 -75.5 24t-32.5 54t-11 55.5t-10 29t-30 -25t-71 -107.5q-5 -8 -13 -26.5t-20 -18.5t-33.5 14.5t-53 32t-74 32.5t-96.5 15q-33 0 -68.5 -6.5t-64.5 -21.5t-48 -39t-19 -58q0 -27 21.5 -61t70 -64t127 -50.5 t191.5 -20.5q35 0 80 6t85.5 21.5t68.5 42t28 67.5q0 25 -12.5 45.5t-29.5 35.5t-34.5 23t-28.5 8q-5 0 -8.5 3t-8.5 4q-5 21 13 21q6 0 27 -9.5t43.5 -27.5t40.5 -44.5t18 -61.5q0 -34 -25.5 -65t-67.5 -54.5t-96.5 -37t-113.5 -13.5t-129.5 12t-131.5 40.5t-102 74.5 t-41 115zM50 726q0 29 12.5 55.5t31.5 46t40 31t39 11.5q47 0 66.5 -28.5t27.5 -62.5t12 -62.5t20 -28.5q26 0 34 24t7 54t-6.5 57t-5.5 33q25 -12 31.5 -37t6.5 -54q0 -30 -11 -56t-27.5 -45.5t-37 -31t-40.5 -11.5q-44 0 -63 27.5t-28 61t-15.5 61t-26.5 27.5 q-16 0 -31 -24t-15 -67q0 -37 16 -58.5t41 -33t56 -16l60 -8.5v-11q-27 -11 -47 -11q-41 0 -69 12.5t-45 34t-25 50t-8 60.5zM127 825q29 -9 38.5 -38t16.5 -60t19.5 -55.5t47.5 -24.5q5 0 9 1.5t10 2.5q-37 13 -50.5 44t-20.5 62.5t-15 56t-34 24.5q-5 0 -11 -5t-10 -8z M149 446q0 12 23.5 17.5t54.5 7t60 -0.5t41 -5v16q-11 6 -20.5 9t-22.5 3q-4 0 -25.5 -3.5t-46 -9.5t-44.5 -15t-20 -19zM188 101h104q15 0 40.5 -8.5t53.5 -21.5t54 -27t41 -25q5 6 10 10.5t5 12.5q0 14 -30 27.5t-67 24t-69.5 17t-36.5 6.5q-28 0 -55 -4t-50 -12zM212 343 q28 0 37 1t15 1.5t17 -0.5t42 -6q3 2 5 7q-2 1 -13 4.5l-25.5 8t-17.5 4.5q-1 0 -10 -3l-20 -6.5l-20 -6.5t-10 -4zM351 255q14 9 19 29.5t6 50.5t0.5 68.5t2.5 81.5q4 56 3 97t1 97q-16 -30 -21 -59t-7 -68q-3 -43 -3.5 -78.5t-0.5 -69.5v-70v-79zM478 439q2 -16 7 -28 q25 14 37.5 25t17.5 29.5t5 49.5v85q0 20 -1.5 42t-6.5 42.5t-14.5 37.5t-26.5 27q-2 -5 -4.5 -41.5t-5.5 -85t-5 -99t-3 -84.5zM536 766q0 -16 11.5 -30.5t27.5 -25t33 -16.5t28 -6q7 0 15.5 -1t12.5 -1q-10 2 -24.5 10t-28 21t-23.5 31t-12 41q-19 -5 -29.5 -13t-10.5 -10 zM564 153q17 19 30 36t22 36.5t14 43t5 56.5v37t-4.5 24.5t-16 21t-34.5 26.5l-16 -5v-276zM569 478q18 10 41.5 36.5t45 55.5t37 54t18.5 34h-142q4 -10 4.5 -39t-0.5 -59.5t-2.5 -55t-1.5 -26.5zM652 411q13 -34 14 -64t-2 -59t-5.5 -58.5t3.5 -61t25 -66.5t60 -76 q5 8 10 14t5 16q0 5 -11.5 16.5t-26 30t-26 45t-11.5 61.5q0 29 3 57.5t2 54.5t-9.5 49t-30.5 41z" />
<glyph unicode="L" horiz-adv-x="812" d="M15 761q0 22 12.5 42.5t30.5 37t38.5 26.5t36.5 10q36 0 54.5 -13t28 -32.5t13 -42.5t8.5 -42q7 -25 9 -40t24 -15q5 0 12 7t13.5 16.5t11 19.5t4.5 16q0 1 -2.5 12t-6.5 25t-9 28t-9 22v28q3 0 5.5 2t5.5 2q8 0 22.5 -31.5t14.5 -87.5q0 -16 -8 -34.5t-23.5 -35 t-39 -27.5t-54.5 -11q-43 0 -61 26.5t-26.5 59t-14.5 59t-27 26.5q-11 0 -27 -20t-16 -38t4 -38.5t13 -40.5t23.5 -37.5t35.5 -27.5q32 -16 54.5 -16.5t39 3.5t29.5 8t26 -3q-7 -13 -18.5 -18.5t-23 -7t-22 -0.5t-15.5 1q-51 0 -83 17t-50.5 43.5t-25.5 58.5t-7 63zM22 -92 q0 76 41 131.5t106.5 87t147.5 37.5t165 -17h39v686q-3 0 -4.5 2.5t-5.5 2.5t-11.5 -7t-15 -21t-13 -33t-5.5 -43q0 -60 1 -109l2 -95.5t1.5 -96t-1.5 -109.5q-1 -35 -21 -63t-47 -47t-56 -29t-47 -10q-6 0 -17 4.5t-11 12.5q0 6 7.5 9t16.5 11t16.5 26t7.5 56 q0 26 -9.5 38.5t-56.5 12.5q-29 0 -51 -12t-27 -16q8 -11 11.5 -14t6.5 -3h8t17 -4v-11q-6 -1 -9.5 -3t-10.5 -2q-25 0 -43 20t-18 39q0 17 10.5 31t24.5 24.5t27 17t19 7.5q23 6 41.5 5.5t31.5 -2t20.5 -1t7.5 7.5t-23.5 19t-62.5 12q-30 0 -57.5 -10.5t-49 -28t-34.5 -40 t-13 -45.5q0 -29 30.5 -53.5t76.5 -24.5q20 0 31.5 2t18 5t10 5.5t6.5 2.5q17 -9 11.5 -17t-20.5 -13.5t-33.5 -8.5t-27.5 -3q-58 0 -100.5 39.5t-42.5 113.5q0 63 36 101.5t84 59.5q30 13 58.5 14.5t50.5 2.5t35 8t13 31q0 60 24 111t61.5 87.5t83 57t87.5 20.5 q33 0 58 -12.5t50 -33l52.5 -45t65.5 -48.5q-5 -12 -20.5 -24l-42.5 -32l-65.5 -51t-88.5 -82h-16l-2 4t-2 10q0 5 11.5 15.5t25.5 27.5t25.5 41t11.5 56q0 34 -16.5 66t-61.5 64h-20v-667q0 -9 7 -16t17 -7q15 0 21.5 14.5t10.5 39l9 56.5t18 68q4 12 15.5 35.5t28 50.5 t38 54t45.5 45h11l2.5 -4t2.5 -6q-38 -43 -66 -81.5t-49 -86.5q-11 -25 -16.5 -49.5t-9 -46l-6.5 -39.5t-9 -30v-20q15 -4 31 -4q50 0 74 18t42 53q16 31 19 53.5t1.5 37t-2.5 21.5t7 7q10 0 14.5 -14t4.5 -23q0 -13 -2 -38.5t-8.5 -56.5t-18 -64t-30.5 -61 q-23 -34 -52.5 -47.5t-56 -22.5t-44.5 -21.5t-18 -45.5q0 -9 16 -14.5t35 -15.5t35 -29t16 -56q0 -47 -30.5 -76.5t-77.5 -46.5t-103.5 -23.5t-108.5 -6.5q-60 0 -118.5 16.5t-105 47.5t-75 75.5t-28.5 101.5zM53 -107q0 -47 30 -84t76 -62.5t101 -39t105 -13.5 q34 0 82.5 7.5t93.5 23t77 39.5t32 57q0 14 -8 28t-21.5 25.5t-30.5 18.5t-34 7q-14 0 -32.5 -19.5t-44 -42.5t-59 -42.5t-77.5 -19.5q-45 0 -74.5 18t-29.5 50q0 29 20.5 47t51.5 28.5t68.5 15.5t71.5 6t60 1h34q1 11 2 18.5t3 20.5l-353 33q-25 -3 -50.5 -8t-46.5 -17 t-34 -34.5t-13 -61.5zM102 825q12 -18 19.5 -45.5t16 -53t19.5 -44t29 -18.5q3 0 4 2t3 2q-18 17 -23.5 37.5t-7.5 41.5t-6.5 41t-21.5 37h-32zM111 451q16 12 43.5 21.5t61.5 9.5q35 0 56.5 -5t38.5 5v15h-98q-14 0 -30 -6t-30.5 -13.5t-26 -15.5t-15.5 -11zM146 41 l382 -25q22 -2 54 0t65 21q-66 -8 -121 -6t-103 7.5t-91 11.5t-86 6q-23 0 -37 -1t-24 -3t-18.5 -4.5t-20.5 -6.5zM232 367q28 7 41 5.5t38 -5.5q-12 -5 -31 -2.5t-48 2.5zM295 -175q0 -9 13 -15.5t29 -6.5q21 0 48 11t52.5 26.5t46 32.5t28.5 29q-12 0 -25.5 2.5t-25.5 2.5 q-22 0 -51 -7t-54.5 -18.5t-43 -26.5t-17.5 -30zM332 217q13 15 26 32.5t13 56.5v373q0 18 4 29.5t7 29.5l-21.5 -44.5t-13 -30t-6.5 -23t-2 -24.5v-371q0 -6 -3 -14.5t-4 -13.5zM640 793q10 -25 14.5 -40.5t5 -29.5t-1 -30.5t-3.5 -45.5q5 11 10.5 15.5t10 9t7 12t2.5 22.5 q0 28 -13 47.5t-32 39.5z" />
<glyph unicode="M" horiz-adv-x="1185" d="M15 431q0 44 16 73t35 49t35 33.5t16 26.5q0 6 -4.5 15t-10 23.5t-10.5 36t-5 52.5q0 37 17 66t41 49t49 30.5t41 10.5q33 0 52.5 -12.5t31 -32t17.5 -41.5l11 -41.5t12 -32t20 -12.5q10 0 22.5 7t12.5 28q0 12 7.5 21.5t8.5 28.5q0 2 -4.5 17.5t-4.5 41.5q3 1 5 2l4 2 q7 -15 9 -27.5t2 -28.5q0 -32 -10 -61.5t-27.5 -52t-41 -36.5t-51.5 -14q-43 0 -61 28t-27.5 62t-20 62.5t-38.5 28.5q-19 0 -40.5 -26t-21.5 -65l2.5 -19.5t9 -41.5t18 -39.5t29.5 -14.5q12 2 31.5 4.5t37.5 0t31 -11t13 -28.5q0 -12 -9 -19.5t-20 -12t-20.5 -6t-11.5 -1.5 q-13 0 -24.5 6.5t-21.5 13.5l-18.5 13.5t-14.5 6.5q-16 0 -33.5 -19.5t-32 -45t-24 -50t-9.5 -33.5q0 -56 23 -94.5t48 -58.5q36 -28 60 -34.5t40.5 -5t28 5t21.5 -4.5q-22 -15 -50 -15q-19 0 -51.5 7.5t-63.5 29t-53.5 59t-22.5 97.5zM89 5q0 85 39 127.5t100 42.5 q21 0 37.5 -9.5t29 -20.5t21.5 -20t14 -9q33 0 44.5 25.5t11.5 47.5v116q-17 11 -28 11q-19 0 -41 -19t-22 -56q-11 -5 -17 2t-9.5 19t-4.5 24t-1 16q0 12 5 31t18.5 37t36.5 31t59 13q4 24 -3 34.5t-32 10.5q-45 0 -69.5 -14.5t-36.5 -34.5t-15.5 -41l-5.5 -33h-12 q-11 24 -13.5 40t-2.5 37q0 47 17 75.5t44 45t61 22t68 5.5q0 39 8 67t22.5 49t34 38l41.5 35q25 19 37.5 25t17.5 10q3 2 24 19.5l44.5 38l42.5 37l19 16.5q26 0 43.5 -20t31 -48.5t26.5 -59.5t31 -54q20 20 39 51t35.5 61l29.5 52t20 22q32 0 46.5 -12.5t20.5 -29.5 t7.5 -33.5t7.5 -24t20 -1.5t45 34q0 -2 1.5 -3.5t1.5 -3.5q0 -9 -6.5 -19.5l-14.5 -24.5t-15 -32t-7 -40q-1 -80 0 -161.5t2.5 -150.5t3.5 -118t2 -63q0 -4 4 -14t10.5 -21t15.5 -19.5t18 -8.5q4 0 12.5 10l18 21.5l18.5 21.5t14 10q11 0 13 -6.5t2 -10.5q0 4 -10.5 -9.5 l-26.5 -35.5l-34.5 -49l-34.5 -50.5l-27 -39.5l-11 -16q-8 0 -26 27t-62 81q-18 21 -25 40t-9.5 32.5t-3 21.5t-4.5 8q-9 0 -23 -31.5t-29 -69.5t-29.5 -69.5t-25.5 -31.5l-116 130q-4 -3 -7 -8t-7.5 -16l-12.5 -29.5t-23 -48.5h-9l-12 13q31 53 43 99t13 73t2 49.5 t1.5 43.5t0.5 43.5v49.5q0 15 -6.5 20.5t-17 6.5t-24 0.5t-26.5 3.5q-2 -6 -2 -19t0.5 -39t1 -69t0.5 -110q0 -19 -8.5 -38.5t-8.5 -54.5q0 -12 -8.5 -31t-27 -38t-48 -32.5t-70.5 -13.5q-9 0 -31 6.5l-47.5 13.5l-48.5 13.5t-34 6.5q-18 0 -39.5 -7t-40 -20.5t-30.5 -32.5 t-12 -43q0 -22 13.5 -52.5t43.5 -58.5t77.5 -47t114.5 -19q28 0 56 8t50.5 19t36 21.5t13.5 16.5q-20 51 -20 94q0 35 20.5 61.5t41.5 26.5q20 0 26 -21t6 -41q0 -30 -6.5 -52.5t-14.5 -38t-14.5 -23.5t-6.5 -10q0 -6 12.5 -19t34.5 -27t53 -24t67 -10q42 0 70 11.5 t44.5 30.5t23 44t6.5 51q0 42 -14.5 61l-27.5 37v11q3 5 13.5 1.5t22.5 -16.5t21.5 -37t9.5 -60q0 -76 -48 -123.5t-123 -47.5q-34 0 -61.5 11.5t-50 26.5t-39.5 31t-29 25q-37 -35 -79.5 -49t-84.5 -14q-33 0 -60.5 6t-48.5 12.5t-36 12.5t-23 6q-2 0 -23.5 14t-46.5 43.5 t-45 75t-20 107.5zM126 -16q16 25 36.5 40t38.5 23t30.5 10.5t14.5 2.5q16 0 32.5 -4t29.5 -9q-21 23 -47.5 31.5t-31.5 8.5q-38 0 -63.5 -32t-39.5 -71zM173 600q15 -8 25.5 -15t19.5 -7q12 0 16.5 1.5t17.5 8.5v19q-15 2 -19.5 3.5t-21.5 1.5q-9 0 -16.5 -1t-21.5 -11z M189 848q29 -14 36.5 -35.5t12 -45.5t14.5 -47.5t43 -40.5h13q-23 38 -32.5 70l-16 55.5t-15.5 36.5t-31 13q-4 0 -10 -2t-14 -4zM235 451q29 11 40 17t21 9.5t26 5t56 3.5v19h-59q-25 -14 -42 -29t-42 -25zM308 327q0 6 11 8.5t24.5 3.5t25 0.5t13.5 -0.5v16q-3 1 -8 3.5 t-10 2.5q-1 0 -10 -1.5t-19 -5.5t-18.5 -10.5t-8.5 -16.5zM354 87q22 -26 46 -44t53 -18q33 0 55 22t35 53.5t18.5 67t5.5 61.5v509q0 22 -5.5 20t-12 -14t-12 -27t-5.5 -19v-141q0 -49 4 -103t4.5 -106t-5.5 -99.5t-26 -83.5t-57 -57t-98 -21zM397 126q6 7 12.5 11.5 t11 12.5t8 22.5t3.5 41.5q2 64 2 117t-1 103.5l-2 103t-1 117.5q-14 -21 -20.5 -44t-7.5 -39q-2 -60 -1 -108.5t2.5 -95t2.5 -95t0 -108.5q0 -11 -3.5 -18.5t-5.5 -20.5zM539 -107q0 -14 4 -24t13 -23l23 46.5t12 48.5q0 16 -0.5 19.5t-15.5 12.5q-16 -18 -26 -42.5 t-10 -37.5zM582 777l6 -315q16 29 24.5 60.5t10.5 41.5h26l3.5 17t1.5 17q0 76 -17 121t-55 58zM603 809q12 -21 25 -35.5t24 -29t18 -31.5t7 -43v-456q0 -22 12.5 -45t29.5 -44.5t35 -39l30 -29.5q2 2 8.5 13t6.5 12q0 15 -14 26t-31 26t-31 37t-13 59q2 58 0.5 105 l-3 92.5t-2.5 92.5t0 105q1 54 -6.5 92t-20 62t-27.5 35t-30 11q-4 0 -9 -5t-9 -10zM619 462q15 -4 30 -4q2 5 3.5 8t1.5 8q0 14 -5 14.5t-11 -4.5t-11.5 -12t-7.5 -10zM795 434q2 -21 2 -61.5t4 -80t15 -69.5t35 -30q19 34 34.5 57.5t17.5 46.5q2 55 2 101t-0.5 89.5 t-2.5 89.5t-3 102q-2 13 -8 33t-20 38h-12q-10 -26 -21 -37.5t-20.5 -22.5t-16 -27t-6.5 -50q0 -11 3 -27t3 -18q33 0 53.5 2.5t41.5 -2.5v-17q-27 -49 -30.5 -69.5t-5 -28t-12.5 -8.5t-53 -11zM795 483q0 -5 2 -8t4 -9h28q4 8 6.5 14.5t4.5 16.5h-24q-7 0 -14 -4.5t-7 -9.5 zM879 777q31 -26 39 -57.5t9 -72.5q3 -66 3 -120.5t-1 -106t-1.5 -106t1.5 -121.5q1 -19 14 -43.5t29.5 -46.5t30.5 -38t17 -18q5 7 8.5 12.5t3.5 20.5q0 18 -11 26.5t-24 22.5t-24 40.5t-11 79.5v406q0 45 -8.5 74.5t-20 47.5t-21.5 26t-13 10q-5 -11 -10.5 -19t-9.5 -17z " />
<glyph unicode="N" horiz-adv-x="896" d="M15 -3q0 33 10 63.5t29 54.5t45 38.5t59 14.5q25 0 45 -10.5t35 -22.5t25.5 -22t16.5 -10q24 0 36 18t17.5 41.5t6 46t0.5 30.5q0 20 -6.5 23.5t-22.5 3.5q-25 0 -37.5 -8.5t-17 -20t-4 -24t0.5 -20.5h-16q-17 14 -20.5 33t-3.5 26q0 32 11 51t29 31t40.5 20.5t46.5 20.5 v12q-19 11 -24.5 11.5t-21.5 0.5q-41 0 -69.5 -14t-44 -36t-18.5 -49.5t7 -54.5q-6 -3 -9 -3q-7 0 -21 20t-14 67q0 51 18.5 86t48.5 56.5t68.5 31t79.5 9.5q0 29 5 52t17 44.5t32.5 43.5t52.5 50q9 8 22 17.5l26 20t23.5 21t14.5 20.5q5 13 5 27v27t2 24t9 17 q13 -21 9.5 -41.5t2.5 -36.5l107 78q22 -27 36.5 -42l26.5 -26.5t24 -24.5t30 -37q7 6 10.5 13t7.5 17t11 24t22 33q4 -2 6.5 -4t5.5 -3q-9 -27 -19 -50t-18.5 -45t-14 -46t-6.5 -54q-2 -59 -2.5 -107t-1.5 -94t-1.5 -94t-0.5 -107q3 -37 9.5 -51.5t24.5 -30.5q13 13 25 32 l14 22h11l13 -11l-131 -213q-12 6 -24 21t-24 32.5l-23.5 35t-23.5 29.5q-13 -11 -24.5 -29.5l-22 -35t-20.5 -27t-20 -6.5v11l22.5 33t24 37t20 37.5t9.5 33.5q3 47 3 81v80q0 13 0.5 26t-3.5 23.5t-14 17t-31 6.5q-28 0 -37.5 -19.5t-11 -53t1 -77t-2.5 -91.5 q-5 -44 -21.5 -74.5t-42 -50t-58.5 -28t-70 -8.5q-28 0 -49 7t-41 15t-42 15t-51 7q-49 0 -81.5 -24.5t-32.5 -68.5q0 -20 10.5 -42.5t25 -41t30 -30.5t24.5 -12q7 0 11.5 7.5t16.5 20t37 30t73 38.5q38 16 69 24.5t70 8.5q27 0 58 -4.5t58 -16.5t45 -34t18 -58 q0 -43 -26.5 -67t-63.5 -36t-77.5 -15t-67.5 -3q-65 0 -100.5 11t-56 24t-32 24t-28.5 11q-10 0 -16.5 -19.5t-29.5 -38.5v11q0 3 5 11.5l10.5 18t10.5 17t5 9.5q0 7 -19.5 20.5t-42.5 38.5t-42.5 63t-19.5 95zM48 1q22 16 35 26.5t24.5 17t26 9t41.5 2.5t45 -2t49 -18 l-24.5 22.5t-21.5 15.5t-24.5 9t-33.5 3q-16 0 -29.5 -2t-27 -10t-28 -25.5t-32.5 -47.5zM60 698q0 33 11 64t31 56t47 40t60 15q38 0 59 -25.5t34.5 -56.5l24 -56.5t27.5 -25.5q22 0 28.5 22t6.5 50.5t-2.5 55t1.5 35.5q23 -14 24.5 -40.5t1.5 -50.5q0 -27 -9 -55 t-26 -50.5t-41 -37t-54 -14.5q-41 0 -67.5 21t-38.5 41q-11 18 -16 37t-8.5 34t-8.5 24.5t-15 9.5t-17.5 -9.5t-12.5 -23t-7 -28.5t-2 -25q0 -58 34 -92.5t89 -34.5q17 0 30.5 4.5l23.5 8t15 3.5t5 -9t-9.5 -15t-22 -10t-25.5 -5.5t-21 -1.5q-33 0 -61 14t-47.5 35 t-30.5 46.5t-11 49.5zM169 805q6 -9 12 -34t16.5 -51.5t29 -47t49.5 -20.5q2 0 4 1.5t4 1.5q-25 24 -37.5 50.5t-22 49t-21 37t-34.5 13.5zM175 -209q16 -5 31 -14t34.5 -17.5t46.5 -15t66 -6.5q45 0 86 3.5t72.5 13t50 27.5t18.5 47q0 16 -8.5 29.5t-22 23t-29.5 15 t-31 5.5h-98q-24 0 -56 -12t-63 -29t-57.5 -36.5t-39.5 -33.5zM182 394q26 19 53 26.5t49 9t36.5 -0.5t15.5 -2q1 1 1.5 3t2.5 4l-21 11.5t-21 4.5q-21 0 -51 -10.5t-65 -45.5zM276 292q0 -2 8.5 -0.5t19 4.5l19 5.5t9.5 3.5h-11t-19 -1t-18 -4t-8 -8zM293 75 q10 -17 17.5 -27.5t17.5 -17t24.5 -9t38.5 -2.5q40 0 66 20t41.5 51.5t22.5 70.5t8 77q3 71 3.5 129t0.5 113v113v129q-14 -14 -24.5 -33.5t-11.5 -33.5q-3 -64 -3 -116.5t1 -103t1 -103t-2 -115.5q-1 -30 -18.5 -53.5t-45.5 -41t-63.5 -29.5t-73.5 -18zM364 154 q14 9 22 27.5t9 35.5q2 58 3 105.5t1 93.5v94v106q-26 -49 -30.5 -74t-4.5 -30v-358zM555 443q1 -25 1 -44h84q1 11 1 20v20.5t-0.5 28t-0.5 41.5q-19 -13 -39.5 -12t-44.5 8q-2 -37 -1 -62zM556 540q8 -4 13 -9t22 -5q11 0 30.5 6.5t22.5 28.5q2 19 3.5 23.5t1.5 10t-1 19 t-4 49.5q0 7 -8.5 21.5t-20.5 29t-25.5 27.5t-25.5 17zM588 781q33 -33 48 -44.5t21 -20.5t7 -23.5t5 -53.5v-105.5v-93.5t-0.5 -94t-0.5 -106q0 -21 -3.5 -42t1 -47t21 -58t55.5 -74q7 13 11 18t4 13q0 14 -8.5 22.5l-19.5 20t-21 29t-14 47.5q2 71 1.5 128.5t-0.5 112.5 t1 113t5 129q1 33 -12.5 59t-30.5 44t-33 27.5t-19 9.5q-1 0 -9 -5t-9 -6z" />
<glyph unicode="O" horiz-adv-x="776" d="M15 350q0 34 6.5 73.5t17 76.5t23 68.5t24.5 50.5q7 11 21 35t32.5 52t39.5 55t41 44q24 19 36.5 31l19.5 18.5t10.5 8.5t8.5 2q3 0 11 -6.5t8 -10.5q0 -7 -4.5 -12t-12 -11.5t-17 -16.5t-20.5 -27q2 3 -4.5 -11.5l-14 -32.5t-13 -34t-1.5 -16q3 0 18.5 4.5t36 14.5 t43 24t41.5 34q57 59 85.5 93.5t36.5 34.5q6 0 33 -17t61 -47t68.5 -70.5t55.5 -87.5q15 -32 25 -59.5t17 -56.5t10 -61t3 -73q0 -28 -7.5 -69t-27 -87t-52 -94.5t-83.5 -92.5q-19 -17 -46.5 -33t-57.5 -29t-60.5 -21t-54.5 -8q-56 0 -118.5 22t-115.5 67t-88 113.5 t-35 161.5zM41 337q0 -30 12.5 -75t38.5 -89.5t66 -81t95 -49.5q-88 74 -131.5 163t-43.5 212q0 59 19.5 116.5t44 105.5t47 83.5t27.5 50.5q-14 -11 -43 -52t-58.5 -100.5t-51.5 -133t-22 -150.5zM171 448q0 -40 5 -72.5t12 -60.5t15 -53t13 -51q14 8 22.5 39t12.5 67 t5 68.5t1 42.5q-3 29 -5.5 49t5.5 48v138l-17 3q-8 -5 -18.5 -7t-13.5 -5q-2 -3 -8 -34.5l-12.5 -69l-11.5 -69t-5 -33.5zM236 171q0 -27 26 -51.5t59 -43t63.5 -29.5t38.5 -11q4 0 7 1t7 1l3 690q0 18 -9 21.5t-22 7.5q0 -63 0.5 -115.5t0.5 -102t-0.5 -102t-2.5 -115.5 q-1 -43 -28 -68.5t-58.5 -41t-58 -24t-26.5 -17.5zM275 239q16 12 23.5 39t10 55t2 50t-0.5 23l-3 284q-22 -10 -24 -23t-2 -40q0 -57 -0.5 -103.5t-1.5 -90.5l-2 -90.5t-2 -103.5zM433 785q44 -21 83 -73t68.5 -113t46.5 -120.5t19 -96.5q2 -38 0.5 -65l-3.5 -65 q10 47 20.5 83.5t10.5 78.5q0 27 -9.5 75t-34.5 103t-68.5 110.5t-111.5 98.5h-12q-1 0 -4.5 -6.5t-4.5 -9.5zM461 38h16q19 11 43.5 34.5t46.5 56.5t37 75t15 90q0 9 -9.5 15.5t-22 10t-26 5.5t-21.5 2q-23 0 -38 -7.5t-24 -16.5t-13 -17t-4 -10v-238zM461 339 q24 8 41 15.5t42 7.5t37 -3.5t38 -12.5v40q-3 12 -4 20t-2.5 16.5t-5 19t-11.5 27.5q-10 -8 -30 -13t-38 -5q-19 0 -33 3.5t-34 7.5v-123zM461 523q0 -9 8.5 -17t19 -13.5t21 -8.5t14.5 -3q3 0 14 2.5t22 6.5t20 10t9 12q0 24 -16 56.5t-37 63.5t-41.5 55.5t-29.5 30.5 q-1 -56 -3.5 -97t-0.5 -98z" />
<glyph unicode="P" horiz-adv-x="765" d="M15 746q0 56 36 97t92 42q21 0 39 -8t31.5 -21t22.5 -28t13 -30q6 -22 7 -44.5t2.5 -39.5t6.5 -28t18 -11q17 0 25 20t10.5 44.5t2 46t-0.5 23.5q14 -10 19 -23.5t5 -29.5q0 -22 -8.5 -47.5t-23.5 -47t-36.5 -35.5t-47.5 -14q-12 0 -28.5 5.5t-33 17t-30 28.5t-20.5 40 q-4 15 -5 34t-3 36t-8.5 28.5t-21.5 11.5q-13 0 -28 -17.5t-15 -39.5q0 -3 2.5 -19t8.5 -36.5t16 -41.5t26 -35q29 -25 52 -29.5t39.5 -2t25.5 5.5t9 -6q0 -10 -15.5 -14t-41.5 -4q-28 0 -54 13t-45.5 36t-31 54.5t-11.5 68.5zM24 -55q0 66 38 110t86 71.5t91 42t53 20.5 q-6 3 -5 3.5t-17 0.5l-8 8q18 15 29 25t16 20t6.5 23.5t1.5 35.5q0 17 -22 20.5t-48 0t-48 -13.5t-22 -20q0 -9 9 -14t19 -14v-12h-24q-37 18 -48.5 32.5t-11.5 37.5q0 41 21.5 60t51.5 26t62.5 6.5t54.5 2.5v25q-6 2 -9.5 5.5t-9.5 3.5h-96q-29 0 -52.5 -13.5t-40 -33 t-25.5 -40t-9 -35.5q0 -12 7.5 -30t24.5 -35.5t43 -30t64 -12.5q12 3 24.5 8l22.5 9t16.5 6t7.5 -3q-10 -23 -31.5 -29t-55.5 -6q-35 0 -64.5 16.5t-51 41t-33.5 53.5t-12 54q0 64 32 106t79 63q40 18 69.5 19.5t50 0.5t31.5 2.5t14 25.5q4 29 15.5 52t29 44t39.5 40.5 l46 41.5q8 7 37 27.5l60.5 42.5l57.5 39t27 17q4 0 14.5 -9.5t24.5 -23.5q31 -29 49.5 -48t28.5 -43.5t13 -62t3 -102.5q0 -39 -10.5 -86.5t-43.5 -78.5q-21 -20 -45.5 -28.5t-48 -12t-43 -5.5t-29.5 -9l-4 -168q0 -21 12 -34.5t27 -21.5t28 -11l13 -3q11 0 22.5 33.5 t32.5 81.5q5 -2 11.5 -3t6.5 -9q0 -9 -17 -44.5t-38 -93.5l-33.5 -89t-25.5 -41q-4 0 -27 14t-61 31.5t-89 31.5t-112 14q-37 0 -76 -8t-71 -25t-52.5 -43.5t-20.5 -64.5t22.5 -72.5t63 -61t96.5 -42t123 -15.5q15 0 53.5 3.5t78 14t70 30.5t30.5 53q0 3 -11 20.5 t-31.5 36.5t-50 34.5t-65.5 15.5q-39 0 -78 -9.5t-73.5 -23.5t-63.5 -31.5t-49 -32.5h-16q-1 3 -3 5.5t-2 7.5q0 14 25.5 33.5t64 37.5t83.5 30.5t84 12.5t77 -11.5t68.5 -30.5t49 -44t18.5 -51q0 -31 -19 -56t-52.5 -43t-78 -27.5t-95.5 -9.5q-63 0 -125.5 15t-112.5 45 t-81.5 75.5t-31.5 105.5zM112 831q20 -29 18.5 -47.5t-1 -37.5t14 -43t63.5 -63q-21 49 -28 79.5t-11 50.5t-11.5 33t-29.5 28h-15zM119 462q41 14 68.5 17t47.5 2t35 -2t31 5q-2 4 -3 8t-6 9h-78q-12 -5 -18.5 -5.5t-15 -2t-22 -8t-39.5 -23.5zM166 339q35 13 56.5 14 t36.5 -0.5t26.5 -2t27.5 9.5q-6 5 -9 8.5t-7 3.5q-37 0 -71.5 -4t-59.5 -29zM190 98q6 0 41 5t86.5 2.5t113.5 -19.5t123 -62q7 6 9.5 9t4 6l3.5 7t7 13q-30 21 -73 34t-83.5 21t-70 10.5t-31.5 2.5q-6 0 -26.5 -4.5l-43.5 -9.5t-41 -10t-19 -5zM292 193h213l6 197 q-22 0 -29 -5.5t-8 -15.5t0.5 -22.5t-2.5 -27.5q-10 -36 -33.5 -57.5t-50.5 -34t-53.5 -19.5t-42.5 -15zM332 243q24 13 31 33.5t9 46.5q2 52 3 94.5t1 83.5v83.5v94.5q-22 -24 -33 -57t-11 -54v-325zM470 467q3 -13 4 -20.5t4 -11t10.5 -6t22.5 -6.5l3 347q-4 2 -7 4t-5 7 q-16 -14 -23 -52.5t-8.5 -85.5t-0.5 -95t0 -81zM533 801q24 -35 41 -45.5t27 -23t14.5 -40t4.5 -96.5q0 -90 -6.5 -127.5t-13.5 -45.5q10 4 19.5 14.5t17 23t11.5 25.5t4 22v210q0 9 -13.5 26t-30 33t-32 28t-18.5 12q-7 0 -13.5 -6t-11.5 -10zM539 423q39 9 44.5 55 t5.5 134q0 40 -0.5 60t-4.5 31.5t-13 20t-25 25.5z" />
<glyph unicode="Q" horiz-adv-x="770" d="M15 360q0 91 28.5 171t70 144t88 108.5t82.5 64.5l21 -4q-3 -7 -24 -36l-42 -61t-33 -57.5t3 -25.5q9 0 26 7.5t38 19t44 26t43 29.5q39 29 63.5 53t39.5 41t22.5 26.5t11.5 9.5q6 0 28 -12.5t51.5 -38.5t61.5 -65.5t58 -93.5q35 -72 47 -129t12 -110q0 -17 -4 -43.5 t-10.5 -55t-15.5 -55.5t-18 -46q-11 -22 -24.5 -43.5t-26 -39.5t-22.5 -30.5t-14 -15.5q-20 -17 -32.5 -26.5l-19.5 -14.5t-9.5 -8t-2.5 -7q0 -3 10.5 -21.5t24.5 -38.5t29 -36.5t25 -16.5q12 0 23 13.5t22 29.5l20.5 29.5t18.5 13.5q17 0 15.5 -8.5t-15.5 -26.5 t-36.5 -44.5t-48.5 -62.5q-23 -33 -34.5 -55.5l-18.5 -36.5t-11.5 -20.5t-13.5 -6.5q-3 0 -16 5t-30 17t-35 32t-30 49q-13 30 -16 52t-2 37t2 24t-4 13q-9 7 -21.5 2t-39.5 -5q-57 0 -120.5 23.5t-116.5 71t-87.5 118.5t-34.5 167zM43 384q0 -40 4.5 -71t15 -59t27 -57.5 t40.5 -67.5q-26 69 -33 127.5t-7 121.5q0 76 17 141.5t38 115t38.5 79.5t18.5 35q-14 -12 -40.5 -50.5t-53 -91t-46 -111.5t-19.5 -112zM172 442q0 -10 0.5 -19t2 -22t3.5 -40q2 -26 4.5 -45t6 -36.5t8 -35t9.5 -40.5h11q14 15 22.5 27t9.5 45q1 54 0.5 98t-1.5 86.5l-2 87 t-1 99.5q-24 -7 -38 -25t-22 -42t-10.5 -52t-2.5 -55v-31zM217 168q19 -31 28 -47.5t17 -28.5t20.5 -24t38.5 -33q-12 29 -14.5 58.5t9.5 52.5t39.5 34.5t74.5 4.5l3.5 139.5t2.5 122.5t1 123t-2 140q0 3 -0.5 10.5t-3 15.5t-6.5 14.5t-11 6.5q-9 0 -19.5 -14.5t-10.5 -24.5 v-390q0 -52 -21 -80t-49 -42t-56 -21t-41 -17zM268 433q0 -49 0.5 -100t0.5 -113q10 15 16 21t10 15.5t6 29t4 60.5q2 48 1.5 87t-1.5 76.5t-2.5 77.5t-1.5 88q-11 -5 -19.5 -10t-8.5 -18q-3 -63 -4 -114t-1 -100zM332 87q0 -9 4.5 -22t13.5 -25t22 -20.5t30 -8.5 q4 0 12.5 1t20.5 2v112q-10 8 -23 14t-23 6q-12 -1 -34 -17t-23 -42zM451 777q5 -15 13.5 -24t19 -16.5t22.5 -17t25 -25.5q6 -8 24 -37t38 -73.5t35 -100t15 -115.5q0 -59 -3 -91.5t-7.5 -53t-10 -37t-9.5 -42.5q29 54 47.5 110t18.5 135q0 23 -4.5 54t-12 62t-16 58.5 t-17.5 44.5q-13 26 -33 58t-43.5 60t-49.5 47t-52 19v-15zM455 512l22 -21.5t26 -13.5q40 0 61 17t21 27q0 5 -11 33.5t-29 62.5t-41.5 64.5t-48.5 39.5v-209zM458 20q0 -93 30.5 -149.5t84.5 -69.5q3 8 8 16q-9 16 -21 25.5t-24.5 22t-23.5 32t-18 54.5q-4 21 -4 40.5 t-1.5 37.5t-6.5 35t-19 34q-1 -8 -2 -20l-2 -24t-1 -21.5v-12.5zM458 168q17 -10 40.5 -33.5t34.5 -44.5q5 5 18 20.5t26.5 39.5t24 56t10.5 71q0 23 -24.5 37t-49.5 14q-9 0 -22.5 -5t-26 -14t-22 -21.5t-9.5 -27.5v-92zM458 462q0 -42 1 -77t4 -55q23 16 48.5 24.5 t27.5 8.5q23 0 39 -5.5t35 -18.5v87q0 16 -5.5 25.5t-9.5 25.5q-21 -17 -50.5 -24.5t-47.5 -7.5q-1 0 -13 3.5t-29 13.5z" />
<glyph unicode="R" horiz-adv-x="815" d="M15 -240q0 36 14.5 61.5t32.5 42.5t33 26.5t15 13.5q0 2 -5.5 21t-1.5 58q2 17 25.5 50.5t53.5 65t57.5 52t37.5 10.5q20 27 29.5 36.5t13.5 17t3.5 19.5t-0.5 44q0 28 -3 43t-38 15q-19 0 -36.5 -7.5t-28.5 -22.5q4 -5 9.5 -13.5t-7.5 -8.5q-22 0 -30.5 15.5t-8.5 33.5 q0 42 23.5 57t51 19t51 4.5t23.5 14.5q0 16 -31.5 18t-69 -8.5t-69 -32.5t-31.5 -55q0 -15 10.5 -32t29 -30.5t42.5 -22.5t51 -9q7 -10 0 -12t-15 -2q-33 0 -60 13.5t-46.5 34t-30.5 44.5t-11 44q0 16 7.5 38t7.5 39q0 7 7.5 15.5l17.5 19.5q22 28 53.5 40t61.5 21t53 20 t30 36q13 49 44 75.5t62.5 47.5t55.5 43.5t24 63.5h15v-24q3 0 4 -2t3 -2q5 0 17 7.5t25.5 17t26 17t18.5 7.5q42 -30 67.5 -59t30.5 -73q0 -66 -5.5 -107.5t-21.5 -71.5t-45 -53.5t-76 -52.5q8 -9 27 -16.5t40.5 -21.5t41.5 -38t29 -66q5 -25 4 -52t0.5 -51t9.5 -42t32 -24 q13 26 15 34.5t6 19.5h14q-8 -34 -17.5 -62.5t-19.5 -51.5q-28 -63 -39.5 -82t-16.5 -19q-8 0 -15 7.5t-12 10.5q-38 27 -57 54.5t-27.5 51.5t-11.5 43t-8 29q-15 -11 -34 -40t-36.5 -60t-30 -56t-12.5 -26q-57 30 -97.5 43.5t-87.5 13.5q-63 0 -93 -22t-55 -66v-28 q10 0 26.5 5t40 11.5t55 12t71.5 5.5q18 0 60.5 -6t86 -20.5t76.5 -38t33 -59.5q0 -19 -13.5 -34.5t-36 -26.5t-53 -17t-63.5 -6q-46 0 -80.5 10.5t-44.5 10.5t-20.5 -18t-29 -39t-48 -39t-78.5 -18q-24 0 -42.5 11.5t-30.5 28t-18 34t-6 29.5zM28 -254q0 -34 23 -52.5 t54 -18.5q32 0 60.5 13t49.5 29t33.5 31t12.5 19q0 7 -9.5 10.5t-27.5 13t-44 28.5t-59 57q-40 -27 -66.5 -53.5t-26.5 -76.5zM79 774q0 47 37 82t92 35q38 0 67 -20.5t37 -46.5q5 -14 7.5 -32.5t5.5 -34.5t8 -27t14 -11q20 0 27.5 14.5t9 36t1 46t2.5 43.5l9 6 q5 -17 6.5 -24t1 -11.5t-1.5 -8.5t-1 -14q0 -36 -9 -67.5t-24 -54.5t-34 -36.5t-39 -13.5q-36 0 -53 30t-28.5 66.5t-24 66.5t-40.5 30q-2 0 -9.5 -5t-16 -16.5t-15 -29t-6.5 -42.5q0 -33 11.5 -54t30 -34t42 -21t47.5 -15q-3 -3 -5.5 -7t-10.5 -4q-40 0 -66.5 15.5 t-42.5 40.5t-22.5 56t-6.5 62zM134 -119q31 -35 68.5 -59t57.5 -24q4 0 5 5t0 12t-2.5 14t-1.5 11h16q4 -13 6.5 -26t15.5 -23.5t41.5 -17t83.5 -6.5q44 0 71 10t41.5 22t19.5 22t5 11q0 21 -27.5 36.5t-66.5 26.5t-81.5 16.5t-72.5 5.5q-48 0 -81 -5t-54.5 -11.5 t-31.5 -12.5t-12 -7zM182 453q30 9 51.5 11.5t37.5 3t28 1t21 4.5q-3 17 -13 18t-23 1q-31 0 -54.5 -9.5t-47.5 -29.5zM189 837q19 -18 29 -47.5l19.5 -57.5t22.5 -48.5t38 -20.5q4 0 6.5 1t7.5 2q-24 27 -36.5 54l-22.5 50.5t-23.5 41t-40.5 25.5zM194 47q23 6 68 2.5 t90 -7.5t78.5 -6t33.5 7q0 19 -18 28.5t-45.5 11.5t-60.5 -1t-63 -9t-52.5 -13.5t-30.5 -12.5zM214 331q16 13 50 15.5t56 -3.5q2 9 1.5 14t-1.5 9h-52q-13 -6 -19 -6t-10 -1.5t-9 -7t-16 -20.5zM340 161q15 -5 33.5 -6t40 -4t45.5 -12t50 -30l4 290l-25 -11t-14 -12t-7 -23 t-4 -43q-4 -54 -29.5 -89.5t-93.5 -59.5zM340 197q13 8 22.5 26.5t9.5 32.5v130q0 107 3.5 169t11.5 100q-19 -29 -27.5 -50t-11.5 -42.5t-2 -48.5t1 -69v-213q0 -13 -3 -19t-4 -16zM470 410q18 8 24 11t24 13v323q-26 -22 -34 -46.5t-10 -71.5q-2 -33 -3 -60.5t-1 -54v-54 v-60.5zM530 471q3 -16 6 -18.5t10 -7.5q17 19 27 52.5t15 67t7 59.5t2 29q0 23 -5 38.5t-13 27t-18 20.5l-20 18zM533 145q21 27 31 41.5t14.5 28t4.5 33v57.5q0 59 -12.5 86t-22.5 27q-5 0 -8 -4t-7 -8v-261zM557 781q7 -3 18.5 -12.5t22 -24t17.5 -33t5 -39.5l-11 -175 q18 8 26.5 32t10.5 51t1 51.5t-1 33.5q0 37 -10 63.5t-22 42.5t-23 23.5t-13 7.5q-7 0 -12.5 -8t-8.5 -13zM597 406q10 -47 11.5 -84.5t-0.5 -69t-4.5 -58.5t0.5 -53q4 -30 26 -73t77 -73q3 7 7 13.5t4 14.5q0 6 -15 17t-31.5 32t-28.5 54t-6 82q5 36 5.5 64.5t-4 52 t-14.5 43t-27 38.5z" />
<glyph unicode="S" horiz-adv-x="751" d="M15 -29q0 28 13 63t34.5 69t50 62.5t60.5 44.5q58 29 94.5 30.5t59.5 1.5t36 11.5t25 60.5q-26 14 -56.5 19.5t-34.5 6.5q-34 12 -59 32.5t-42 45.5t-25.5 51t-8.5 50q0 27 6 45t14.5 31t16.5 23.5t11 22.5q0 2 -2.5 14t-4.5 29.5t-2 38.5t6 41q12 39 34.5 68t51 47.5 t59.5 27.5t59 9q48 0 75 -11.5t49 -22t46.5 -15.5t67.5 9q0 -4 2.5 -6t2.5 -5q0 -7 -8.5 -13.5l-22.5 -17t-32 -26t-37 -39.5q-16 -20 -25.5 -33.5t-16 -25l-13 -22.5t-16.5 -26q-10 7 -14 34t-17 56.5t-41 53t-86 23.5q-28 0 -45.5 -7t-27 -18t-13 -24t-3.5 -25 q0 -30 21 -50t51 -33t63 -21t57 -13l42.5 -9.5t24.5 -6t14.5 -3t12.5 -0.5q8 0 26.5 24l44.5 58t58.5 72.5t69.5 66.5h12l1.5 -6t1.5 -5q0 -5 -44.5 -53t-133.5 -157q4 -4 30.5 -17.5t57 -37.5t55 -58.5t24.5 -79.5q0 -23 -8.5 -48.5t-28 -56.5t-51.5 -68.5t-79 -85.5 q-21 -21 -42.5 -48.5l-40.5 -53l-32.5 -44.5t-18.5 -24q-16 12 -26 25l-19 25.5t-20.5 23t-29.5 16.5q-27 -47 -56.5 -89t-59 -74t-59.5 -51t-59 -19q-25 0 -40.5 12t-24.5 29.5t-12 38t-3 37.5zM39 -42q0 -29 14 -56.5t56 -27.5q12 0 28 10t32 25t30.5 31.5t22.5 28.5 q6 9 19 30.5l26 43.5l22.5 39.5t9.5 19.5q0 6 -12 11t-27 8t-28.5 4.5t-16.5 1.5q-76 0 -125.5 -47.5t-50.5 -121.5zM171 154q39 0 64 -2t41 -5t25.5 -5.5t16.5 -2.5q-1 11 0 17t2 11q-10 3 -15.5 4.5t-10.5 2.5t-11.5 1h-20.5q-31 0 -50 -6.5zM210 580q0 -34 31 -55.5 t70.5 -35t76.5 -21t49 -12.5h15q2 9 0 20q-54 3 -91 11.5t-63.5 23t-45.5 36t-38 51.5q-1 -5 -2.5 -9t-1.5 -9zM218 428q36 -29 47.5 -39.5t20.5 -14t28 -6.5t71 -18h18q2 6 2 7t6 15l-110.5 30.5t-75.5 30.5q-2 -5 -7 -5zM246 602q27 -25 57.5 -44t60 -32t54.5 -19.5 t41 -6.5q8 0 12.5 6.5t11.5 24.5q-24 6 -44 7t-45.5 5.5t-60 17.5t-87.5 41zM344 115q19 -7 31.5 -17t21 -20l15 -18t12.5 -12q7 9 15.5 16.5t8.5 15.5q0 9 -9 19.5t-22.5 20t-28 18t-24.5 13.5h-11q-2 -13 -2 -18t-7 -18zM388 234l37 -14t23 -11.5t22 -17.5l34 -31 q47 40 57 62t10 24q0 13 -19 24.5t-43.5 20t-48 13.5t-32.5 5q-5 0 -12 -11t-13 -25t-10.5 -25.5t-4.5 -13.5zM388 840q11 0 26.5 -8.5t30.5 -23.5t27.5 -34.5t18.5 -41.5q10 8 19 18t9 14q0 13 -16.5 26t-36.5 23.5t-37.5 17.5t-19.5 9h-21zM431 340q22 -4 47 -9 t47.5 -12.5t40.5 -16.5t27 -21q-2 23 -24 40.5t-49.5 26.5t-53 8t-35.5 -16zM480 448q28 -9 56.5 -16.5t52 -20.5t38.5 -35t15 -60q5 7 10.5 19t5.5 26q0 25 -16.5 45t-40.5 33.5t-52 21t-52 7.5q-12 0 -13.5 -7t-3.5 -13zM498 496l42 -6.5t46.5 -10.5t44.5 -17.5t35 -28.5 q-5 11 -18.5 26.5t-33 30t-43.5 24.5t-49 10q-10 0 -14.5 -9z" />
<glyph unicode="T" horiz-adv-x="646" d="M15 731q0 27 10 64.5t34 71.5t63 57.5t97 23.5q30 0 65 -10l73.5 -21.5t79 -21.5t82.5 -10q29 0 57 13t31 46q18 -10 16 -13.5t-2 -21.5q0 -46 -17 -77t-37.5 -50.5t-38.5 -29.5t-20 -15q-2 -19 -3 -41.5t-1 -48.5v-498q27 19 49.5 57t35 84.5t13 95.5t-15.5 90 q5 2 8.5 5.5t8.5 3.5q8 0 18 -30.5t10 -95.5t-20 -127.5t-57.5 -111.5t-90.5 -79t-119 -30q-46 0 -99 16.5t-98 52t-75 91t-30 134.5q0 19 5 56.5t20.5 84t44.5 97.5t77 96q-4 0 -5 2t-2 2q-4 0 -22.5 -10t-49.5 -10q-41 0 -68 31.5t-27 76.5zM46 725q0 -21 8.5 -35 t19 -22.5t20 -11.5t12.5 -3q10 0 25 4.5t29.5 14t25 24t10.5 34.5q0 6 -2.5 16t-2.5 19h26q0 -2 2 -10t4 -17t3.5 -17t1.5 -10q0 -17 -5.5 -26.5t-11.5 -22.5q10 12 27.5 24t35 22t31.5 16.5t18 6.5q6 0 8.5 -3t2.5 -14q-77 -51 -107.5 -124t-30.5 -161q0 -95 16.5 -142.5 t30.5 -63.5q16 16 24 35.5t8 35.5v171q0 55 -0.5 90.5t11 63.5t40 53.5t87.5 61.5l-292 68q-30 -4 -52.5 -22t-22.5 -55zM68 312q0 -34 11 -74.5t34.5 -78t60.5 -67.5t89 -43q-33 18 -63 42t-52.5 59.5t-36 84.5t-13.5 118q0 60 9 84t9 34t4 24t10 28.5t12 27.5t10 20 q-33 -59 -50 -101.5t-24.5 -72.5t-8.5 -50t-1 -35zM85 829q39 5 87 -4.5t97.5 -22.5l96.5 -24.5t84 -11.5h27t14 2t15 6t30 12q-102 0 -156.5 11t-88 24l-60 24t-72.5 11q-24 0 -39.5 -8t-34.5 -19zM256 196q10 -20 29 -38t41 -31.5t45 -21.5t43 -8q35 0 53 21t18 74v542 h-25q-9 -22 -21.5 -42.5t-17.5 -40.5q-7 -36 -6.5 -86t2.5 -102t1 -99t-12 -77q-9 -23 -26 -39.5t-38 -27.5t-43.5 -17t-42.5 -7zM299 251q13 12 20.5 29.5t11.5 35.5t5.5 33.5t1.5 24.5v269q-27 -44 -29.5 -83.5t-2.5 -91.5v-193q0 -7 -2.5 -12t-4.5 -12z" />
<glyph unicode="U" horiz-adv-x="842" d="M15 403q0 51 25 86t59 58q30 20 55 25t43.5 5.5t31 1t17.5 12.5q8 17 5 35t3 25q1 1 25.5 12t54.5 42q24 24 37 47t21 43.5t13.5 39t14.5 33.5q1 -2 6.5 -3t5.5 -6q-9 -78 -19 -144.5t-10 -139.5q0 -17 6.5 -25.5t15.5 -11.5t19 -3h18q63 0 81.5 15.5t18.5 56.5 q0 1 -0.5 16.5t-4 33.5t-11 33t-20.5 15q-11 -1 -17 -13l-12 -24.5t-15 -19.5t-26 3q16 20 26.5 35t18 28.5t14 26.5t15.5 29q20 36 30.5 58.5l16 35t8 17t7.5 4.5q6 0 23 -21.5t34.5 -47l32 -48t16.5 -23.5q17 22 27.5 41.5t18.5 29.5h16q-1 -13 -8.5 -26.5t-16 -27 t-16.5 -28t-10 -29.5q-1 -6 -2.5 -37.5t-3.5 -68.5t-4 -68t-2 -36v-56v-48.5t0.5 -48.5t3.5 -55q3 -42 13 -71t39 -64h12q0 13 11.5 46t28.5 61h19q0 -3 1.5 -5t1.5 -5q0 9 -6.5 -6.5t-16.5 -44t-24 -64t-28 -67t-28.5 -53t-26.5 -21.5q-19 0 -31 19t-26.5 49t-37 68.5 t-63.5 77.5q-1 0 -16 -24.5l-33 -53.5l-33.5 -54t-15.5 -26q-2 -3 -6 -11t-9 -15.5t-10 -13.5t-9 -6q-6 0 -26 22.5l-43.5 50.5l-45 52t-31.5 27l-24.5 -39.5t-36.5 -51.5q-4 2 -9 5t-12 8q4 4 14.5 18.5t21.5 32t20 35.5t11 29q3 27 3.5 59t0.5 71q0 27 -15.5 37.5 t-34.5 10.5t-35 -8.5t-17 -21.5q0 -15 14.5 -18t27.5 -11q-5 -4 -7 -6.5t-7 -2.5q-16 0 -30 7t-24.5 17.5t-16.5 22t-6 20.5q0 33 15 48t37.5 20t48 3.5t46.5 -1.5q4 8 4 14q0 10 -19.5 19t-36.5 9q-20 0 -45 -6.5t-46.5 -19.5t-36.5 -32.5t-15 -44.5q0 -51 24 -75t53.5 -33 t55 -8t27.5 1v-13q-15 -1 -24 -2.5t-21 -1.5q-34 0 -62 13t-48 35t-30.5 50.5t-10.5 58.5zM40 763q0 30 10.5 56.5t30 47t47 32.5t61.5 12q41 0 61 -21t29 -49t13 -55.5t14 -40.5q13 14 20.5 30.5t7.5 23.5q0 31 -10.5 58t-10.5 28q0 13 6 7t12.5 -22t12.5 -36.5t6 -35.5 q0 -50 -30.5 -86.5t-80.5 -36.5q-29 0 -45 13.5t-24.5 33.5t-11.5 43t-6.5 43t-10 33.5t-22.5 13.5q-18 0 -36 -29t-18 -77q0 -44 19 -65.5t43.5 -31.5t48.5 -13t35 -9q-4 -2 -11 -4.5t-17 -2.5q-50 0 -78.5 14.5t-43 36t-18 46t-3.5 43.5zM112 488q24 7 60 11.5t70 -9.5v26 q-7 0 -20 1.5t-18 1.5q-11 0 -36.5 -4.5t-55.5 -26.5zM151 876q13 -21 18.5 -51.5l11 -58.5t15.5 -48t32 -20q2 0 6.5 2.5t7.5 2.5q-16 16 -21 42t-11 52.5t-18 48.5t-41 30zM163 382q35 3 49 0.5t30 2.5q-15 6 -25 7t-19 -1t-17 -5t-18 -4zM274 196q0 -7 32.5 -48.5 t97.5 -105.5q7 5 13.5 12.5t6.5 16.5q0 17 -17 34l-39 38.5t-42.5 49.5t-27.5 66l8 388q-2 -1 -7 -1.5t-10.5 -4t-10 -11.5t-4.5 -23v-411zM403 311q0 -47 18.5 -75t65.5 -60l28 41t20 39.5t12 51.5t4 77q0 11 -8.5 17.5t-21 11t-26 6t-22.5 1.5q-47 0 -58.5 -31t-11.5 -79z M403 478q0 -4 2 -11t8 -30l138 1v80q-23 -2 -61.5 -8.5t-81.5 6.5q-2 -21 -3.5 -27.5t-1.5 -10.5zM539 729l14.5 -14.5t14 -20.5t11.5 -34.5t7 -56.5l-19 -364q14 -28 34 -63l39.5 -67l34.5 -55.5t18 -28.5q4 6 9.5 15.5t5.5 13.5q0 10 -14.5 30l-32 45t-33.5 52.5t-19 53.5 q2 63 4 114.5t3.5 101l3 101t1.5 114.5q0 12 -6.5 28t-15.5 32t-19 29t-16 18q-2 -5 -9.5 -18.5t-15.5 -25.5z" />
<glyph unicode="V" horiz-adv-x="773" d="M15 412q0 45 16.5 80.5t45 60t66.5 37t82 12.5q30 0 41 3t12 8.5t-3.5 13t-5.5 17t5 20t29 22.5q13 6 29.5 19t31.5 30.5t25 37.5t10 40l2.5 12.5t6 27t8 27t8.5 12.5q12 0 14.5 -11t1 -24.5t-5 -24.5t-3.5 -12q-7 -143 -10 -280t1 -282q0 -10 19 -38t44 -49 q4 8 6.5 13.5t2.5 10.5q2 99 2.5 180t0.5 158.5v158t1 179.5q8 12 11 10t4 -8.5t0.5 -14t-0.5 -5.5v-294q0 -12 13 -21t42 -9q24 0 36.5 4.5t18.5 13.5t7 22.5t1 32.5q0 46 -16 71.5t-36 41.5t-36 27.5t-16 28.5l69.5 87t41.5 38q6 0 15.5 -14.5t46.5 -56.5q2 -2 15 -14 t28 -27.5t15 -20.5t-16.5 -20t-36.5 -37t-36.5 -49.5t-16.5 -58.5v-107q0 -9 1.5 -44t1.5 -77t-2 -81.5t-8 -57.5q-7 -19 -23 -48.5t-65 -83.5q-47 -53 -79 -79.5t-37 -26.5q-13 0 -35.5 24t-46 54.5l-45 58t-33.5 34.5q-7 -9 -11.5 -19.5l-10.5 -23.5t-16.5 -31t-28.5 -42 h-17q0 5 -3 7.5t-3 4.5q0 5 23 31.5t42 87.5q8 26 10.5 43.5t2.5 30v22t4 19.5v67q-20 0 -23.5 2t-7.5 2q-36 0 -51.5 -13.5t-10.5 -46.5l-18 7.5t-22 12.5t-19 21t-8 32q0 35 20 52t46.5 24t53 8.5t40.5 5.5v16q-10 0 -19 2.5t-22 2.5q-18 0 -48 -8t-58 -24t-48.5 -39.5 t-20.5 -53.5q0 -34 25.5 -51t58 -24t62 -6.5t37.5 0.5v-20q-14 0 -24.5 -0.5t-24.5 -0.5q-39 0 -71.5 14.5t-56 36.5t-36 48.5t-12.5 50.5zM42 745q0 36 14.5 65.5t36 50t45.5 32t42 11.5q36 0 57 -14.5t34.5 -35.5t22.5 -44.5t21 -40.5q9 4 20.5 12.5t11.5 27.5 q0 5 1.5 8.5t3 11t1.5 21t-2 38.5q15 11 17.5 1.5t2.5 -27.5q0 -32 -10.5 -63t-28 -55t-40 -39t-45.5 -15q-39 0 -57.5 23.5t-28.5 51.5t-17.5 51.5t-24.5 23.5q-2 0 -11 -5t-19 -15.5t-18 -26t-8 -36.5q0 -37 14.5 -59t38 -33.5t53 -14.5t60.5 -3q5 -22 -7 -25t-31 -3 q-29 0 -55.5 9t-47.5 25.5t-33.5 39.5t-12.5 52zM74 445q34 44 85.5 57t104.5 13v20q-16 -8 -21.5 -4t-28.5 4q-28 0 -46.5 -5.5t-33 -16.5t-28 -28zM158 853q16 -27 22 -47.5t12 -36t17 -28t36 -24.5h23q-20 19 -32 38t-21.5 36.5t-19.5 33t-26 28.5h-11zM165 365 q20 12 31 17t20 6.5t19.5 1t28.5 -0.5q-11 7 -19.5 9t-16.5 2q-13 0 -20 -1.5t-12.5 -5.5t-12 -10.5t-18.5 -17.5zM292 203q0 -12 20.5 -40t46 -59l47.5 -56t25 -31q19 3 25.5 9t13.5 27q-3 1 -24 17t-46 46t-47 73t-27 97v380h-11q-21 -14 -22 -38t-1 -48v-377zM518 171 q0 -13 4.5 -23.5t18.5 -10.5q15 0 17.5 12.5t2.5 14.5q4 7 15 17t22.5 30t20.5 54.5t9 90.5q0 17 0.5 29.5t-3 20.5t-14 11.5t-33.5 3.5q-18 0 -29.5 -6.5t-18.5 -14t-9.5 -14.5t-2.5 -8v-207zM519 437h109v75h-109q0 -8 1 -14t1.5 -13.5t0.5 -18.5t-3 -29zM561 769 q2 -1 14.5 -13.5l27.5 -28l28.5 -30t16.5 -19.5q4 5 7.5 8.5t11.5 19.5l-42.5 41t-20.5 26q0 3 6.5 11l14.5 18t14.5 19.5t6.5 15.5q0 20 -7.5 17t-20 -17t-27.5 -34t-30 -34z" />
<glyph unicode="W" horiz-adv-x="1037" d="M15 375q0 31 11.5 57.5t27.5 47t33 33.5t28 17q46 20 75 22.5t45 2t21.5 3t5.5 24.5v48q3 4 13 7.5t24.5 12.5t32.5 26.5t36 48.5q18 30 22.5 58t5.5 49.5t4 34.5t17 13q8 0 15.5 -6t7.5 -16q0 -4 -11.5 -51t-11.5 -121v-457q0 -7 18.5 -31.5t48.5 -50.5q4 3 15.5 20 t23.5 37.5t21.5 41t9.5 31.5q1 39 3 67t-5.5 44.5t-29 22t-66.5 -1.5q0 1 -2.5 2.5t-2.5 8.5q0 4 10 28.5t18 90.5q21 0 37.5 2t37.5 2q0 1 1.5 14t2.5 31.5t1.5 39t-0.5 37.5q-2 14 -35 52q-5 -4 -16 -17.5t-22 -24t-19 -13t-8 16.5q0 5 5.5 10.5t15 17t22 29.5t26.5 48 q4 9 9.5 24t12 31t14.5 29t18 19l111 -127q24 24 33 46.5t31 48.5h12q10 1 2 -11.5l-22 -35t-27.5 -53t-13.5 -65.5v-139q25 -14 49.5 -7t41.5 7q5 0 9.5 -3l7.5 -5q-13 -37 -20 -65.5t-15 -66.5q-11 2 -23.5 3.5t-23.5 0t-18.5 -6.5t-7.5 -16v-115q0 -14 12.5 -33.5 t29 -39.5t34.5 -37.5t28 -28.5q5 3 18.5 20t28 38.5t25.5 43.5t11 37v329q0 4 -6 17t-19 30t-33.5 35t-48.5 33v21q26 3 45.5 24.5t33 47t20.5 46.5t8 23q5 -3 8.5 -10.5t15 -23t35 -40.5t68.5 -64q-6 -12 -25.5 -24.5t-39 -38t-32 -70t-5.5 -121.5q2 -10 1 -15.5t-1 -15.5 v-211q-53 -83 -99.5 -148.5t-99.5 -120.5l-175 207q-3 -3 -13.5 -21.5t-28 -46t-42.5 -61.5t-57 -67q-15 11 -32.5 30t-35 41l-33 42.5t-27.5 33.5q-14 -10 -27.5 -43t-31.5 -67q-9 2 -12 3t-11 5v16q8 10 19.5 29.5t22 42t18 45.5t7.5 41v106q-7 5 -15 9t-23 4 q-38 0 -53 -31q4 -4 7 -7.5t17 -5.5q-4 -6 -8 -10t-11 -4q-26 0 -43.5 20t-17.5 46q0 45 41 62.5t106 17.5v18q-10 5 -27 9t-26 4q-23 0 -50.5 -7t-51 -21t-39.5 -36t-16 -51q0 -13 10 -31.5t29 -33.5t46.5 -22.5t61.5 3.5q6 -10 2.5 -15.5t-10.5 -8.5t-15.5 -3.5 t-13.5 -0.5q-32 0 -58.5 15t-46.5 38t-31 50t-11 51zM59 752q0 25 11.5 50.5t30.5 46.5t43 34t49 13q33 0 53 -24.5t31.5 -55t16 -58t7.5 -33.5h13q20 23 28 41t10 35.5t0 35.5t-2 39q2 0 3 2t5 2q12 0 13 -13t1 -29q0 -24 -8.5 -56.5t-25 -62t-41.5 -50t-59 -20.5 q-35 0 -52.5 13t-24 32.5t-7 42t-2 42t-7 32.5t-23.5 13q-11 0 -19.5 -10t-14 -22.5t-8 -24t-2.5 -13.5q0 -38 13 -60t32.5 -35.5t42.5 -23t44 -22.5v-15h-22q-78 37 -103.5 72.5t-25.5 81.5zM115 460q31 5 43.5 7.5t22.5 3.5t25.5 1h51.5v12q-17 3 -25.5 6t-18.5 3 q-14 0 -30.5 -4.5t-31 -10.5t-25 -11.5zM139 848q29 -13 33 -31.5t4.5 -40t8 -44.5t42.5 -46q-5 11 -6.5 38.5t-6.5 56.5t-18 51t-41 22q-5 0 -8 -2t-8 -4zM162 337q23 7 31 10t14 4t15.5 0.5t35.5 -1.5q-3 8 -3 15h-60q-5 -7 -13.5 -11.5t-19.5 -16.5zM281 194 q0 -11 4.5 -19t17.5 -23l36.5 -42.5t60.5 -77.5q7 6 14 13t19 26q-46 46 -78 85t-33 47v420q-13 -5 -27 -9t-14 -32v-388zM479 442q12 -5 20 -5.5t16 1t17 3.5t22 1v25q-12 2 -18 2t-11 -0.5t-14 -1t-27 -0.5q-1 -8 -2 -12.5t-3 -12.5zM549.5 742.5q3.5 -7.5 11 -13.5 t14.5 -14t7 -25v-95v-83.5t-0.5 -83.5t-1.5 -95l-1.5 -85.5t2 -46t10.5 -26t24 -25t41.5 -43.5t64.5 -82q10 7 14 14t14 17l-87 97t-37.5 48t-6.5 36.5t5 60.5q3 55 4.5 100.5t2 89t-0.5 89t-3 100.5q0 11 -11 25.5t-24 29t-24.5 24.5t-14.5 12q-6 -18 -2.5 -25.5zM714 444 q22 -3 46 0l4 16q-17 2 -22.5 1t-24.5 -1q-3 -7 -3 -16zM827 725q22 -8 38.5 -25t38.5 -46q5 11 9.5 16.5t4.5 9.5q0 8 -7.5 16.5t-16 16.5l-16 15t-7.5 11q0 8 6.5 15t15 14.5t15 16t6.5 20.5q0 7 -5.5 11.5l-9.5 7.5q-3 -7 -10.5 -20.5t-18 -28t-22 -28.5t-21.5 -22z" />
<glyph unicode="X" horiz-adv-x="773" d="M15 -26q0 12 5 43.5t25.5 66t61.5 64t114 38.5q37 4 58.5 -1.5t34.5 -10t21 -1.5t17 26q5 12 15.5 35l21 46l18.5 41.5t8 21.5q0 36 -12.5 48.5t-33.5 13.5t-48.5 -4t-57.5 -5q-8 0 -10 0.5t-3 1l-3 1.5t-11 2l-4 5q17 29 26.5 48t9.5 39q0 16 6.5 20.5t15 4t16 -3.5 t9.5 -3t11 2t46 2l-5.5 30.5t-17 67t-28.5 67t-40 30.5q-4 0 -12.5 -13l-18.5 -28.5t-20 -28.5t-16 -13q-17 0 -17 14q0 1 7.5 12t24.5 38.5l44.5 74t66.5 118.5q72 -86 102.5 -134.5t41 -76.5t12 -44.5t15.5 -37.5q6 9 19.5 47.5l30 84t33.5 87.5t31 58h13q1 -17 4 -36 t9.5 -35.5t17.5 -27.5t29 -11q6 0 14.5 2.5t14.5 11t6.5 24.5t-10.5 44q18 9 26.5 -11.5t8.5 -45.5q0 -30 -9 -58.5t-25.5 -51.5t-39.5 -36.5t-52 -13.5q-17 0 -31 8.5t-40 18.5q-4 -6 -10.5 -23.5l-13 -36.5t-11 -35t-4.5 -20q0 -15 22.5 -19t52 -4t58.5 1.5t42 -2.5v-11 q0 -2 -6 -15.5l-13.5 -30l-14.5 -31t-10 -18.5q-9 -10 -24.5 -10t-30.5 1.5t-26 1.5t-11 -10l11.5 -55.5t20 -69.5t30.5 -59t43 -25q13 0 25 29l38 89h11l5 -8.5t2 -8.5q-1 -3 -11 -25l-25.5 -58t-26.5 -65q-16 -41 -24.5 -68t-13 -42.5t-8.5 -22t-11 -6.5q-14 0 -38 21.5 t-49 52t-47 62.5t-34 53q-9 16 -12.5 28.5t-5.5 23t-4.5 21t-9.5 22.5q-15 -15 -30 -53t-29 -81.5l-28 -83.5t-27 -59q-37 18 -64 35t-69 17q-27 0 -52 -8.5t-44 -23t-30.5 -33.5t-11.5 -41q0 -46 30.5 -86.5t74 -71t91.5 -49.5t82 -20q4 0 25 -0.5t46.5 -0.5h50t34.5 1 q12 1 46 6.5t70 18.5t64 35t28 56q0 5 -6 21.5t-24.5 34.5t-52.5 32t-90 14t-90 -11t-57 -28.5t-40 -39.5t-39 -44h-12q0 18 -2.5 23t-2.5 6q0 3 13.5 22.5t42.5 41.5t74.5 39.5t109.5 17.5q36 0 71.5 -9.5t63 -26.5t45 -42t17.5 -55q0 -33 -20.5 -60t-55.5 -46.5t-81 -30 t-98 -10.5q-76 0 -153.5 18.5t-140 54.5t-102 90.5t-39.5 126.5zM84 52q10 5 26 9.5t31.5 7.5t27.5 5t14 2q38 0 68 -13t47 -19q4 16 7.5 23.5t3.5 13.5t-16.5 11t-36 8.5t-36.5 5.5t-19 2q-25 0 -44.5 -7t-34 -16t-24 -18.5zM277 429q25 -4 51 -2t64 2q-1 13 -5 28h-67 q-8 -5 -12.5 -4.5t-9 0t-9 -4.5t-12.5 -19zM301 732q28 -14 50 -57.5t38.5 -97.5t28 -107.5t17.5 -88.5q9 -49 21 -96t32.5 -91t51 -83.5t77.5 -73.5q7 15 7 22q0 9 -13.5 22l-32.5 32t-39 47t-33 67q-18 55 -29 132t-28 154.5t-47 144t-86 100.5l-9 -13t-6 -13zM554 423 q21 5 28.5 2t23.5 -3q19 0 26.5 2t12.5 24q-8 -4 -22 -5t-28.5 -0.5t-26 2t-14.5 3.5v-25zM572 686q0 -4 8 -10t18.5 -12t20 -10t12.5 -4q10 0 32.5 6t44.5 34q-32 -10 -50 -8t-30 8.5t-20.5 16t-21.5 14.5q-5 -22 -9.5 -26.5t-4.5 -8.5z" />
<glyph unicode="Y" horiz-adv-x="798" d="M15 360q0 21 11 55.5t37.5 67t70.5 56.5t111 24q21 0 27 7t6 16.5t-2.5 18.5t0.5 14q2 3 7.5 5t15 8t24 17.5t33.5 32.5q28 32 40.5 57.5t16 45t2 32.5t-0.5 19q12 -11 14.5 -28t0.5 -48.5t-6 -81.5t-4 -126q0 -12 7.5 -19.5t18.5 -12t23.5 -6t21.5 -1.5q45 0 60.5 16 t15.5 56q0 9 -1.5 24.5t-6 31t-11.5 27t-19 11.5q-4 0 -10 -8.5t-13.5 -18t-17.5 -16t-21 -2.5v13q14 13 34 38.5t39.5 56.5t36.5 63.5t25 58.5l61.5 -80l48.5 -63q17 11 29.5 30l26.5 42h11q2 0 3.5 -5.5t1.5 -4.5q0 -6 -10 -18.5t-22 -32t-21.5 -46t-9.5 -60.5v-581 q0 -23 9 -51.5t9 -67.5q0 -40 -14.5 -69.5t-39 -49t-56.5 -29.5t-68 -10q-26 0 -63.5 11.5t-74.5 26l-67.5 26t-42.5 11.5q-14 0 -31.5 -10t-17.5 -27q0 -30 22.5 -53t51.5 -39.5t58 -25t43 -8.5h87q25 0 56 13t60 29.5l51 30t28 15.5q-5 -15 -24.5 -34.5t-50.5 -37.5 t-72 -30.5t-89 -12.5q-52 0 -104.5 12t-95 37t-69 62.5t-26.5 88.5q0 1 5 19t22.5 39t50.5 38.5t89 17.5q37 0 80 -15.5t83.5 -33.5l74.5 -33t54 -15q34 0 50.5 18.5t16.5 45.5q0 24 -11 50t-30.5 57.5t-47 71l-60.5 90.5q-15 -10 -36 -44l-42 -71l-38 -66t-24 -29 q-5 0 -16.5 15.5l-28 38.5l-37 50t-43.5 50q-16 -11 -31.5 -40.5t-32.5 -58.5q-13 8 -9.5 17t14 31.5t21.5 64t11 114.5q0 35 -10.5 44t-35.5 9q-12 0 -23.5 -4.5t-21 -10t-16 -10t-6.5 -5.5q4 -3 13.5 -6.5t16 -6.5t5.5 -5.5t-18 -2.5q-23 0 -39.5 18t-16.5 37q0 44 44 68 t107 17q2 12 -2 18t-11.5 9t-15.5 3.5t-14 0.5q-22 0 -52.5 -12.5t-57.5 -31.5t-46 -42t-19 -44q0 -39 17.5 -56t42.5 -21.5t52 -0.5l46 7v-16q-17 -9 -24.5 -10t-33.5 -1q-55 0 -97 37t-43 103zM62 739q0 26 10 50t27.5 42t41.5 29t52 11q36 0 64 -19.5t36 -54.5 q2 -8 1.5 -19t1 -20.5t6 -16t16.5 -6.5q15 0 22 11t9.5 29.5t2 41.5t-0.5 47h17q0 -1 2.5 -10t5 -22.5t2.5 -20.5q0 -13 -6 -37.5t-21 -49t-41.5 -42.5t-67.5 -18q-40 0 -58 21.5t-23 51.5q-1 8 -1 22t-2 27t-9 22.5t-22 9.5q-14 0 -29 -21t-15 -56q0 -39 16 -60t38.5 -32 t47 -15t40.5 -8v-11q-27 -5 -55.5 2t-52.5 23.5t-39.5 41.5t-15.5 57zM94 433q12 5 25 14t32 17t48 11.5t74 -3.5v15q-11 7 -21 8.5t-20 1.5q-21 0 -45 -10t-44.5 -22t-34 -22t-14.5 -10zM174 825q10 -16 10 -39.5t3 -45.5t16 -38t48 -16l16 4q-32 26 -42.5 44.5t-14 33.5 l-6.5 28.5t-19 28.5h-11zM185 350q11 2 16 4t12 2t20 -2.5t40 -8.5q-5 12 -15.5 16.5t-23.5 4.5q-18 0 -27 -6t-22 -10zM241 -152q0 -10 4 -7.5t11 9t17 13.5t22 7q15 0 49.5 -12l76.5 -27t86 -27t78 -12q24 0 59 15q-60 0 -79 8.5t-22 8.5q-7 0 -33.5 11l-60 24.5t-69 24.5 t-61.5 11q-17 0 -31 -6t-24.5 -14t-16.5 -16t-6 -11zM293 207q0 -7 20 -34t44 -56.5t45.5 -53.5t24.5 -26q3 17 9 21t6 12q0 10 -17 32t-37.5 45l-38 43.5t-17.5 28.5q-3 59 -3 107.5t1 94.5l2 94.5t1 107.5q-17 -8 -25.5 -16.5t-11.5 -20t-3 -27.5v-39v-313zM423 293 q0 -45 21 -75t53 -62q10 18 21.5 36.5l21 33.5l15.5 24.5t6 11.5v91q0 9 -8 15t-18.5 10t-20 5.5t-13.5 1.5q-43 0 -60.5 -19.5t-17.5 -72.5zM427 403q12 0 26.5 4t32 7t37.5 1.5t43 -12.5q0 18 -1.5 44.5t-3.5 56.5q-11 -3 -16 -6.5t-10 -6t-13 -4.5t-25 -2q-11 0 -30 3.5 t-40 11.5v-97zM542 706l25 -27.5t18 -44.5q3 -53 4.5 -96.5t2 -85.5t0.5 -85.5v-97.5q0 -39 3 -60.5t13 -39.5t29 -39.5t50 -60.5q-7 13 -17.5 36t-20 50t-16.5 54t-7 49q0 57 1 103.5t1.5 91l1 91t-0.5 103.5q0 14 -7 28t-16.5 27t-20.5 23l-19 17q-4 -7 -5 -10t-2.5 -5.5 t-5 -7t-11.5 -13.5z" />
<glyph unicode="Z" horiz-adv-x="574" d="M15 34q0 18 5 36t11.5 36t11.5 35.5t5 33.5q8 18 18.5 37.5t27.5 46t43.5 62.5l65.5 86q-14 9 -27.5 8.5t-27.5 -2.5t-29 -1.5t-31 11.5q30 50 39 71.5t19 26.5t32.5 1t80.5 -4q22 0 30 -0.5t12 0.5q50 40 87.5 78t63.5 90l-5 4q-30 -14 -46.5 -19.5t-43.5 -5.5 q-42 0 -69.5 14.5t-49.5 31.5t-43 31.5t-49 14.5q-23 0 -43 -15t-20 -35q0 -16 15.5 -38t42.5 -38.5t62.5 -20.5t75.5 16h11l2 -3t2 -4q0 -10 -20.5 -16.5t-50.5 -6.5t-61.5 10t-57.5 28t-42.5 43.5t-16.5 56.5q0 16 10.5 40.5t31 47t49 38.5t64.5 16q55 0 87 -26.5 t53.5 -58.5l38 -58.5t40.5 -26.5q8 0 21 3t25.5 9.5t21.5 17.5t9 26q0 4 -3.5 15.5t-8 23.5t-8 22.5t-3.5 13.5q0 8 7.5 23.5t20.5 15.5q9 0 16 -8t12.5 -19t8 -21.5t2.5 -16.5q0 -31 -23 -76t-51.5 -89t-54.5 -79.5t-33 -48.5q16 -2 28.5 -2.5t26.5 0t32.5 1.5t46.5 1 q1 -2 2 -7t1 -10q0 -1 -7.5 -14.5l-16.5 -29t-17.5 -28.5t-10.5 -13l-8.5 -0.5t-20.5 -1.5t-25.5 -1.5t-23.5 -0.5h-95q-4 0 -22 -16t-38.5 -36.5l-37.5 -38l-20 -20.5l-30.5 -32.5t-29 -32.5t-22.5 -31t-10 -27q26 14 46.5 21t45.5 7q49 0 81 -12.5t59 -27t55.5 -27 t70.5 -12.5q14 0 29.5 5.5t28 16.5t21 28t8.5 40q0 31 -15.5 53t-36 36t-40.5 20.5t-28 6.5q-37 0 -79.5 -18.5t-74.5 -61.5q-6 2 -9 5q11 38 48.5 62t95.5 24q46 0 79 -15t54 -40.5t30.5 -58.5t9.5 -70q0 -19 -8.5 -49t-29.5 -58t-57 -48t-92 -20q-40 0 -68.5 25.5 t-55 56.5t-54.5 57t-67 26q-29 0 -52 -16t-23 -44q0 -26 12.5 -45t12.5 -35q0 -32 -25 -32q-21 0 -29 18t-8 38zM92 764q4 4 7 5q37 17 62.5 10t51 -24l55 -37t74.5 -29q-22 15 -39.5 33.5t-36.5 35.5t-42.5 28.5t-56.5 11.5q-20 0 -38 -7t-37 -27zM127 435h91 q7 5 13.5 11.5t10.5 12.5h-98q-3 -4 -8 -11.5t-9 -12.5zM183 158q24 -8 45.5 -32.5l43.5 -50.5t48 -46.5t59 -20.5q28 0 65.5 11.5t59.5 51.5q-29 -16 -53.5 -21t-58.5 -5q-17 0 -39.5 12.5t-48 30l-52.5 37t-53 33.5h-16zM311 435h126q10 7 11.5 6.5t7.5 17.5q-13 4 -34 6 t-43 -0.5t-41 -9.5t-27 -20z" />
<glyph unicode="a" horiz-adv-x="437" d="M19 -14q-3 13 3 26t14 26.5t15 28t7 29.5v91q0 45 11.5 68.5t29 36t38 20.5t39.5 21q-19 29 -26.5 57t-12.5 52q-2 11 -13 21l-23 20.5t-21.5 22.5t-9.5 27q0 11 13.5 30t29.5 19q20 0 31.5 -14.5t18 -31.5t9 -31.5t3.5 -14.5q7 0 21.5 13t29.5 29l27.5 29t16.5 13 q13 0 35 -18.5t56 -61.5q16 19 19.5 24.5t8.5 18.5h11q3 -6 5 -6.5t2 -4.5q0 -5 -6 -12t-14 -21t-15.5 -37.5t-10.5 -60.5q-4 -49 -4 -84t1 -84q1 -44 4 -71t31 -44q8 8 11 12t4 12l9.5 -7.5t4.5 -8.5q0 -4 -9.5 -24t-22 -43t-25.5 -41.5t-21 -18.5q-5 0 -18 11.5 t-28.5 27.5l-31.5 33t-27 27q-25 -25 -39 -45t-22.5 -33.5t-13.5 -20.5t-12 -7q-8 0 -30 20t-52 54q-10 -9 -15 -17.5t-9 -17t-9.5 -18t-17.5 -21.5zM81 162q0 -23 1 -41.5t7.5 -35t22 -31t44.5 -29.5q2 5 4 9t5 11q-38 26 -49 53.5t-11 32.5v96q0 25 -4 25.5t-8.5 -13.5 t-8 -36t-3.5 -41zM165 439q9 -27 13 -41t9.5 -26t16.5 -26t35 -41q5 21 4.5 35t-0.5 28q0 55 -11 80.5t-25 25.5q-2 0 -10 -6t-32 -10v-19zM175.5 160.5q-0.5 -11.5 1.5 -18.5t8 -15t19 -28q39 33 39 52v94q0 13 -16.5 29.5t-30.5 26.5q-10 -19 -14 -28t-5.5 -17t-1 -19.5 t0.5 -36.5q0 -28 -0.5 -39.5zM232 494q21 -18 29 -39t9.5 -44t-1 -48t-2.5 -51v-91q0 -35 -1 -61.5t5 -49t22 -42.5t50 -43q2 7 5 12t6 12q-30 18 -43 44t-17 57.5t-2 66.5t2 71v139q0 17 -14 44t-37 38q-4 -5 -6.5 -9t-4.5 -6z" />
<glyph unicode="b" horiz-adv-x="444" d="M15 693q0 10 13.5 18.5t42.5 30.5q1 1 7.5 8l15 15.5t17.5 15t14 6.5q14 0 25 -19t27 -37q9 12 12.5 18t5.5 10.5t4.5 11t8.5 19.5q3 -2 8.5 -3.5t5.5 -6.5q0 -2 -6 -14l-13 -27l-13 -29t-6 -20q0 -34 0.5 -62.5t1.5 -55.5t1.5 -55t0.5 -62q6 -4 21 15t30 42t24.5 40 t3.5 9q17 -11 28 -23t21 -24.5l21 -25.5t28 -26q14 16 23 29t20 27q12 -4 21 -15l-28.5 -37t-15.5 -23t-6.5 -21.5t-1.5 -32.5v-304q-13 -6 -22 -8.5l-16 -4.5t-13.5 -3.5t-15.5 -6.5q-18 -10 -31.5 -21l-26 -21.5t-26 -20.5t-32.5 -19l-108 97q-4 -5 -13 -19t-17.5 -25 t-15 -13.5t-6.5 16.5q0 1 5 9.5t11 21t12 28t9 30.5q0 5 -0.5 12t-1 19t0 31t1.5 48q2 41 3 74t1.5 64t0 64t-1.5 74q0 10 -4.5 17.5t-4.5 17.5v87q0 30 -7.5 41t-17 13t-17.5 1t-8 5zM65 706q0 -6 4 -11t8.5 -11.5t8 -17.5t3.5 -30v-409q0 -53 -0.5 -75.5t8.5 -38t33 -36.5 t74 -70q5 5 6.5 6t5.5 1q-3 8 -18.5 25.5l-33 37l-33 37.5t-18.5 26v26.5t-4 71.5v71v62t1 61.5t3 70.5q5 87 -3.5 144.5t-31.5 72.5q-3 -4 -8 -6.5t-5 -7.5zM187 230q0 -26 2.5 -42.5t9.5 -30t19.5 -26.5l31.5 -33h10v286q-10 6 -23.5 19.5t-20.5 16.5q-5 -10 -13.5 -22.5 t-9.5 -25.5q-2 -11 -3.5 -33t-2 -44.5t-0.5 -41.5v-23zM242 448.5q5 -10.5 16 -22t21.5 -24t9.5 -24.5l-5 -297q12 7 15 12t3 16v296q0 3 -7.5 13t-17 20.5l-17.5 19l-10 10.5q-13 -9 -8 -19.5z" />
<glyph unicode="c" horiz-adv-x="340" d="M15 73q8 27 14.5 40.5t11 26t6.5 30.5t0 56q-2 41 -3 74.5t-1 66v66.5v76q16 0 31 3t32 12.5t38.5 28t50.5 49.5h13q9 -21 20 -39t33 -18q13 0 17 8.5t3.5 19.5t-4 22t-3.5 16q3 -1 11 -8.5t17 -20t16 -29t7 -35.5q0 -21 -7 -39.5t-18.5 -33t-25 -22.5t-26.5 -8 q-18 0 -32 8t-24.5 20t-18 25.5l-13.5 24.5q0 -39 -1.5 -71t-2.5 -62.5t-1.5 -62.5t1.5 -71q0 -2 4.5 -18t13 -34.5t20.5 -34t28 -15.5q2 0 8.5 7.5t15.5 19t18.5 25t17.5 26.5q7 -2 11 -4.5t9 -6.5l-140 -188q-10 5 -32 26t-64 79q-15 -8 -35 -39q-4 1 -8 1.5t-8 2.5z M66 230q0 -40 10 -72t25.5 -55t33.5 -37.5t34 -20.5q1 6 8 13q-27 34 -44 51t-26.5 31t-14 32t-6.5 54q-2 37 -2.5 67t0 58.5l1 58.5t0.5 68h-19v-248zM176 535q0 -24 10 -40.5t23 -27.5t25 -16t16 -5t6 2t6 2q-3 3 -13 6.5t-22 13.5t-23 29t-16 53q-4 -4 -8 -9.5t-4 -7.5z " />
<glyph unicode="d" horiz-adv-x="458" d="M15 55v28q21 27 29.5 51.5t10 44t-1 32.5t-2.5 18q-2 28 -1.5 49t0.5 50q0 12 1 29t1.5 33t1 29t0.5 18q0 22 11 37t24 26.5l24 21t11 20.5q0 2 12.5 16.5l19.5 22.5q18 -9 33.5 -36.5t57.5 -80.5q4 13 9 75.5t-5 160.5q0 2 -3 10t-8 17t-11 16.5t-11 7.5q-7 0 -23 -17.5 l-35 -37.5h-12q-1 4 -2.5 7t-1.5 7q0 8 18 24t49 53q3 4 14 16.5l22.5 26t21 23.5l9.5 10q6 0 22.5 -23.5t60.5 -73.5q19 10 30 29t13 23q5 -1 9 -2t11 -1v-17q-22 -25 -33.5 -42t-16.5 -31.5t-5 -29v-34.5q0 -61 -0.5 -111.5t-2 -98.5l-3 -98.5t-2.5 -111.5q2 -35 8.5 -64 t23.5 -51q9 6 15.5 15.5t11.5 15.5t10.5 5.5t12.5 -13.5l-106 -160q-8 5 -21.5 20t-27.5 33.5t-26.5 37t-18.5 30.5q-15 -12 -27.5 -31t-23 -37t-19 -31t-15.5 -13q-13 0 -32.5 27t-63.5 69q-17 -10 -21 -16.5l-14 -22.5h-12zM74 122q17 -13 35 -31.5l47 -46.5l9 11t4 10 q0 6 -10.5 16.5l-23 22t-23 23.5t-10.5 22v284q0 9 10.5 21.5t23.5 25.5t23.5 25t10.5 20q0 10 -6.5 14l-11.5 7q-17 -36 -31 -48t-24.5 -24.5t-16.5 -37t-6 -86.5v-228zM179.5 222q-0.5 -19 2.5 -34t10.5 -28t22.5 -29q32 47 32 54v213q0 8 -10.5 28t-21.5 31 q-10 -13 -19.5 -22.5t-11.5 -25.5q-6 -41 -4.5 -71t0.5 -70q0 -27 -0.5 -46zM244 768.5q2 -10.5 7.5 -20t12 -19t6.5 -20.5v-520q0 -36 -2.5 -53.5t1 -30.5t16.5 -28t45 -46q2 5 15 21q-25 35 -36 53.5t-14.5 34t-2.5 34.5t1 55q-1 67 -1 123t1 109t2.5 108.5t2.5 122.5 q1 39 -13 63.5t-34 34.5q-9 -11 -7 -21.5z" />
<glyph unicode="e" horiz-adv-x="353" d="M16.5 43.5q0.5 9.5 10.5 22.5t22.5 27.5t14.5 29.5q2 6 1.5 23t-2 35.5t-2.5 33.5t-1 18q0 4 2 6.5t2 5.5v240q4 6 7 7t11 3t23.5 9.5t43.5 27.5q32 16 65 19.5t59.5 -9.5t43.5 -45.5t17 -88.5q0 -15 -25 -43t-55.5 -56.5l-56 -52t-25.5 -29.5q0 -18 6 -40t15.5 -41 t21 -32t21.5 -13q5 0 17 15.5l25 33.5l25 33.5t17 15.5q7 0 11 -5.5t7 -7.5l-149 -207q-4 3 -9.5 8t-16.5 16.5l-31 31.5l-53 53q-9 -8 -18 -22l-24 -36q-21 4 -20.5 13.5zM82.5 352.5q0.5 -37.5 3 -63.5t2.5 -16q0 -75 3 -110.5t13.5 -55t30 -34.5t51.5 -48q2 5 3.5 6.5 t4.5 5.5q-14 22 -26 34.5t-21.5 20.5t-16 14.5t-7.5 16.5q-3 18 -3.5 42.5t-0.5 49.5t0.5 47t-0.5 35q-3 45 -1.5 78l2.5 54t-1 31.5t-13 10.5q-15 -10 -19.5 -45.5t-4 -73zM177 308.5q0 -7.5 1 -11.5t3 -6t5 -7q8 10 24 26.5l26.5 27l12.5 12.5l-38 78t-29 45 q0 -59 -2.5 -93.5t-2.5 -48.5v-22.5zM197 515q1 -4 12 -28.5t24.5 -50.5t26.5 -43.5t20 -5.5l-46.5 96t-32.5 41z" />
<glyph unicode="f" horiz-adv-x="381" d="M15 448q1 58 27 75t60 17q1 31 -2 60t5 73q50 57 99 99t99 42q28 0 45.5 -21t17.5 -47q0 -18 -4 -29t-10.5 -18t-14.5 -12.5t-17 -13.5h-59q0 6 -2 7t-2 3t12 12.5t12 26.5q0 6 -8 19t-24 13q-14 0 -23.5 -8t-11.5 -34q-2 -23 -2.5 -41.5t-0.5 -36.5t0.5 -37t2.5 -42 q1 -18 12 -22t26.5 -3t33.5 2.5t34 -5.5q-8 -31 -17.5 -49t-13.5 -49h-78v-191q0 -4 -3 -6t-3 -6q0 -5 4.5 -4.5t4.5 -0.5q1 -22 0 -34t1 -22t9.5 -21t25.5 -30q20 15 36.5 45t37.5 51q4 -7 12 -13l-125 -211q-12 7 -25 21.5l-26.5 31l-26.5 33t-24 27.5q-15 -11 -26 -31.5 t-29 -42.5h-12q0 3 -2.5 4.5t-2.5 3.5q0 1 9 16l20.5 33t20.5 34t9 19q2 5 3 12.5t1.5 23t1 41t0.5 65.5v157q-20 1 -33 0.5t-33 -0.5q-5 0 -13 2t-8 12zM50 464h46q-12 9 -25.5 10.5t-20.5 -10.5zM120 138q0 -4 10.5 -19.5t25 -33.5t29 -34t22.5 -22q3 9 12 20 q-33 40 -47.5 61.5t-18.5 37.5t-2 34t1 50q-2 67 -2 122t1 107.5t2.5 107.5t2.5 122q-13 -7 -19 -16t-7.5 -25t-1 -42.5t-0.5 -67.5q-1 -59 -2.5 -107l-3 -94t-2 -94t-0.5 -107zM219 464q15 -3 28.5 -4t26.5 9q-18 4 -30.5 4.5t-24.5 -9.5zM274 775q19 -14 22.5 -34.5 t-4.5 -43.5h13q9 13 16.5 25t7.5 24q0 18 -12 28t-25 10q-6 0 -9.5 -3t-8.5 -6z" />
<glyph unicode="g" horiz-adv-x="426" d="M15 12q0 12 8.5 20.5t18.5 22t18.5 34t8.5 56.5v334q3 3 23 9.5t46 20t52.5 35t43.5 54.5q5 -2 24 -17.5l40.5 -33.5l39.5 -32.5t21 -14.5q8 0 15 10t26 44q4 -6 7.5 -9t3.5 -5q0 -11 -15.5 -25.5t-15.5 -35.5v-460q1 -2 5.5 -18t9.5 -44.5t5 -56.5q0 -37 -14 -72 t-36.5 -62t-50.5 -43.5t-55 -16.5q-39 0 -58.5 17t-34 37.5t-31.5 38.5t-51 20v20q27 11 42.5 26.5t25 33t16 34.5t14.5 32q3 -1 19 -19l33.5 -39t31.5 -39.5t14 -20.5q0 -9 -8.5 -14l-18 -10.5t-18 -14t-8.5 -24.5q0 -14 11.5 -28t33.5 -14q37 0 56 23t19 57q0 26 -10 49.5 t-23.5 45l-26 42t-18.5 41.5q-5 18 -4.5 29t2 21t2.5 20.5t-3 27.5q-16 -15 -29 -33.5l-24 -34.5t-21.5 -26.5t-21.5 -10.5q-10 1 -21.5 18t-51.5 59q-6 -7 -17.5 -22t-22.5 -28t-19 -17.5t-8 9.5zM93 115q0 -8 10.5 -22.5t24 -28t25.5 -22t14 -3.5q-8 29 -27 47.5t-23 28.5 q-2 5 -1.5 11.5l1.5 19.5t1.5 33.5t-1.5 52.5q-2 34 -3 61t-1 53v53.5v60.5q-10 -7 -15 -18t-5 -53v-274zM113 -165q22 -13 33 -24t17.5 -20.5t11.5 -18t16 -16.5q-6 13 -3.5 23t-3.5 25q-2 3 -15 13.5t-13 29.5q0 13 15.5 24.5t15.5 23.5q0 7 -5.5 11.5t-10.5 10.5 q-7 -13 -11.5 -23t-10.5 -19t-14 -18.5t-22 -21.5zM187 228q7 -20 5 -36t-2.5 -30t5.5 -25.5t28 -21.5q3 8 17 21.5t14 24.5v267q0 6 -8 15.5t-18.5 18.5t-20 16t-12.5 9h-8v-259zM213 519q0 -3 8.5 -9t20 -15t23.5 -20.5t20 -23.5q-1 -57 -1.5 -103.5l-1 -91t-1.5 -90.5 t-3 -103q-1 -26 2 -41.5t9 -26.5t14 -22t18 -28q-9 25 -14 48.5t-5 49.5v389q0 31 -28 56.5t-55 41.5q-1 -5 -3.5 -7t-2.5 -4z" />
<glyph unicode="h" horiz-adv-x="463" d="M15 104q26 27 38.5 36.5t18 21t5.5 34.5t1 76q1 66 2.5 120t2.5 105.5t1 106t-1 120.5q0 5 -6 14t-10 14q-4 -4 -11.5 -14t-15 -17.5t-13 -7.5t-5.5 16q0 9 10 23t25 33l31.5 41.5t29.5 49.5q19 -11 28 -19.5t15.5 -17l14.5 -19t24 -26.5l24 26.5t18 27.5h13l1.5 -3.5 t1.5 -4.5q0 -6 -8.5 -18.5l-18.5 -27.5l-19 -29t-9 -22q-4 -53 -4 -92.5v-93.5q0 -31 4 -50t4 -23q16 11 27.5 24.5t21.5 27.5l20.5 29t25.5 29q10 -8 19 -30t21 -45q12 -24 28.5 -32t21.5 -19q6 -10 6 -22t-2.5 -29.5t-5 -41t-2.5 -56.5v-82q0 -57 6 -81t18 -37q5 3 11.5 8 t12 8t9 1.5t3.5 -11.5q0 -3 -12 -22l-27.5 -41.5t-30 -40.5t-18.5 -18q-9 0 -32.5 23.5l-46.5 44.5q-14 -14 -20.5 -23.5t-18.5 -22.5h-11q-13 0 -8 7.5t16.5 21t23 31.5t11.5 38v294q0 2 -3 10.5t-8 17.5t-10.5 16t-11.5 7q-20 0 -29 -24t-12 -57t-2 -67t1 -54 q0 -16 -2 -33.5t-0.5 -36.5t10 -41t28.5 -47q-12 -15 -27 -27t-28 -24.5t-22.5 -27.5t-11.5 -36q-16 0 -20.5 4.5t-12.5 17t-28.5 34t-69.5 55.5zM59 104q6 -4 18 -14l24.5 -20.5t22.5 -17.5t13 -4q-14 28 -30.5 38.5t-16.5 17.5q0 14 15.5 28t19.5 22q2 4 2 14.5v30.5v52.5 t2 80.5q3 62 4 112t1.5 98t0 98t-1.5 112q0 4 -5 12.5t-11 17t-11.5 15.5t-7.5 9q-7 -14 -13.5 -20.5t-6.5 -9.5q0 -9 4.5 -14t9.5 -9t9.5 -9t4.5 -13q0 -70 -1 -127t-1.5 -111.5t-1.5 -112.5t-1 -128q0 -28 1 -43.5t-2 -28.5t-12 -29t-29 -47zM258 491l30 -40t14 -41 q2 -46 2 -83t-1.5 -72.5l-3 -72.5t-2.5 -83q7 -6 18 -18t22 -21.5t19 -12.5t8 10q0 7 -5.5 14t-12 13.5t-12 14t-5.5 16.5v196q0 7 4 29t2 49.5t-14.5 58t-46.5 56.5z" />
<glyph unicode="i" horiz-adv-x="278" d="M15 40q0 2 10 8.5t22 23.5t21.5 47t9.5 78v224q0 1 -5 16t-15 15q-6 0 -11.5 -6.5t-12.5 -13.5h-11q-1 5 -2.5 8.5t-1.5 8.5l69 85t33 37l9.5 -10l21 -23t22 -23.5t12.5 -10.5q7 0 14.5 11t11.5 15h16q1 -22 -14 -38t-19 -28q0 -1 -0.5 -17.5t-1.5 -42.5t-1.5 -59 t-0.5 -68q0 -17 -0.5 -43.5t1.5 -52t8.5 -44t20.5 -18.5q6 0 10 6.5t12 16.5h15q5 -8 5 -14t-15 -26.5t-34 -42.5t-36 -39.5t-20 -17.5q-15 0 -29.5 20t-46.5 57q-25 -22 -43 -51h-20q0 3 -2 6t-2 6zM57 764q0 1 14.5 17.5l33 36l35 35.5t20.5 16q2 0 13 -14l23 -30.5 l22 -31.5t10 -16q0 -5 -12 -19.5t-28.5 -31.5t-35 -32.5t-31.5 -21.5q-14 28 -26 42.5t-20.5 22.5t-13 13t-4.5 14zM82 481q0 -11 8 -14t12 -11q2 -4 1.5 -18.5t-2 -31t-3 -30.5t-1.5 -15v-121q0 -66 0.5 -93.5t5.5 -40.5t16.5 -24.5t32.5 -45.5q3 4 9 10.5t6 11.5 q0 10 -6 18t-13.5 15.5t-15 16t-11.5 18.5q-5 14 -4 55.5t3.5 92t4.5 100.5t0 82q-1 6 -7.5 16.5t-14.5 17.5t-14.5 6.5t-6.5 -15.5zM95 763q3 -3 8 -10.5t11 -15.5t12.5 -14.5t11.5 -6.5q8 0 7 6.5t-4.5 16t-6.5 19.5t0 17q4 13 17.5 22t13.5 22q0 18 -10 12.5t-22.5 -19.5 t-23.5 -29.5z" />
<glyph unicode="j" horiz-adv-x="308" d="M15 -168q0 16 8 26t18.5 19.5t21.5 21t18 29.5h16q18 -30 32 -46.5t23.5 -25.5t14.5 -13t5 -10q0 -10 -9.5 -15.5l-20.5 -11.5t-20.5 -15t-9.5 -25q0 -17 15.5 -29.5t26.5 -12.5q29 0 50 28.5t21 70.5q0 47 -16.5 76.5t-36.5 56.5t-36.5 58.5t-15.5 81.5q1 47 2 85t1 74 t-1 74t-4 85q0 2 -2.5 8.5t-10.5 18.5q-18 -18 -29 -36t-19 -18q-5 0 -10 4t-5 9l74.5 120.5t40.5 61.5q29 -21 42 -43.5t36 -50.5q4 5 13.5 20t19.5 27t17.5 15.5t7.5 -13.5q0 -7 -8 -18.5l-17.5 -26t-17.5 -30.5t-8 -33q-1 -54 -2.5 -98.5t-2 -87l-1 -87t1.5 -99.5 q0 -1 6.5 -24l15 -51.5t15 -54t6.5 -31.5q0 -36 -9.5 -70.5t-27.5 -62.5t-42.5 -45t-54.5 -17q-21 0 -44.5 14t-43 34.5t-32 43t-12.5 39.5zM46 -174q0 -3 7.5 -16.5t16.5 -24t16.5 -11t7.5 22.5q0 11 -12.5 18t-12.5 17q0 8 5 13t11 9.5t11 10t5 16.5q-24 -14 -39.5 -27 t-15.5 -28zM112 751q0 2 12 17l27 32.5l27.5 32t13.5 14.5q4 0 18 -13.5t29 -30.5t26.5 -32t11.5 -18q0 -1 -11 -17.5t-25.5 -36t-28 -35t-17.5 -15.5q-6 0 -19.5 14.5t-28 33t-25 35t-10.5 19.5zM125 470q1 -5 8 -18.5t7 -61.5v-290q0 -6 0.5 -9.5t2 -9.5t5.5 -16t12 -28 q1 49 1 89.5t0.5 79.5l1 79.5t1.5 89.5q2 48 1 75.5t-25 41.5q-5 -10 -10 -15t-5 -7zM140 747q29 -25 38.5 -41t17.5 -16q10 0 10 14q0 4 -5 11t-11 13.5t-11 13t-5 9.5q0 9 5 14.5t11 10t11 10t5 13.5q0 15 -8 12.5t-18.5 -14t-21.5 -26.5z" />
<glyph unicode="k" horiz-adv-x="498" d="M15 697q0 7 15.5 27.5t32.5 53.5l17 36.5l9.5 21t6 10t7.5 2.5q1 0 8 -2.5t18 -10.5t26 -24.5t32 -43.5q17 8 24 24.5t27 26.5q0 -4 2 -6t2 -6q0 -6 -6.5 -14t-15 -27.5t-15 -55t-6.5 -96.5l8 -137q29 19 48.5 48.5t45.5 73.5h12l105 -207q-5 -12 -18.5 -21.5t-30 -18.5 t-34 -17.5t-30.5 -17.5q47 -43 65 -78.5t25.5 -61t13 -39.5t26.5 -14q7 0 11 8.5l8 17t10 12t19 -6.5l-13 -25.5t-28.5 -53l-33.5 -57.5t-29 -40l-24 20.5l-16.5 13.5l-15.5 13l-22 20q-9 -7 -12 -11.5t-5.5 -9.5t-7.5 -11.5t-17 -15.5q-6 9 -3.5 15t8.5 22t12.5 46t7.5 87 q0 8 -0.5 26.5t-5 37t-14 32.5t-28.5 14q-11 0 -24 -12t-13 -21q0 -47 8 -72.5t17.5 -38.5t17.5 -19t8 -15q0 -1 -32 -30.5t-70 -90.5q-50 16 -68.5 38.5t-20 47.5t7 50.5t14.5 47.5q4 14 0.5 31t-3.5 39q0 4 1.5 7.5t1.5 9.5q2 38 2.5 69t0.5 61v61t1 70q2 98 -5.5 145.5 t-16.5 59.5q-12 -5 -18 -13t-14 -22q-9 5 -12.5 2t-3.5 15zM63 97q27 -12 45 -36.5t36 -46.5q1 0 7 9.5t6 14.5q0 14 -9.5 22t-21 14.5t-21 13t-9.5 16.5q0 6 3 7.5t7.5 4t9.5 9t10 22.5v561q0 9 -5.5 19t-12 18t-13 14.5t-8.5 7.5q-13 -10 -13 -16.5t5.5 -13.5t13 -17.5 t9.5 -27.5v-35.5t0.5 -85t1 -113l1 -118.5t0.5 -103v-66q0 -23 -14 -42t-28 -32zM204 295q29 13 53 27.5t37 20.5q-5 18 -14 36.5t-18.5 33.5t-19 25.5t-15.5 13.5q-15 -20 -18.5 -28t-3 -13t2 -13t-3.5 -27v-76zM270 468q5 -22 15.5 -44.5t24.5 -39.5t27 -17 q-4 18 -14 40.5t-21 42t-20 33.5t-12 17q-5 -10 0 -32zM285 269q22 -30 27 -61t3 -57t-6 -45t0 -25q2 -4 23 -19.5t40 -43.5q5 4 10.5 7t5.5 11q0 12 -7.5 16t-17 12t-17.5 26t-9 57q-1 47 -14 76.5t-38 45.5z" />
<glyph unicode="l" horiz-adv-x="296" d="M28 677q-5 6 2.5 31t21 53t29 50t26.5 22q14 0 29 -18l48 -56q16 18 18.5 23t9.5 16q6 0 5 -11.5t-4.5 -24.5t-7.5 -23t-4 -8q-2 -71 -3.5 -129.5t-2.5 -114.5t-1 -115t2 -131q1 -35 4 -55.5t8.5 -32t12 -18l14.5 -14.5l14 17t15 15.5t12 4.5t5 -15q0 -48 -11 -72 t-29 -33t-40 -5.5t-43 10.5t-39.5 14.5t-29.5 7.5q-3 0 -11 -8.5t-22 -19.5h-12q-1 4 -3 6t-2 5q0 7 7 15l15.5 17t15.5 19t7 22q1 73 0.5 153t-2 156t-3 141.5t-1.5 109.5q0 21 -6 25.5t-14 -0.5t-16.5 -14t-13.5 -15zM71 737q1 -2 15.5 -18t15.5 -34q3 -69 4.5 -126 t1.5 -111.5v-111.5t1 -126q-5 -63 -2 -89.5t12.5 -37.5t23.5 -18t30 -31q11 14 11 18q0 8 -8.5 15.5l-18.5 17t-18.5 22.5t-8.5 32v570q0 17 -16.5 32t-27.5 22q-3 -7 -6.5 -13t-8.5 -13z" />
<glyph unicode="m" horiz-adv-x="654" d="M14 416q7 14 23 36.5l34.5 50.5t27.5 56h15q23 -18 35 -33.5t18.5 -30t10 -28.5t10.5 -30q7 5 21.5 23t30 39.5t28 41.5t16.5 29q21 -9 37.5 -29.5t27.5 -42.5t18 -40.5t10 -23.5q33 40 49.5 65t24 39t8 19t0.5 6q3 0 4.5 2t6.5 2q10 0 22.5 -12.5t24 -28t21 -30.5 l12.5 -20q14 13 21 28t26 31q12 0 7 -11t-15.5 -36t-21 -66t-10.5 -100q0 -50 0.5 -83t4 -55.5t11 -37t20.5 -27.5q5 5 12.5 13.5t15 14t13 4.5t5.5 -14l-52.5 -86t-36.5 -71q-7 2 -11 4.5t-12 10.5l-23.5 24l-44.5 45q-9 -10 -13.5 -16t-8 -11.5l-7.5 -12t-13 -16.5 q-8 5 -12.5 8.5t-4.5 11.5q0 5 9 15t19 29.5t17 50t2 76.5q-1 29 -1 52.5v45.5t-0.5 45.5t-2.5 52.5q-1 19 -11.5 36t-12.5 18q-21 -27 -32.5 -44t-17 -34t-6 -36.5t-0.5 -50.5q0 -60 10.5 -97.5t14 -68t-9 -62t-59.5 -78.5q-55 62 -96 102q-14 -10 -41.5 -36t-51.5 -66h-20 q-10 41 -24.5 59t-27.5 26t-22 12t-9 16q0 5 7.5 12t16.5 18t16.5 25t7.5 32v172q0 2 -1 13t-3.5 24.5l-5 27t-5.5 19.5q-11 -8 -14.5 -14.5l-9.5 -17.5h-13q-16 0 -9 14zM62 87q10 -5 20.5 -16.5l21 -22t19.5 -16.5t15 0q-10 28 -25.5 38t-15.5 20q0 3 3 7t7 14.5t7 30.5 t3 54v57v50.5t-0.5 50t-2.5 56.5q-1 18 -9.5 37t-21.5 29q-2 -3 -5 -6.5t-3 -7.5t12 -27t12 -81v-165q0 -39 -15 -64t-22 -38zM193 150q0 -5 6.5 -21t19.5 -30q17 14 24 23.5t9.5 19.5t2.5 23t3 34v51.5t0.5 46t0 46t-2.5 52.5q-1 17 -6 25t-18 21q-18 -29 -28.5 -43 t-10.5 -24v-224zM250 465q0 -6 13 -14.5t16 -37.5q5 -55 5 -107v-107q0 -31 -3.5 -57.5t-29.5 -49.5q10 -7 16 -13t12 -14l14 -18.5l21 -26.5q5 4 10 9.5l10 11.5q-22 22 -36 34.5t-14 22.5q0 13 9 18.5t9 22.5v271q0 3 -1.5 13t-6.5 22t-13.5 23t-22.5 16q-1 -6 -4.5 -9.5 t-3.5 -9.5zM446 483.5q-2 -4.5 0.5 -16t8 -34t16.5 -62.5v-256q0 -10 4.5 -16.5t12.5 -15l19.5 -21t26.5 -34.5q3 2 5.5 3.5t5.5 4.5v12q-16 20 -27 32l-18 19.5t-10 13t-3 13.5q0 10 7 77t-3 207q0 8 -4.5 20t-10.5 24.5t-12.5 23t-11.5 13.5q-4 -3 -6 -7.5z" />
<glyph unicode="n" horiz-adv-x="471" d="M15 433q0 5 11.5 21l26.5 37l31 43t25 37q34 -12 51 -29t24 -35t9 -35.5t6 -30.5q25 22 46.5 57.5t52.5 72.5q11 -6 24.5 -15.5t26 -19.5l23 -18.5l16.5 -13.5l15 16.5t15 14.5h13v-16q-18 -21 -26.5 -36.5t-12 -29.5t-3.5 -28.5t-1 -33.5q-2 -36 -3.5 -66t-2.5 -59 t-1 -59t2 -67q3 -20 9 -25.5t13.5 -1.5t17 15l19.5 23l8.5 -10t5.5 -11l-95 -155q-18 9 -36.5 40t-47.5 55q-15 -19 -23.5 -35.5t-31.5 -24.5q-1 4 -4 6t-3 6t9.5 13t21.5 30.5t21.5 59t9.5 99.5q0 49 -1 91t-4.5 73t-9.5 49t-16 18q-19 0 -37.5 -44.5t-18.5 -124.5 q0 -53 6.5 -88.5t14 -57.5t14 -31.5l6.5 -9.5q-36 -49 -61 -79t-37 -35q-9 0 -11 3.5t-7.5 14t-21 31t-51.5 54.5q1 2 9.5 10t17 24t14.5 39t2 55q-1 46 -0.5 78t-3.5 77q-2 31 -4 43.5t-18 30.5q-6 -8 -14 -16t-14.5 -11.5t-11 -0.5t-4.5 16zM78 477l4 -6.5t9 -16.5 t9 -21.5t5 -22.5q2 -29 3 -53t1 -47v-47v-53q0 -55 -7 -80.5t-15 -41.5q19 -13 28 -27.5l22 -35.5q2 3 3.5 5t3.5 4v19q-15 19 -21.5 25.5t-6.5 12.5q0 3 3.5 13.5t7.5 25.5t7 32.5t3 32.5v168q0 50 -8 76.5t-27 56.5h-13q-2 -4 -6.5 -11t-4.5 -8zM262 473q17 -12 24.5 -35 t9 -50t0 -53t-1.5 -44q0 -71 -3.5 -108.5t0 -60.5t18.5 -42.5t52 -54.5q1 5 3 8t4 5q-20 38 -29.5 45.5t-13 9t-3.5 9.5v46v286q0 11 -6 24t-15 21.5t-19.5 8.5t-19.5 -15z" />
<glyph unicode="o" horiz-adv-x="392" d="M15 464q14 7 28.5 9.5t30.5 10.5q53 24 81.5 42.5t42.5 30.5t18.5 18.5t10.5 6.5q-3 0 17 -2.5t45 -5t47 -5l22 -2.5q4 0 7.5 -3t11.5 -6q-4 -14 -14.5 -31t-12.5 -63q-1 -32 -1.5 -57.5l-1 -50l-1 -50.5t-0.5 -57q6 -12 6.5 -25t0 -28.5t1.5 -34.5t11 -42 q-75 -48 -114 -76.5t-68 -33t-61 16t-95 69.5v330q0 5 -4 14t-8 25zM50 126q8 -15 21.5 -29t28 -27l28 -25t22.5 -24l11.5 6.5t6.5 4.5q-5 16 -18.5 29.5t-28.5 25.5l-28.5 22.5t-18.5 21.5q-2 2 -1.5 8.5l1.5 20.5t1.5 37t-1.5 59q-2 29 -1.5 58.5t0.5 55.5t-1.5 47.5 t-5.5 34.5q-4 -3 -11 -3zM148 299q4 -47 4.5 -72t1 -38t2.5 -19t9.5 -14.5t22 -23.5t40.5 -46v331q-26 25 -42 37l-33 26zM168 499q45 -28 63.5 -47t23 -34t0.5 -29.5t-4 -33.5q0 -38 0.5 -69l1 -61l1 -61t1.5 -69q4 2 7.5 2.5t7.5 1.5v337q0 5 -12 17.5t-26.5 25.5 t-27.5 23t-16 10q-7 0 -12 -4.5t-8 -8.5z" />
<glyph unicode="p" horiz-adv-x="442" d="M15 423q31 60 53.5 97.5t34.5 42.5q33 0 55.5 1.5t41 2.5t37 2.5t44.5 1.5q10 0 29 -22.5t66 -69.5q7 5 13 15l12.5 20t12.5 16.5t13 4.5q-3 -15 -9 -24t-11.5 -22.5t-10 -37t-4.5 -66.5v-259q0 -10 -14.5 -33t-35 -48.5t-41.5 -48t-34 -31.5q-24 37 -39 64t-41 52 q-5 -9 -6.5 -15.5t-1.5 -14.5t0.5 -20t0.5 -33q0 -58 1.5 -86t7.5 -42.5t18 -24.5t32 -33q-5 -6 -15.5 -14.5t-24 -22t-28 -34.5t-27.5 -52q-10 3 -18 11t-19 21t-28.5 31.5t-47.5 42.5q17 31 25 38.5t11 14t3 22.5v64v444q0 10 -6.5 27t-13.5 27q-9 -7 -13.5 -14.5 t-5.5 -8.5h-12q-1 4 -2.5 6.5t-1.5 7.5zM61 -205q9 -3 24 -19t28.5 -29t23.5 -16t10 20q0 17 -8 20.5l-16.5 7.5t-13.5 14.5t0 41.5q8 48 4 65.5t-4 29.5q-2 73 -1 132.5t3 116.5t3 116.5t-1 132.5q0 13 -7.5 25t-15.5 18t-15 4.5t-7 -15.5q0 -6 14.5 -20.5t15.5 -42.5 q2 -62 1.5 -112.5t-1.5 -98.5t-2.5 -98t-1.5 -112q0 -29 1 -51.5t-1.5 -43t-9.5 -41t-23 -45.5zM183 264q0 -44 0.5 -71.5t4.5 -45.5t11.5 -28.5t22.5 -20.5q9 10 17.5 17t15 16t11 23t4.5 39v207q-13 8 -19.5 18t-19.5 19q-13 -30 -30.5 -48.5t-17.5 -38.5v-86zM239 67 q9 -13 23.5 -4.5t27.5 31.5t22.5 57.5t9.5 72.5v182q0 10 -9.5 24.5t-45.5 53.5l-17 -17q29 -17 40 -44t11 -40q0 -66 -1.5 -115.5t-7.5 -86.5t-18.5 -64.5t-34.5 -49.5z" />
<glyph unicode="q" horiz-adv-x="438" d="M15 48q0 3 6.5 14l14.5 25.5t15 32t8 34.5q2 36 3.5 66t2.5 58t1 58t-2 66q-1 7 -3.5 17.5l-5 21.5t-4 20t-0.5 12q4 6 13 10t24 9t36.5 14t49.5 26q29 18 45.5 36.5t35.5 27.5l110 -103q16 13 25 28.5t25 30.5q3 -3 8 -5q-8 -28 -26.5 -51t-24.5 -40q2 -52 0 -93 q-3 -68 -4.5 -124t-2.5 -109.5t-1 -109.5t1 -124q0 -11 7.5 -23t16 -22.5l15.5 -19t7 -12.5q0 -9 -20.5 -18t-38.5 -35q-24 -35 -29.5 -44.5t-12.5 -9.5q-8 0 -12 4t-8.5 11t-12.5 18t-24 24l-9 7.5l-20 17l-20.5 18t-9.5 10.5q0 4 7.5 12t16.5 19.5t17.5 26t10.5 32.5 l4.5 46.5t3.5 51.5t-1.5 51t-11.5 44q-11 -9 -21 -26.5l-19.5 -35t-19 -30.5t-19.5 -13t-20 11.5t-21 26.5t-24 30t-29 22q-14 -19 -18 -27.5t-5.5 -13t-3.5 -7.5t-12 -11q-4 4 -9 8.5t-5 8.5zM78.5 227.5q0.5 -50.5 0.5 -77.5q0 -15 10 -32t24 -32.5t28.5 -28.5l21.5 -19 q2 6 7 12q-11 26 -24.5 35t-21.5 20q-14 17 -19 35t-5 37.5t3 40t4 42.5q2 38 1.5 73t-2 63t-3.5 46.5t-3 22.5q-10 -5 -14.5 -45t-6 -91t-1 -101.5zM175.5 251.5q-0.5 -37.5 2.5 -82.5q0 -5 11.5 -20t23.5 -23q13 20 22 35.5t11 38.5q3 46 3.5 92.5t0.5 86.5q0 30 -20 58.5 t-45 42.5q-1 -45 -3 -82l-4 -73t-2.5 -73.5zM194 512q13 -9 27.5 -23.5t26.5 -31.5t20 -34.5t8 -31.5q0 -64 -0.5 -116.5t-1.5 -103l-2 -103t-3 -116.5q-1 -36 -3.5 -53t-6.5 -26.5t-10.5 -18t-15.5 -29.5q27 -18 40.5 -32t30.5 -35h13q1 8 2 11.5l1 3.5q0 9 -9 18 t-20.5 17.5t-20.5 16t-9 14.5q0 3 3 8t7.5 16.5t8.5 30.5t5 50q3 68 4 123.5t1 108.5v108t2 122q-7 32 -20.5 54t-27 35.5t-24 20t-12.5 6.5q-5 0 -8 -4t-6 -6z" />
<glyph unicode="r" horiz-adv-x="358" d="M15 436q0 6 15 31.5l33 53.5t34 50.5t18 22.5q9 0 14 -6.5t12 -19.5t20.5 -32.5t39.5 -45.5q22 16 55 111q10 -4 25 -19.5t28.5 -34.5t23.5 -38t10 -29q-21 -44 -36 -71.5t-22 -31.5q-6 0 -10 5t-9.5 14.5t-14.5 23.5t-26 31q-11 -8 -19.5 -21.5t-8.5 -14.5v-224 q0 -15 11 -33.5t24 -31.5q16 14 23.5 27t20.5 38h11q4 -7 6 -8.5t2 -5.5q0 -13 -31 -62l-78 -122q-8 4 -14.5 12l-17 22l-27.5 35.5t-47 52.5q-17 -13 -20 -25t-14 -25h-11q-4 9 -4 16q0 9 6 18t13.5 22.5t14.5 33.5t9 51q3 44 2.5 75t1.5 75q2 30 -1 53t-23 46 q-4 -7 -10.5 -14.5t-13 -12t-11 -3.5t-4.5 11zM78 487q-1 -7 2.5 -13.5t10.5 -14t11 -19.5q3 -9 3 -29.5t-2 -42t-3.5 -39.5t-1.5 -21v-145q0 -11 12.5 -29.5t28.5 -37l30 -33.5t17 -18q1 5 2.5 7.5l4.5 7.5q-36 18 -50.5 47t-18.5 57.5t-1 51t3 26.5v161q0 31 -6.5 56 t-28.5 47q-12 -12 -13 -19zM242 480.5q3 -9.5 8 -17.5t11.5 -17.5t9.5 -26.5q11 2 13.5 8t2.5 14q0 15 -16 35.5t-28 29.5q-4 -16 -1 -25.5z" />
<glyph unicode="s" horiz-adv-x="393" d="M15 13q0 50 49 126q0 1 16 21.5l35 44.5t33 44t9 20q-1 0 -14.5 -6.5l-30 -14.5t-31.5 -14.5t-19 -6.5t-12 3t-8 11q0 120 3 174.5t3 55.5q3 16 20 21.5l45 15t65.5 29.5t81.5 64q12 -7 15 -16.5t6 -21t10.5 -25t27.5 -28.5h9q8 21 10 39t3 31.5t4 21t12 7.5 q11 0 16 -12.5t5 -17.5t-7.5 -29t-22 -57t-35.5 -70.5t-48 -70.5q25 0 46 8t33 13h27v-265q-4 0 -26 -6t-51.5 -20t-62 -36.5t-57.5 -56.5h-20q-4 32 -21 62.5t-52 30.5q-23 0 -24.5 -16t0.5 -36t0.5 -36t-22.5 -16q-17 0 -18.5 10t-1.5 25zM71 423l5 -158q5 1 9 2t10 2 l5 70.5t3 48t-1 38.5t-7 41h-15q-4 -14 -4.5 -21.5t-4.5 -22.5zM83 100q13 -3 27.5 -5.5t26.5 -9.5t21.5 -21t12.5 -38q13 11 23 21t10 19q0 13 -13.5 22.5t-29.5 16t-30.5 9.5t-15.5 3q-5 0 -16.5 -7t-15.5 -10zM122 171q37 0 53 -1t24 -4t15.5 -9.5t26.5 -17.5 q0 36 1 50.5t1 25t-1 27t-5 58.5q-10 -6 -29 -26t-37.5 -42.5l-33 -41t-15.5 -19.5zM178 313q18 3 36 20t31.5 36.5t22.5 36.5t9 21q-1 1 -30 15.5t-69 31.5v-161zM189 513q19 -17 32 -23.5l32 -15.5q-11 14 -18 35t-19 21q-5 0 -12 -6t-15 -11zM264 252q1 -15 1 -30 q0 -6 0.5 -22.5t1 -35t2 -35.5t3.5 -25q4 1 7 2t9 2l5 213q-14 -6 -20 -16.5t-8 -24t-1 -28.5z" />
<glyph unicode="t" horiz-adv-x="318" d="M15 462q14 40 20 68.5t8 29.5q7 8 14.5 9t14.5 0t12.5 -1t8.5 5q12 16 5 27.5t-5 22.5q2 5 22.5 21.5t33.5 37.5q18 28 29 64t19 52q18 -13 16.5 -44.5t-1.5 -62.5v-124h91v-22q-16 -29 -21 -54t-7 -26q-6 -4 -14 -3t-16.5 3t-16 3t-12.5 -3q-7 -5 -10 -35.5t-3.5 -69 t0.5 -76.5t1 -58q0 -15 6 -28t13.5 -22.5t14.5 -15.5t9 -6t14.5 10t24.5 41h13q1 -5 2.5 -7t1.5 -6q-29 -58 -55 -104t-60 -89q-14 11 -29 33t-57 59h-9l-24 -36h-15v20l19.5 32t9.5 20t4 21l3 37q2 27 2 49.5t-0.5 43.5t-0.5 43t1 49q2 40 -1 58.5t-10.5 24.5t-19 4 t-28.5 -2q-5 0 -10 2.5t-8 4.5zM51 485q8 -1 16 -3t18 15q-10 0 -14.5 0.5t-6.5 0t-4.5 -3.5t-8.5 -9zM109.5 145q-0.5 -9 5.5 -21t22 -29.5t49 -46.5q1 2 5 5.5t6 5.5q-7 17 -17.5 28l-20.5 21t-17.5 21.5t-9.5 30.5l9 168v295q-9 -6 -13 -11t-6 -14t-2.5 -24.5t-1.5 -41.5 q-3 -53 -4.5 -97t-2 -86l-1 -86t-0.5 -97q0 -12 -0.5 -21zM216 509q0 -10 7.5 -14t17 -4.5t17.5 1t10 1.5q2 11 -2.5 15t-12.5 4t-18 -1.5t-19 -1.5z" />
<glyph unicode="u" horiz-adv-x="444" d="M15 499q0 3 9 20.5t22.5 37.5t28 36t24.5 16q3 0 16 -7.5t27.5 -29t26 -60t11.5 -100.5v-116q0 -35 -3.5 -56.5t-3 -37.5t8.5 -30.5t30 -36.5q11 8 17 14.5t8.5 14.5t3.5 19.5t2 29.5q3 49 3.5 85t0.5 86q0 30 -4.5 49.5t-9.5 31.5t-9.5 18t-4.5 9q0 2 10 20t23.5 40 t28 39.5t22.5 17.5q7 0 23.5 -19.5t35.5 -48.5q1 -1 6 -9l10.5 -17l10 -17t4.5 -9q0 -7 -15.5 -24t-15.5 -42v-241q0 -14 24 -39q13 10 17.5 17.5t13.5 17.5h12v-20q-25 -36 -39.5 -59.5t-23.5 -39.5l-14.5 -26.5t-13.5 -19.5q-13 7 -18.5 13t-13 17t-21 27.5t-42.5 44.5 q-9 -6 -20 -22.5l-22.5 -33.5t-21.5 -30t-17 -13q-11 0 -29.5 18t-58.5 64q-9 -7 -13 -11t-7 -8t-6 -9.5t-9 -14.5h-13q-4 11 -0.5 22.5t9.5 27.5t12.5 39.5t9.5 57.5q4 47 4.5 80t0.5 79q0 44 -7 68t-16 36.5t-16.5 18.5t-7.5 15zM57 499q0 -1 5 -5.5t11 -17t10 -34.5 t2 -58q-2 -37 -2.5 -66.5t-0.5 -58v-58v-66.5q36 -35 52.5 -55.5t23.5 -31.5q1 2 5.5 6t9.5 11q-21 24 -34.5 38t-21 26t-9.5 26t-2 38q2 90 2.5 147.5t0.5 71.5q0 34 -7 59t-40 39q-1 -4 -3 -7t-2 -4zM247 496q0 -3 4 -9t8.5 -16.5t8 -27t2.5 -40.5q-1 -37 -2 -67l-2 -59 t-1.5 -59.5t-0.5 -67.5q0 -18 19 -38t48 -60l4.5 6.5t11.5 13.5q-26 32 -43.5 49.5t-17.5 45.5q0 18 3 48.5t6 66.5t4 74t-2 70.5t-12.5 56t-28.5 30.5q-2 -5 -5.5 -8.5t-3.5 -8.5z" />
<glyph unicode="v" horiz-adv-x="402" d="M20 438q0 20 11 42.5t25.5 44t29 39l21.5 26.5q40 -27 59.5 -56.5t26.5 -60.5t6 -64t-1 -66v-163q0 -2 4.5 -9.5t12.5 -18t18.5 -22t23.5 -21.5q29 29 36 62t7 53v170q0 8 -10.5 22.5t-23 29.5l-23 27.5t-10.5 16.5q0 2 8.5 11.5l20.5 23.5l25 30.5t22 32.5 q5 -2 18 -15.5l26.5 -28.5t23.5 -27.5l10 -12.5q0 -10 -9 -19t-20.5 -22.5t-20.5 -35t-9 -56.5q0 -1 -0.5 -14t-1.5 -32t-2.5 -41t-2.5 -41q-3 -51 -12 -84.5t-23 -60.5t-32 -52t-39 -59h-10q-3 5 -16 21.5t-30 35.5l-34 36.5t-29 24.5q-11 -11 -17 -25t-31 -30l-2.5 5 t-1.5 8q0 7 6 17l13 21.5t13.5 23.5t6.5 23q2 40 2.5 72l1 63t0.5 63t1 71q-14 13 -21 26t-19 13q-5 0 -7 -5t-9 -13h-12zM73 478q3 -7 11 -13t17 -16t10 -36q1 -33 1 -60t-0.5 -53t-2 -53t-2.5 -60q-1 -24 -1.5 -34t8 -21.5t30.5 -33l67 -68.5q2 4 6.5 8t4.5 9 q0 15 -15 26.5t-32 26.5t-31 37t-13 59q1 31 2.5 56.5t2 50t0.5 50.5t-1 57q-1 54 -54 95q-11 -20 -8 -27zM265 492q10 -16 19 -28t22 -26q5 4 9.5 7t4.5 11q-16 31 -39 52z" />
<glyph unicode="w" horiz-adv-x="590" d="M15 55q0 4 8 13.5t17.5 27t18.5 43.5t12 62q4 47 3 80.5t0 80.5q0 16 -1.5 32t-6.5 28t-13.5 18t-20.5 1h-13q0 4 -2 5t-2 5q0 1 7.5 15.5t20 35.5t29.5 45t35 44q51 -46 69 -88.5t19.5 -87t-6 -93t-7.5 -105.5q0 -24 1.5 -37t6 -21.5t12 -17t19.5 -23.5q13 7 23 23 t16.5 46.5t9.5 77t3 113.5q0 34 -3.5 53.5t-9 32t-13 20.5t-15.5 18l41 50.5l23 29t12 15t8 7.5q0 -20 10 -41l21.5 -43l21.5 -43t10 -40v-256q0 -11 10 -28t38 -48q28 21 40 49.5t15 57t1 52.5t-2 35q0 48 -0.5 70t-6.5 35.5t-20.5 26.5t-42.5 43l87 113q5 -5 18 -21.5 l26 -34.5l23 -32l10 -14q0 -9 -9.5 -18.5t-21.5 -23.5t-22.5 -34t-12.5 -50q0 -57 -5.5 -104t-20 -90.5t-39 -87t-61.5 -93.5q-12 6 -21 18.5t-20.5 31t-29 42.5t-46.5 53q-11 -8 -24.5 -29t-26.5 -43.5t-24.5 -39.5t-20.5 -17t-37 32.5l-62 70.5l-21 -28.5t-18 -27.5h-13 q0 4 -2 3.5t-2 4.5zM58 479q0 -1 5.5 -6t12 -13t12.5 -18.5t7 -23.5q1 -31 1.5 -56.5t0 -50t-2 -50t-3.5 -56.5q-1 -8 -4 -25.5t2 -41t24 -50t62 -53.5q3 5 7 11t4 13t-12 21l-26.5 30.5t-26.5 34.5t-12 35q0 88 8.5 148t8.5 92q0 23 -12.5 41.5t-38.5 42.5 q-6 -10 -11.5 -15t-5.5 -10zM268 493q9 -9 14.5 -23.5t8 -29.5t3.5 -27.5t1 -17.5q0 -78 -4 -120.5t-7 -65.5t-2.5 -34t9.5 -26.5t29 -43t56 -82.5q5 5 10.5 9.5t5.5 9.5q0 1 -13 15.5t-28.5 34t-28.5 39t-13 30.5q0 35 6 86t7.5 102t-6 96t-35.5 68q-3 -7 -6 -11zM450 478 q0 -2 8 -10.5l18 -19l19 -19.5l11 -11q0 4 1 10t1 11q0 6 -9 17.5t-20 20.5t-20 11.5t-9 -10.5z" />
<glyph unicode="x" horiz-adv-x="414" d="M15 108l41 83t21 36q10 0 20 -22.5t33 -50.5q8 8 18 31.5t10 40.5q0 1 -7 29t-20.5 65.5t-33.5 74.5t-45 56q-4 -8 -8 -23.5t-12 -15.5q-14 0 -10.5 19t14 43.5t22.5 47.5t17 31q1 1 5 9.5t9 18t10 17t9 7.5q17 0 35 -25t34 -56.5t28 -60.5t16 -36q12 11 23 41t21 62 t19.5 57t19.5 25q6 0 18 -16t24.5 -36t22 -39.5t9.5 -26.5q0 -4 -6.5 -22t-16 -38t-19.5 -38t-16 -23q-8 8 -21.5 29.5t-34.5 42.5q-2 -3 -5 -15.5t-7 -26l-7 -24.5l-3 -11q0 -1 7.5 -30.5t21 -67t32 -73t41.5 -47.5q5 6 15.5 24t19.5 32h16l0.5 -5t3.5 -10l-98 -187 q-26 12 -46 36t-35 50t-26 50.5t-19 37.5q-13 -18 -19.5 -38.5l-13.5 -43t-17 -47.5t-29 -52q-3 1 -16 16.5l-27.5 34.5t-26 36.5t-11.5 23.5zM49 105q0 -1 13.5 -21l28.5 -43q7 11 7 21q0 6 -7.5 20t-17 25.5t-17 13.5t-7.5 -16zM68 479q44 -29 64 -80.5t37.5 -112 t42 -123.5t76.5 -115q7 8 9 14t4 10q-26 13 -44 43.5t-32 71t-27 86.5t-29.5 89t-38.5 79t-55 56q-1 -5 -3 -9t-4 -9zM285 501q0 -18 2 -25.5t6 -14.5t11 -16t16 -30l6.5 8t2.5 11q0 4 -6.5 15t-14.5 22.5t-15 20.5t-8 9z" />
<glyph unicode="y" horiz-adv-x="462" d="M15 -81q0 46 13 59.5t29 21t29 22t13 62.5v331q0 12 -7 20t-16 16q-11 -11 -15.5 -17t-25.5 -4v15q33 43 52 71.5t30.5 47.5l18 30.5t14.5 21.5h17q0 -20 -3.5 -29t-6 -14t-3 -9t5.5 -14t20.5 -29l40.5 -55q15 10 30 29t29 41t27 45.5l25 43.5q6 -4 12 -6.5t6 -10.5 q0 -13 -9 -20t-9 -19q0 -9 14.5 -23.5l44.5 -44.5q19 15 23 27t16 29h17q-4 -26 -21 -49.5t-20 -36.5q-2 -7 1 -31t3 -66q0 -44 -0.5 -75.5t-3.5 -77.5q-5 -67 -42 -108t-104 -69q-60 -26 -100 -35.5t-64 -14t-34 -10t-10 -22.5q0 -7 12.5 -19.5t37.5 -12.5q36 0 70 7t62 15 t49.5 15t32.5 7q16 0 34.5 -7t34 -21t26 -35t10.5 -49q0 -39 -20.5 -66.5t-48.5 -45t-57.5 -25.5t-46.5 -8q-11 0 -31.5 3t-43 10.5t-43 21t-31.5 33.5v11q15 -5 29 -14.5t30.5 -18.5t37 -16t49.5 -7q13 0 35 6.5t43 17t36 25t15 29.5q0 22 -18 28t-37 6q-21 -1 -69 -15.5 t-114 -15.5q-18 0 -39.5 5t-39.5 16.5t-30 30t-12 46.5zM60 -130q11 -5 16.5 -9t11.5 -7t15 -4.5t26 -1.5q41 0 73 8t61 14.5t57.5 8t61.5 -11.5q-11 23 -21 27.5t-40 4.5q-15 0 -39 -5.5l-52.5 -12.5t-60 -12.5t-61.5 -5.5q-18 0 -22.5 2.5t-25.5 4.5zM102 486 q0 -15 2.5 -20l6 -11.5t8 -20.5t7.5 -46q1 -12 0 -29t-3 -34l-3.5 -30.5t-1.5 -17.5v-233q13 -5 19 1.5t6 19.5v354q0 29 -15 45.5t-26 21.5zM212 127q1 -34 5 -62q25 7 39 16.5t21 34t9 69t2 120.5v122q-3 2 -13 11.5t-23 16.5q-7 -19 -15 -26t-13 -17q-1 -4 -2 -58 t-9 -161q-2 -32 -1 -66zM276 473q21 -3 29.5 -27t10 -53.5t-1 -57t-2.5 -38.5q-2 -26 -2.5 -47.5l-1 -42l-1 -41.5t-0.5 -47q11 15 16.5 41.5t8 56.5t3 60t0.5 51q0 10 2 32.5t-1.5 48t-15.5 49.5t-40 36q-1 -3 -1.5 -6.5t-2.5 -14.5z" />
<glyph unicode="z" horiz-adv-x="384" d="M15 45q0 38 19 77.5t42 72.5t43 56.5t23 28.5q-20 5 -33 4t-23 -2v14q20 28 36 29t34.5 2.5t43 17t60.5 72.5q-4 0 -4.5 3t-2.5 3q-4 0 -25.5 -8.5t-56.5 -8.5l-47.5 16.5t-41.5 11.5q-1 -8 -3 -16.5t-10 -19.5q-8 4 -13 7t-5 12q0 12 8 26.5l19.5 36.5t24 53t22.5 75h11 l20 -34.5t28.5 -39t36.5 -32t44 -13.5q25 0 35 12t11 26.5t-2 27l-3 12.5q0 7 7.5 20.5t18.5 13.5t17 -7.5t9 -17.5t3.5 -19t0.5 -11q0 -21 -16.5 -53.5t-37 -65.5t-39 -60t-21.5 -36q17 -5 30 -4.5t21.5 2t13 1.5t4.5 -5q0 -21 -15.5 -28.5t-35 -8.5t-38 1t-24.5 0 l-70.5 -72t-34.5 -45q14 8 41 19t64 11q46 0 74 -15.5t35 -15.5q10 0 16 17.5t26 48.5q4 -3 9 -4.5t5 -9.5q0 8 -5.5 -6t-14 -40l-20 -58.5t-23.5 -61.5t-23.5 -48.5t-21.5 -19.5q-7 0 -21.5 23.5t-34 51.5t-43 51.5t-48.5 23.5q-10 0 -24 -8.5t-27 -22t-21.5 -30.5 t-8.5 -33q0 -10 9.5 -27.5t29.5 -17.5t28 7t8.5 17t-4.5 21t-11 18v11q0 2 5.5 3.5t4.5 1.5q26 0 26 -42q0 -25 -15 -44t-42 -19q-31 0 -44 21t-13 50zM104 464q0 -6 10.5 -12t24 -11t26 -8t16.5 -3q13 0 19.5 1t12.5 2.5t14 4.5t24 7q-15 0 -29 -1t-30 3.5t-33 16.5t-38 37 q-8 -21 -12.5 -28t-4.5 -9zM169 142q28 -26 42 -41.5t21 -25.5t11 -17t12 -16q4 13 10 19.5t6 19.5q0 9 -14 20.5t-31.5 21t-34 15.5t-22.5 4z" />
<glyph unicode="&#xaa;" horiz-adv-x="437" d="M19 -14q-3 13 3 26t14 26.5t15 28t7 29.5v91q0 45 11.5 68.5t29 36t38 20.5t39.5 21q-19 29 -26.5 57t-12.5 52q-2 11 -13 21l-23 20.5t-21.5 22.5t-9.5 27q0 11 13.5 30t29.5 19q20 0 31.5 -14.5t18 -31.5t9 -31.5t3.5 -14.5q7 0 21.5 13t29.5 29l27.5 29t16.5 13 q13 0 35 -18.5t56 -61.5q16 19 19.5 24.5t8.5 18.5h11q3 -6 5 -6.5t2 -4.5q0 -5 -6 -12t-14 -21t-15.5 -37.5t-10.5 -60.5q-4 -49 -4 -84t1 -84q1 -44 4 -71t31 -44q8 8 11 12t4 12l9.5 -7.5t4.5 -8.5q0 -4 -9.5 -24t-22 -43t-25.5 -41.5t-21 -18.5q-5 0 -18 11.5 t-28.5 27.5l-31.5 33t-27 27q-25 -25 -39 -45t-22.5 -33.5t-13.5 -20.5t-12 -7q-8 0 -30 20t-52 54q-10 -9 -15 -17.5t-9 -17t-9.5 -18t-17.5 -21.5zM81 162q0 -23 1 -41.5t7.5 -35t22 -31t44.5 -29.5q2 5 4 9t5 11q-38 26 -49 53.5t-11 32.5v96q0 25 -4 25.5t-8.5 -13.5 t-8 -36t-3.5 -41zM165 439q9 -27 13 -41t9.5 -26t16.5 -26t35 -41q5 21 4.5 35t-0.5 28q0 55 -11 80.5t-25 25.5q-2 0 -10 -6t-32 -10v-19zM175.5 160.5q-0.5 -11.5 1.5 -18.5t8 -15t19 -28q39 33 39 52v94q0 13 -16.5 29.5t-30.5 26.5q-10 -19 -14 -28t-5.5 -17t-1 -19.5 t0.5 -36.5q0 -28 -0.5 -39.5zM232 494q21 -18 29 -39t9.5 -44t-1 -48t-2.5 -51v-91q0 -35 -1 -61.5t5 -49t22 -42.5t50 -43q2 7 5 12t6 12q-30 18 -43 44t-17 57.5t-2 66.5t2 71v139q0 17 -14 44t-37 38q-4 -5 -6.5 -9t-4.5 -6z" />
<glyph unicode="&#xad;" d="M15 227q3 12 7.5 27t9.5 29.5t10.5 26.5t9.5 16l253 7l1.5 -6t1.5 -5q0 -41 -20.5 -68t-62.5 -27h-210zM48 251q14 3 20.5 8.5t9.5 11.5t5 11t8 8t16.5 0t31 -5t53 -0.5t81.5 13.5l-202 4q-9 -20 -12 -29.5t-11 -21.5z" />
<glyph unicode="&#xb2;" horiz-adv-x="580" d="M15 20q-6 32 6.5 81.5t44.5 109.5t87 116q38 40 67.5 56.5t52 22.5t38 7t26 8t16.5 27t9 63q3 37 3 64.5t1 65.5q0 7 0.5 22t-1.5 30.5t-8 27t-19 11.5q-6 0 -17 -11.5t-30.5 -25.5t-49 -25.5t-71.5 -11.5q-13 0 -33 11.5t-39.5 27.5t-33.5 34t-14 30q0 14 15 7t38 -7 q39 0 65.5 21.5t58.5 65.5q33 -37 53 -56.5t39.5 -29.5t43.5 -13.5t63 -8.5q14 -2 22 -4.5t14 -3.5t12 -0.5t15 4.5h13q-5 -15 -13 -33t-8 -26v-238q0 -14 6 -20t10.5 -11.5t5.5 -13.5t-10 -26q-15 9 -25.5 13.5t-20 5.5t-20 0.5t-25.5 -0.5q-131 0 -211.5 -72.5 t-132.5 -211.5l3 -21q34 22 62 42.5t56.5 36t60 24.5t71.5 9q41 0 74 -10t57 -22t38 -22t16 -10q10 0 16 7t11 15.5t10.5 15.5t14.5 7q11 0 14 -6t3 -11q0 -8 -14 -24.5l-33.5 -39.5t-40.5 -52t-35 -62h-13q-44 46 -97 61t-99 15q-29 0 -59.5 -10.5t-57 -23.5l-46.5 -23.5 t-29 -10.5q-20 0 -26 32zM117 732q16 -2 25 -4.5t17 -2.5t22 7t28.5 15.5t26.5 16.5t15 11q-8 8 -14 15.5t-10 7.5q-1 0 -10 -7.5l-19.5 -17l-19.5 -17.5t-9 -9q-9 -5 -14 -6t-10 -1t-11 -1t-17 -7zM125 95q17 7 40 14.5t48 14t49 10.5t42 4q13 0 32.5 -2t42 -9t45 -19 t41.5 -33q7 10 7.5 11.5t8.5 11.5q-36 32 -84.5 46.5t-90.5 14.5q-22 0 -48 -5.5t-51 -14.5t-46.5 -20.5t-35.5 -23.5zM383 431q4 -1 14 -2t11 -1v286h-25v-283z" />
<glyph unicode="&#xb3;" horiz-adv-x="577" d="M15 19q0 1 13 22.5t40.5 47t70.5 46.5t103 21q48 0 74 -11t41 -24.5t24 -24.5t22 -11t16 25t3 49q0 40 3 68t3 67q0 37 -4.5 55.5t-13 27.5t-20 13t-26.5 10q-2 1 -18 11t-26 10q-11 0 -18.5 -9.5t-28.5 -22.5q-1 1 -3 8.5t-4.5 16t-4 15.5l-1.5 7q0 16 8 21.5t19 5 t22 -3.5t17 -3q42 0 63 19t29 43t8.5 45.5t1.5 26.5l-13 143q-12 6 -23.5 -5l-29.5 -27t-44.5 -29.5t-68.5 -13.5q-13 0 -38.5 10.5t-50.5 26t-43.5 32.5t-18.5 30q0 3 2.5 6t2.5 7q57 0 94 11t59 24t31.5 24t11.5 11q1 0 18 -16t45 -34.5t62.5 -32t70.5 -8.5h62 q-3 -26 -8.5 -49.5t-7.5 -33.5q-1 -24 -2 -39.5t-1 -28t1 -24t2 -27.5q1 -17 8.5 -40t12.5 -43q-25 -2 -42.5 0.5t-46.5 2.5q-18 0 -56.5 -5t-68.5 -26q6 -7 20.5 -15.5t39 -14t60.5 -6t86 7.5q0 -3 -3 -15.5t-7 -39.5t-7.5 -70t-3.5 -106q0 -24 3.5 -39t8 -25.5t9.5 -19.5 t8 -21q-12 -4 -37 -4t-57 -2.5t-69.5 -11t-74.5 -29.5q-11 -5 -24.5 -20t-39.5 -31q-32 34 -55 51t-65 17q-20 0 -36 -5t-30.5 -11.5l-27.5 -12t-27 -5.5q0 3 -2 5t-2 6zM92 81q32 13 69.5 20.5t57.5 7.5q36 0 60.5 -7t40 -15.5t23.5 -15.5t12 -7q3 0 5.5 3.5t7.5 4.5 q-23 36 -54.5 45.5t-70.5 9.5q-90 0 -151 -46zM131 736l42 -11.5t18 -3.5q27 0 51 7t43 16t31.5 18.5t16.5 14.5q-12 11 -18.5 18t-12.5 7l-12.5 -7.5t-29 -16l-32.5 -16.5t-23 -9q-12 -5 -34.5 -4.5t-39.5 -12.5zM436.5 619.5q0.5 -34.5 2 -66.5t4.5 -47h28v219 q-11 1 -16 1.5t-12 2.5q-4 -13 -5.5 -44t-1 -65.5zM439 109q0 -9 6 -9q15 0 22 13.5t9.5 31.5t2 36.5t-0.5 29.5v119q0 6 -2.5 21t-4.5 18h-32v-260z" />
<glyph unicode="&#xb9;" horiz-adv-x="410" d="M15 718q0 7 20.5 17.5t65.5 29.5q26 11 41.5 22t24.5 19.5l14 13.5t11 5q19 -11 34.5 -24t27 -33t18.5 -48.5t9 -69.5v-472q0 -12 7 -23t16.5 -20.5t19.5 -17t15 -10.5q7 7 16.5 18.5t18.5 20.5t15 10t6 -13q0 -8 -15.5 -32.5t-35 -50.5t-36.5 -46.5t-19 -20.5 q-13 0 -32 15.5t-37 35t-32 37.5t-19 23l-12 -15t-27 -29.5t-27.5 -20t-12.5 13.5q0 3 12 16.5t26 32t26 39.5t12 41v464q0 11 -5 26t-13.5 28.5t-21 22.5t-27.5 9l-69 -35q-11 5 -13 9t-2 12zM145 753q5 -17 9.5 -20.5t9.5 -9.5t11 -20.5t13 -52.5q0 -74 -0.5 -134 t-1.5 -117.5t-1.5 -118t0.5 -133.5q0 -17 14.5 -38t31.5 -39t31 -30.5l14 -12.5q7 4 16 4v13q-37 28 -57 72t-29 97.5t-9 112.5t3.5 116.5t7.5 111.5t4 96q0 20 -0.5 33t-5 23.5t-15 21t-31.5 25.5h-15z" />
<glyph unicode="&#xba;" horiz-adv-x="392" d="M15 464q14 7 28.5 9.5t30.5 10.5q53 24 81.5 42.5t42.5 30.5t18.5 18.5t10.5 6.5q-3 0 17 -2.5t45 -5t47 -5l22 -2.5q4 0 7.5 -3t11.5 -6q-4 -14 -14.5 -31t-12.5 -63q-1 -32 -1.5 -57.5l-1 -50l-1 -50.5t-0.5 -57q6 -12 6.5 -25t0 -28.5t1.5 -34.5t11 -42 q-75 -48 -114 -76.5t-68 -33t-61 16t-95 69.5v330q0 5 -4 14t-8 25zM50 126q8 -15 21.5 -29t28 -27l28 -25t22.5 -24l11.5 6.5t6.5 4.5q-5 16 -18.5 29.5t-28.5 25.5l-28.5 22.5t-18.5 21.5q-2 2 -1.5 8.5l1.5 20.5t1.5 37t-1.5 59q-2 29 -1.5 58.5t0.5 55.5t-1.5 47.5 t-5.5 34.5q-4 -3 -11 -3zM148 299q4 -47 4.5 -72t1 -38t2.5 -19t9.5 -14.5t22 -23.5t40.5 -46v331q-26 25 -42 37l-33 26zM168 499q45 -28 63.5 -47t23 -34t0.5 -29.5t-4 -33.5q0 -38 0.5 -69l1 -61l1 -61t1.5 -69q4 2 7.5 2.5t7.5 1.5v337q0 5 -12 17.5t-26.5 25.5 t-27.5 23t-16 10q-7 0 -12 -4.5t-8 -8.5z" />
<glyph unicode="&#x152;" horiz-adv-x="1485" d="M791 419q0 6 6 41t30.5 92.5t72.5 134.5t132 166h13v-21q-23 -36 -32.5 -56.5l-15.5 -33.5v-11q0 -1 3.5 -3l3.5 -2q11 0 95 44.5t223 128.5h22q1 -25 -5.5 -39t-6.5 -36q0 -5 2.5 -15.5t7 -21t12 -18t18.5 -7.5q26 0 34.5 14.5t8.5 35t-3 42.5t1 38q16 -16 18.5 -28.5 t2.5 -30.5q0 -60 -20 -90.5t-47 -42.5t-54.5 -11t-42.5 3q-5 -37 -4.5 -62.5t0.5 -60.5q13 -1 32.5 5t34.5 6q27 0 46 -12t37 -31q19 11 21 19.5t14 8.5q9 0 12.5 -5.5l6.5 -10.5l-126 -199q-12 8 -17 25.5l-10.5 37.5t-16 39t-34.5 30v-378q90 28 135 100t45 167 q19 5 21.5 -5.5t2.5 -27.5q0 -69 -25 -131t-68.5 -109t-103.5 -74.5t-130 -27.5q-14 0 -45.5 5.5t-70.5 21.5t-81 45t-76.5 76t-56.5 114.5t-22 160.5zM823 399q0 -78 18.5 -135t47 -96.5t61 -64.5t61 -38.5t47.5 -18.5t20 -5q2 0 6 1.5t8 1.5q-53 17 -97.5 53.5t-76.5 88.5 t-50 117t-18 140q0 44 13 92.5t19 80.5q-2 -9 -11.5 -28.5t-20 -48t-19 -64t-8.5 -76.5zM956.5 511q-1.5 -36 1.5 -81q0 -2 4 -28t11.5 -60t18.5 -67t25 -49q13 21 22 33.5t13.5 25t5.5 30t-2 48.5q-1 31 -0.5 56t0.5 49t-0.5 49t-2.5 56q-4 52 -6 84.5t-7 49.5 q-14 -11 -23 -14.5t-27 6.5q-11 -43 -20 -74.5t-12 -75.5q0 -2 -1.5 -38zM1029 198l33.5 -31t43 -34t50 -27.5t55.5 -11.5q8 0 14 1.5t13 2.5v384q-28 -25 -33.5 -40t-4.5 -32t1.5 -41.5t-14.5 -68.5q-12 -36 -35 -53t-47.5 -25t-45.5 -11.5t-30 -12.5zM1073 257 q8 8 13.5 15.5t10 22t8 39t7.5 65.5l-2 332h-18q-7 -8 -13 -13t-6 -15v-446zM1197 765q0 -10 1 -20t2 -35t2 -71.5t1 -129.5q23 19 31 31t8 20v147q0 9 -4.5 14t-10.5 12.5t-12 20t-9 36.5q-7 -8 -8 -14.5t-1 -10.5zM1231 791q0 -16 8.5 -30t20.5 -24.5t25.5 -16.5t23.5 -6 q5 0 10.5 1.5t13.5 3.5q-21 3 -34 12t-21 21.5t-14.5 28.5t-14.5 33l-13 -11.5t-5 -11.5zM1273 517q14 -9 24.5 -17t19 -18.5t16 -25.5t15.5 -38l10 15.5t3 9.5q0 12 -10 25t-22 23.5t-22.5 17.5t-12.5 8h-21zM15 350q0 34 6.5 73.5t17 76.5t23 68.5t24.5 50.5q7 11 21 35 t32.5 52t39.5 55t41 44q24 19 36.5 31l19.5 18.5t10.5 8.5t8.5 2q3 0 11 -6.5t8 -10.5q0 -7 -4.5 -12t-12 -11.5t-17 -16.5t-20.5 -27q2 3 -4.5 -11.5l-14 -32.5t-13 -34t-1.5 -16q3 0 18.5 4.5t36 14.5t43 24t41.5 34q57 59 85.5 93.5t36.5 34.5q6 0 33 -17t61 -47 t68.5 -70.5t55.5 -87.5q15 -32 25 -59.5t17 -56.5t10 -61t3 -73q0 -28 -7.5 -69t-27 -87t-52 -94.5t-83.5 -92.5q-19 -17 -46.5 -33t-57.5 -29t-60.5 -21t-54.5 -8q-56 0 -118.5 22t-115.5 67t-88 113.5t-35 161.5zM41 337q0 -30 12.5 -75t38.5 -89.5t66 -81t95 -49.5 q-88 74 -131.5 163t-43.5 212q0 59 19.5 116.5t44 105.5t47 83.5t27.5 50.5q-14 -11 -43 -52t-58.5 -100.5t-51.5 -133t-22 -150.5zM171 448q0 -40 5 -72.5t12 -60.5t15 -53t13 -51q14 8 22.5 39t12.5 67t5 68.5t1 42.5q-3 29 -5.5 49t5.5 48v138l-17 3q-8 -5 -18.5 -7 t-13.5 -5q-2 -3 -8 -34.5l-12.5 -69l-11.5 -69t-5 -33.5zM236 171q0 -27 26 -51.5t59 -43t63.5 -29.5t38.5 -11q4 0 7 1t7 1l3 690q0 18 -9 21.5t-22 7.5q0 -63 0.5 -115.5t0.5 -102t-0.5 -102t-2.5 -115.5q-1 -43 -28 -68.5t-58.5 -41t-58 -24t-26.5 -17.5zM275 239 q16 12 23.5 39t10 55t2 50t-0.5 23l-3 284q-22 -10 -24 -23t-2 -40q0 -57 -0.5 -103.5t-1.5 -90.5l-2 -90.5t-2 -103.5zM433 785q44 -21 83 -73t68.5 -113t46.5 -120.5t19 -96.5q2 -38 0.5 -65l-3.5 -65q10 47 20.5 83.5t10.5 78.5q0 27 -9.5 75t-34.5 103t-68.5 110.5 t-111.5 98.5h-12q-1 0 -4.5 -6.5t-4.5 -9.5zM461 38h16q19 11 43.5 34.5t46.5 56.5t37 75t15 90q0 9 -9.5 15.5t-22 10t-26 5.5t-21.5 2q-23 0 -38 -7.5t-24 -16.5t-13 -17t-4 -10v-238zM461 339q24 8 41 15.5t42 7.5t37 -3.5t38 -12.5v40q-3 12 -4 20t-2.5 16.5t-5 19 t-11.5 27.5q-10 -8 -30 -13t-38 -5q-19 0 -33 3.5t-34 7.5v-123zM461 523q0 -9 8.5 -17t19 -13.5t21 -8.5t14.5 -3q3 0 14 2.5t22 6.5t20 10t9 12q0 24 -16 56.5t-37 63.5t-41.5 55.5t-29.5 30.5q-1 -56 -3.5 -97t-0.5 -98z" />
<glyph unicode="&#x153;" horiz-adv-x="745" d="M408.5 43.5q0.5 9.5 10.5 22.5t22.5 27.5t14.5 29.5q2 6 1.5 23t-2 35.5t-2.5 33.5t-1 18q0 4 2 6.5t2 5.5v240q4 6 7 7t11 3t23.5 9.5t43.5 27.5q32 16 65 19.5t59.5 -9.5t43.5 -45.5t17 -88.5q0 -15 -25 -43t-55.5 -56.5l-56 -52t-25.5 -29.5q0 -18 6 -40t15.5 -41 t21 -32t21.5 -13q5 0 17 15.5l25 33.5l25 33.5t17 15.5q7 0 11 -5.5t7 -7.5l-149 -207q-4 3 -9.5 8t-16.5 16.5l-31 31.5l-53 53q-9 -8 -18 -22l-24 -36q-21 4 -20.5 13.5zM474.5 352.5q0.5 -37.5 3 -63.5t2.5 -16q0 -75 3 -110.5t13.5 -55t30 -34.5t51.5 -48q2 5 3.5 6.5 t4.5 5.5q-14 22 -26 34.5t-21.5 20.5t-16 14.5t-7.5 16.5q-3 18 -3.5 42.5t-0.5 49.5t0.5 47t-0.5 35q-3 45 -1.5 78l2.5 54t-1 31.5t-13 10.5q-15 -10 -19.5 -45.5t-4 -73zM569 308.5q0 -7.5 1 -11.5t3 -6t5 -7q8 10 24 26.5l26.5 27l12.5 12.5l-38 78t-29 45 q0 -59 -2.5 -93.5t-2.5 -48.5v-22.5zM589 515q1 -4 12 -28.5t24.5 -50.5t26.5 -43.5t20 -5.5l-46.5 96t-32.5 41zM15 464q14 7 28.5 9.5t30.5 10.5q53 24 81.5 42.5t42.5 30.5t18.5 18.5t10.5 6.5q-3 0 17 -2.5t45 -5t47 -5l22 -2.5q4 0 7.5 -3t11.5 -6q-4 -14 -14.5 -31 t-12.5 -63q-1 -32 -1.5 -57.5l-1 -50l-1 -50.5t-0.5 -57q6 -12 6.5 -25t0 -28.5t1.5 -34.5t11 -42q-75 -48 -114 -76.5t-68 -33t-61 16t-95 69.5v330q0 5 -4 14t-8 25zM50 126q8 -15 21.5 -29t28 -27l28 -25t22.5 -24l11.5 6.5t6.5 4.5q-5 16 -18.5 29.5t-28.5 25.5 l-28.5 22.5t-18.5 21.5q-2 2 -1.5 8.5l1.5 20.5t1.5 37t-1.5 59q-2 29 -1.5 58.5t0.5 55.5t-1.5 47.5t-5.5 34.5q-4 -3 -11 -3zM148 299q4 -47 4.5 -72t1 -38t2.5 -19t9.5 -14.5t22 -23.5t40.5 -46v331q-26 25 -42 37l-33 26zM168 499q45 -28 63.5 -47t23 -34t0.5 -29.5 t-4 -33.5q0 -38 0.5 -69l1 -61l1 -61t1.5 -69q4 2 7.5 2.5t7.5 1.5v337q0 5 -12 17.5t-26.5 25.5t-27.5 23t-16 10q-7 0 -12 -4.5t-8 -8.5z" />
<glyph unicode="&#x2000;" horiz-adv-x="474" />
<glyph unicode="&#x2001;" horiz-adv-x="948" />
<glyph unicode="&#x2002;" horiz-adv-x="474" />
<glyph unicode="&#x2003;" horiz-adv-x="948" />
<glyph unicode="&#x2004;" horiz-adv-x="316" />
<glyph unicode="&#x2005;" horiz-adv-x="237" />
<glyph unicode="&#x2006;" horiz-adv-x="158" />
<glyph unicode="&#x2007;" horiz-adv-x="158" />
<glyph unicode="&#x2008;" horiz-adv-x="118" />
<glyph unicode="&#x2009;" horiz-adv-x="189" />
<glyph unicode="&#x200a;" horiz-adv-x="52" />
<glyph unicode="&#x2010;" d="M15 227q3 12 7.5 27t9.5 29.5t10.5 26.5t9.5 16l253 7l1.5 -6t1.5 -5q0 -41 -20.5 -68t-62.5 -27h-210zM48 251q14 3 20.5 8.5t9.5 11.5t5 11t8 8t16.5 0t31 -5t53 -0.5t81.5 13.5l-202 4q-9 -20 -12 -29.5t-11 -21.5z" />
<glyph unicode="&#x2011;" d="M15 227q3 12 7.5 27t9.5 29.5t10.5 26.5t9.5 16l253 7l1.5 -6t1.5 -5q0 -41 -20.5 -68t-62.5 -27h-210zM48 251q14 3 20.5 8.5t9.5 11.5t5 11t8 8t16.5 0t31 -5t53 -0.5t81.5 13.5l-202 4q-9 -20 -12 -29.5t-11 -21.5z" />
<glyph unicode="&#x2012;" d="M15 227q3 12 7.5 27t9.5 29.5t10.5 26.5t9.5 16l253 7l1.5 -6t1.5 -5q0 -41 -20.5 -68t-62.5 -27h-210zM48 251q14 3 20.5 8.5t9.5 11.5t5 11t8 8t16.5 0t31 -5t53 -0.5t81.5 13.5l-202 4q-9 -20 -12 -29.5t-11 -21.5z" />
<glyph unicode="&#x2013;" horiz-adv-x="500" d="M15 227v106h470v-106h-470z" />
<glyph unicode="&#x2014;" horiz-adv-x="1000" d="M15 227v106h970v-106h-970z" />
<glyph unicode="&#x2018;" horiz-adv-x="199" d="M15 803q0 36 26.5 51.5t58 13t58 -22.5t26.5 -56q0 -8 -11 -17.5t-24.5 -19t-24.5 -18.5t-11 -16q0 -1 9 -17t32 -52v-23h-24q-27 56 -48.5 85.5t-36.5 45t-22.5 24.5t-7.5 22zM46 801q25 -18 33 -34.5t19 -16.5q5 0 5.5 5t5.5 6q-18 18 -27.5 26.5t-9.5 13.5 q0 8 4.5 12.5t10.5 7.5t10.5 6.5t4.5 10.5t-6 5t-14.5 -8.5t-18 -16z" />
<glyph unicode="&#x2019;" horiz-adv-x="197" d="M15 795l56.5 61.5t30.5 27.5l55.5 -51t24.5 -24q0 -5 -3 -10t-11.5 -14.5l-22 -25l-34.5 -41.5q-20 -24 -30 -41t-15 -27t-8 -14.5t-8 -4.5q-14 0 -14 17q0 3 6.5 14.5l14.5 25l14.5 25.5t6.5 15q0 12 -10 20t-21.5 14.5t-21.5 14t-10 18.5zM48 796q9 -6 17.5 -14 t16.5 -14t15.5 -8t13.5 4q-18 13 -25.5 23.5t-7.5 11.5q0 2 5 9t11.5 14l11.5 12.5l5 5.5q-11 10 -23 -3t-40 -41z" />
<glyph unicode="&#x201c;" horiz-adv-x="401" d="M15 803q0 36 26.5 51.5t58 13t58 -22.5t26.5 -56q0 -8 -11 -17.5t-24.5 -19t-24.5 -18.5t-11 -16q0 -1 9 -17t32 -52v-23h-24q-27 56 -48.5 85.5t-36.5 45t-22.5 24.5t-7.5 22zM46 801q25 -18 33 -34.5t19 -16.5q5 0 5.5 5t5.5 6q-18 18 -27.5 26.5t-9.5 13.5 q0 8 4.5 12.5t10.5 7.5t10.5 6.5t4.5 10.5t-6 5t-14.5 -8.5t-18 -16zM217 799q0 36 26.5 51.5t58 13t58 -22.5t26.5 -56q0 -8 -11 -17.5t-24.5 -19t-24.5 -18.5t-11 -16q0 -1 9 -17t32 -52v-23h-24q-27 56 -48.5 85.5t-36.5 45t-22.5 24.5t-7.5 22zM248 797q25 -18 33 -34.5 t19 -16.5q5 0 5.5 5t5.5 6q-18 18 -27.5 26.5t-9.5 13.5q0 8 4.5 12.5t10.5 7.5t10.5 6.5t4.5 10.5t-6 5t-14.5 -8.5t-18 -16z" />
<glyph unicode="&#x201d;" horiz-adv-x="381" d="M15 795l56.5 61.5t30.5 27.5l55.5 -51t24.5 -24q0 -5 -3 -10t-11.5 -14.5l-22 -25l-34.5 -41.5q-20 -24 -30 -41t-15 -27t-8 -14.5t-8 -4.5q-14 0 -14 17q0 3 6.5 14.5l14.5 25l14.5 25.5t6.5 15q0 12 -10 20t-21.5 14.5t-21.5 14t-10 18.5zM48 796q9 -6 17.5 -14 t16.5 -14t15.5 -8t13.5 4q-18 13 -25.5 23.5t-7.5 11.5q0 2 5 9t11.5 14l11.5 12.5l5 5.5q-11 10 -23 -3t-40 -41zM199 792l56.5 61.5t30.5 27.5l55.5 -51t24.5 -24q0 -5 -3 -10t-11.5 -14.5l-22 -25l-34.5 -41.5q-20 -24 -30 -41t-15 -27t-8 -14.5t-8 -4.5q-14 0 -14 17 q0 3 6.5 14.5l14.5 25l14.5 25.5t6.5 15q0 12 -10 20t-21.5 14.5t-21.5 14t-10 18.5zM232 793q9 -6 17.5 -14t16.5 -14t15.5 -8t13.5 4q-18 13 -25.5 23.5t-7.5 11.5q0 2 5 9t11.5 14l11.5 12.5l5 5.5q-11 11 -23 -1.5z" />
<glyph unicode="&#x2026;" horiz-adv-x="570" d="M395 47l41.5 57.5l34.5 47.5l15.5 -16l28.5 -31l27.5 -32.5t12.5 -19.5q0 -8 -22.5 -37.5t-56.5 -61.5q-6 4 -19 17.5l-27 29t-24.5 29t-10.5 17.5zM432 42q11 -8 25 -22.5t19 -22.5q7 5 9 7.5t3 3.5q-9 17 -19.5 28t-10.5 18q0 9 8 13t13 25q-3 3 -8 -2.5t-12 -14.5 l-14 -18.5t-13 -14.5zM205 47l41.5 57.5l34.5 47.5l15.5 -16l28.5 -31l27.5 -32.5t12.5 -19.5q0 -8 -22.5 -37.5t-56.5 -61.5q-6 4 -19 17.5l-27 29t-24.5 29t-10.5 17.5zM242 42q11 -8 25 -22.5t19 -22.5q7 5 9 7.5t3 3.5q-9 17 -19.5 28t-10.5 18q0 9 8 13t13 25 q-3 3 -8 -2.5t-12 -14.5l-14 -18.5t-13 -14.5zM15 47l41.5 57.5l34.5 47.5l15.5 -16l28.5 -31l27.5 -32.5t12.5 -19.5q0 -8 -22.5 -37.5t-56.5 -61.5q-6 4 -19 17.5l-27 29t-24.5 29t-10.5 17.5zM52 42q11 -8 25 -22.5t19 -22.5q7 5 9 7.5t3 3.5q-9 17 -19.5 28t-10.5 18 q0 9 8 13t13 25q-3 3 -8 -2.5t-12 -14.5l-14 -18.5t-13 -14.5z" />
<glyph unicode="&#x202f;" horiz-adv-x="189" />
<glyph unicode="&#x205f;" horiz-adv-x="237" />
<glyph unicode="&#x2122;" horiz-adv-x="1831" d="M661 431q0 44 16 73t35 49t35 33.5t16 26.5q0 6 -4.5 15t-10 23.5t-10.5 36t-5 52.5q0 37 17 66t41 49t49 30.5t41 10.5q33 0 52.5 -12.5t31 -32t17.5 -41.5l11 -41.5t12 -32t20 -12.5q10 0 22.5 7t12.5 28q0 12 7.5 21.5t8.5 28.5q0 2 -4.5 17.5t-4.5 41.5q3 1 5 2l4 2 q7 -15 9 -27.5t2 -28.5q0 -32 -10 -61.5t-27.5 -52t-41 -36.5t-51.5 -14q-43 0 -61 28t-27.5 62t-20 62.5t-38.5 28.5q-19 0 -40.5 -26t-21.5 -65l2.5 -19.5t9 -41.5t18 -39.5t29.5 -14.5q12 2 31.5 4.5t37.5 0t31 -11t13 -28.5q0 -12 -9 -19.5t-20 -12t-20.5 -6t-11.5 -1.5 q-13 0 -24.5 6.5t-21.5 13.5l-18.5 13.5t-14.5 6.5q-16 0 -33.5 -19.5t-32 -45t-24 -50t-9.5 -33.5q0 -56 23 -94.5t48 -58.5q36 -28 60 -34.5t40.5 -5t28 5t21.5 -4.5q-22 -15 -50 -15q-19 0 -51.5 7.5t-63.5 29t-53.5 59t-22.5 97.5zM735 5q0 85 39 127.5t100 42.5 q21 0 37.5 -9.5t29 -20.5t21.5 -20t14 -9q33 0 44.5 25.5t11.5 47.5v116q-17 11 -28 11q-19 0 -41 -19t-22 -56q-11 -5 -17 2t-9.5 19t-4.5 24t-1 16q0 12 5 31t18.5 37t36.5 31t59 13q4 24 -3 34.5t-32 10.5q-45 0 -69.5 -14.5t-36.5 -34.5t-15.5 -41l-5.5 -33h-12 q-11 24 -13.5 40t-2.5 37q0 47 17 75.5t44 45t61 22t68 5.5q0 39 8 67t22.5 49t34 38l41.5 35q25 19 37.5 25t17.5 10q3 2 24 19.5l44.5 38l42.5 37l19 16.5q26 0 43.5 -20t31 -48.5t26.5 -59.5t31 -54q20 20 39 51t35.5 61l29.5 52t20 22q32 0 46.5 -12.5t20.5 -29.5 t7.5 -33.5t7.5 -24t20 -1.5t45 34q0 -2 1.5 -3.5t1.5 -3.5q0 -9 -6.5 -19.5l-14.5 -24.5t-15 -32t-7 -40q-1 -80 0 -161.5t2.5 -150.5t3.5 -118t2 -63q0 -4 4 -14t10.5 -21t15.5 -19.5t18 -8.5q4 0 12.5 10l18 21.5l18.5 21.5t14 10q11 0 13 -6.5t2 -10.5q0 4 -10.5 -9.5 l-26.5 -35.5l-34.5 -49l-34.5 -50.5l-27 -39.5l-11 -16q-8 0 -26 27t-62 81q-18 21 -25 40t-9.5 32.5t-3 21.5t-4.5 8q-9 0 -23 -31.5t-29 -69.5t-29.5 -69.5t-25.5 -31.5l-116 130q-4 -3 -7 -8t-7.5 -16l-12.5 -29.5t-23 -48.5h-9l-12 13q31 53 43 99t13 73t2 49.5 t1.5 43.5t0.5 43.5v49.5q0 15 -6.5 20.5t-17 6.5t-24 0.5t-26.5 3.5q-2 -6 -2 -19t0.5 -39t1 -69t0.5 -110q0 -19 -8.5 -38.5t-8.5 -54.5q0 -12 -8.5 -31t-27 -38t-48 -32.5t-70.5 -13.5q-9 0 -31 6.5l-47.5 13.5l-48.5 13.5t-34 6.5q-18 0 -39.5 -7t-40 -20.5t-30.5 -32.5 t-12 -43q0 -22 13.5 -52.5t43.5 -58.5t77.5 -47t114.5 -19q28 0 56 8t50.5 19t36 21.5t13.5 16.5q-20 51 -20 94q0 35 20.5 61.5t41.5 26.5q20 0 26 -21t6 -41q0 -30 -6.5 -52.5t-14.5 -38t-14.5 -23.5t-6.5 -10q0 -6 12.5 -19t34.5 -27t53 -24t67 -10q42 0 70 11.5 t44.5 30.5t23 44t6.5 51q0 42 -14.5 61l-27.5 37v11q3 5 13.5 1.5t22.5 -16.5t21.5 -37t9.5 -60q0 -76 -48 -123.5t-123 -47.5q-34 0 -61.5 11.5t-50 26.5t-39.5 31t-29 25q-37 -35 -79.5 -49t-84.5 -14q-33 0 -60.5 6t-48.5 12.5t-36 12.5t-23 6q-2 0 -23.5 14t-46.5 43.5 t-45 75t-20 107.5zM772 -16q16 25 36.5 40t38.5 23t30.5 10.5t14.5 2.5q16 0 32.5 -4t29.5 -9q-21 23 -47.5 31.5t-31.5 8.5q-38 0 -63.5 -32t-39.5 -71zM819 600q15 -8 25.5 -15t19.5 -7q12 0 16.5 1.5t17.5 8.5v19q-15 2 -19.5 3.5t-21.5 1.5q-9 0 -16.5 -1t-21.5 -11z M835 848q29 -14 36.5 -35.5t12 -45.5t14.5 -47.5t43 -40.5h13q-23 38 -32.5 70l-16 55.5t-15.5 36.5t-31 13q-4 0 -10 -2t-14 -4zM881 451q29 11 40 17t21 9.5t26 5t56 3.5v19h-59q-25 -14 -42 -29t-42 -25zM954 327q0 6 11 8.5t24.5 3.5t25 0.5t13.5 -0.5v16q-3 1 -8 3.5 t-10 2.5q-1 0 -10 -1.5t-19 -5.5t-18.5 -10.5t-8.5 -16.5zM1000 87q22 -26 46 -44t53 -18q33 0 55 22t35 53.5t18.5 67t5.5 61.5v509q0 22 -5.5 20t-12 -14t-12 -27t-5.5 -19v-141q0 -49 4 -103t4.5 -106t-5.5 -99.5t-26 -83.5t-57 -57t-98 -21zM1043 126q6 7 12.5 11.5 t11 12.5t8 22.5t3.5 41.5q2 64 2 117t-1 103.5l-2 103t-1 117.5q-14 -21 -20.5 -44t-7.5 -39q-2 -60 -1 -108.5t2.5 -95t2.5 -95t0 -108.5q0 -11 -3.5 -18.5t-5.5 -20.5zM1185 -107q0 -14 4 -24t13 -23l23 46.5t12 48.5q0 16 -0.5 19.5t-15.5 12.5q-16 -18 -26 -42.5 t-10 -37.5zM1228 777l6 -315q16 29 24.5 60.5t10.5 41.5h26l3.5 17t1.5 17q0 76 -17 121t-55 58zM1249 809q12 -21 25 -35.5t24 -29t18 -31.5t7 -43v-456q0 -22 12.5 -45t29.5 -44.5t35 -39l30 -29.5q2 2 8.5 13t6.5 12q0 15 -14 26t-31 26t-31 37t-13 59q2 58 0.5 105 l-3 92.5t-2.5 92.5t0 105q1 54 -6.5 92t-20 62t-27.5 35t-30 11q-4 0 -9 -5t-9 -10zM1265 462q15 -4 30 -4q2 5 3.5 8t1.5 8q0 14 -5 14.5t-11 -4.5t-11.5 -12t-7.5 -10zM1441 434q2 -21 2 -61.5t4 -80t15 -69.5t35 -30q19 34 34.5 57.5t17.5 46.5q2 55 2 101t-0.5 89.5 t-2.5 89.5t-3 102q-2 13 -8 33t-20 38h-12q-10 -26 -21 -37.5t-20.5 -22.5t-16 -27t-6.5 -50q0 -11 3 -27t3 -18q33 0 53.5 2.5t41.5 -2.5v-17q-27 -49 -30.5 -69.5t-5 -28t-12.5 -8.5t-53 -11zM1441 483q0 -5 2 -8t4 -9h28q4 8 6.5 14.5t4.5 16.5h-24q-7 0 -14 -4.5 t-7 -9.5zM1525 777q31 -26 39 -57.5t9 -72.5q3 -66 3 -120.5t-1 -106t-1.5 -106t1.5 -121.5q1 -19 14 -43.5t29.5 -46.5t30.5 -38t17 -18q5 7 8.5 12.5t3.5 20.5q0 18 -11 26.5t-24 22.5t-24 40.5t-11 79.5v406q0 45 -8.5 74.5t-20 47.5t-21.5 26t-13 10q-5 -11 -10.5 -19 t-9.5 -17zM15 731q0 27 10 64.5t34 71.5t63 57.5t97 23.5q30 0 65 -10l73.5 -21.5t79 -21.5t82.5 -10q29 0 57 13t31 46q18 -10 16 -13.5t-2 -21.5q0 -46 -17 -77t-37.5 -50.5t-38.5 -29.5t-20 -15q-2 -19 -3 -41.5t-1 -48.5v-498q27 19 49.5 57t35 84.5t13 95.5t-15.5 90 q5 2 8.5 5.5t8.5 3.5q8 0 18 -30.5t10 -95.5t-20 -127.5t-57.5 -111.5t-90.5 -79t-119 -30q-46 0 -99 16.5t-98 52t-75 91t-30 134.5q0 19 5 56.5t20.5 84t44.5 97.5t77 96q-4 0 -5 2t-2 2q-4 0 -22.5 -10t-49.5 -10q-41 0 -68 31.5t-27 76.5zM46 725q0 -21 8.5 -35 t19 -22.5t20 -11.5t12.5 -3q10 0 25 4.5t29.5 14t25 24t10.5 34.5q0 6 -2.5 16t-2.5 19h26q0 -2 2 -10t4 -17t3.5 -17t1.5 -10q0 -17 -5.5 -26.5t-11.5 -22.5q10 12 27.5 24t35 22t31.5 16.5t18 6.5q6 0 8.5 -3t2.5 -14q-77 -51 -107.5 -124t-30.5 -161q0 -95 16.5 -142.5 t30.5 -63.5q16 16 24 35.5t8 35.5v171q0 55 -0.5 90.5t11 63.5t40 53.5t87.5 61.5l-292 68q-30 -4 -52.5 -22t-22.5 -55zM68 312q0 -34 11 -74.5t34.5 -78t60.5 -67.5t89 -43q-33 18 -63 42t-52.5 59.5t-36 84.5t-13.5 118q0 60 9 84t9 34t4 24t10 28.5t12 27.5t10 20 q-33 -59 -50 -101.5t-24.5 -72.5t-8.5 -50t-1 -35zM85 829q39 5 87 -4.5t97.5 -22.5l96.5 -24.5t84 -11.5h27t14 2t15 6t30 12q-102 0 -156.5 11t-88 24l-60 24t-72.5 11q-24 0 -39.5 -8t-34.5 -19zM256 196q10 -20 29 -38t41 -31.5t45 -21.5t43 -8q35 0 53 21t18 74v542 h-25q-9 -22 -21.5 -42.5t-17.5 -40.5q-7 -36 -6.5 -86t2.5 -102t1 -99t-12 -77q-9 -23 -26 -39.5t-38 -27.5t-43.5 -17t-42.5 -7zM299 251q13 12 20.5 29.5t11.5 35.5t5.5 33.5t1.5 24.5v269q-27 -44 -29.5 -83.5t-2.5 -91.5v-193q0 -7 -2.5 -12t-4.5 -12z" />
<glyph unicode="&#xe000;" horiz-adv-x="610" d="M0 610h610v-610h-610v610z" />
<glyph unicode="&#xfb01;" horiz-adv-x="659" d="M396 40q0 2 10 8.5t22 23.5t21.5 47t9.5 78v224q0 1 -5 16t-15 15q-6 0 -11.5 -6.5t-12.5 -13.5h-11q-1 5 -2.5 8.5t-1.5 8.5l69 85t33 37l9.5 -10l21 -23t22 -23.5t12.5 -10.5q7 0 14.5 11t11.5 15h16q1 -22 -14 -38t-19 -28q0 -1 -0.5 -17.5t-1.5 -42.5t-1.5 -59 t-0.5 -68q0 -17 -0.5 -43.5t1.5 -52t8.5 -44t20.5 -18.5q6 0 10 6.5t12 16.5h15q5 -8 5 -14t-15 -26.5t-34 -42.5t-36 -39.5t-20 -17.5q-15 0 -29.5 20t-46.5 57q-25 -22 -43 -51h-20q0 3 -2 6t-2 6zM438 764q0 1 14.5 17.5l33 36l35 35.5t20.5 16q2 0 13 -14l23 -30.5 l22 -31.5t10 -16q0 -5 -12 -19.5t-28.5 -31.5t-35 -32.5t-31.5 -21.5q-14 28 -26 42.5t-20.5 22.5t-13 13t-4.5 14zM463 481q0 -11 8 -14t12 -11q2 -4 1.5 -18.5t-2 -31t-3 -30.5t-1.5 -15v-121q0 -66 0.5 -93.5t5.5 -40.5t16.5 -24.5t32.5 -45.5q3 4 9 10.5t6 11.5 q0 10 -6 18t-13.5 15.5t-15 16t-11.5 18.5q-5 14 -4 55.5t3.5 92t4.5 100.5t0 82q-1 6 -7.5 16.5t-14.5 17.5t-14.5 6.5t-6.5 -15.5zM476 763q3 -3 8 -10.5t11 -15.5t12.5 -14.5t11.5 -6.5q8 0 7 6.5t-4.5 16t-6.5 19.5t0 17q4 13 17.5 22t13.5 22q0 18 -10 12.5 t-22.5 -19.5t-23.5 -29.5zM15 448q1 58 27 75t60 17q1 31 -2 60t5 73q50 57 99 99t99 42q28 0 45.5 -21t17.5 -47q0 -18 -4 -29t-10.5 -18t-14.5 -12.5t-17 -13.5h-59q0 6 -2 7t-2 3t12 12.5t12 26.5q0 6 -8 19t-24 13q-14 0 -23.5 -8t-11.5 -34q-2 -23 -2.5 -41.5 t-0.5 -36.5t0.5 -37t2.5 -42q1 -18 12 -22t26.5 -3t33.5 2.5t34 -5.5q-8 -31 -17.5 -49t-13.5 -49h-78v-191q0 -4 -3 -6t-3 -6q0 -5 4.5 -4.5t4.5 -0.5q1 -22 0 -34t1 -22t9.5 -21t25.5 -30q20 15 36.5 45t37.5 51q4 -7 12 -13l-125 -211q-12 7 -25 21.5l-26.5 31l-26.5 33 t-24 27.5q-15 -11 -26 -31.5t-29 -42.5h-12q0 3 -2.5 4.5t-2.5 3.5q0 1 9 16l20.5 33t20.5 34t9 19q2 5 3 12.5t1.5 23t1 41t0.5 65.5v157q-20 1 -33 0.5t-33 -0.5q-5 0 -13 2t-8 12zM50 464h46q-12 9 -25.5 10.5t-20.5 -10.5zM120 138q0 -4 10.5 -19.5t25 -33.5t29 -34 t22.5 -22q3 9 12 20q-33 40 -47.5 61.5t-18.5 37.5t-2 34t1 50q-2 67 -2 122t1 107.5t2.5 107.5t2.5 122q-13 -7 -19 -16t-7.5 -25t-1 -42.5t-0.5 -67.5q-1 -59 -2.5 -107l-3 -94t-2 -94t-0.5 -107zM219 464q15 -3 28.5 -4t26.5 9q-18 4 -30.5 4.5t-24.5 -9.5zM274 775 q19 -14 22.5 -34.5t-4.5 -43.5h13q9 13 16.5 25t7.5 24q0 18 -12 28t-25 10q-6 0 -9.5 -3t-8.5 -6z" />
<glyph unicode="&#xfb02;" horiz-adv-x="677" d="M409 677q-5 6 2.5 31t21 53t29 50t26.5 22q14 0 29 -18l48 -56q16 18 18.5 23t9.5 16q6 0 5 -11.5t-4.5 -24.5t-7.5 -23t-4 -8q-2 -71 -3.5 -129.5t-2.5 -114.5t-1 -115t2 -131q1 -35 4 -55.5t8.5 -32t12 -18l14.5 -14.5l14 17t15 15.5t12 4.5t5 -15q0 -48 -11 -72 t-29 -33t-40 -5.5t-43 10.5t-39.5 14.5t-29.5 7.5q-3 0 -11 -8.5t-22 -19.5h-12q-1 4 -3 6t-2 5q0 7 7 15l15.5 17t15.5 19t7 22q1 73 0.5 153t-2 156t-3 141.5t-1.5 109.5q0 21 -6 25.5t-14 -0.5t-16.5 -14t-13.5 -15zM452 737q1 -2 15.5 -18t15.5 -34q3 -69 4.5 -126 t1.5 -111.5v-111.5t1 -126q-5 -63 -2 -89.5t12.5 -37.5t23.5 -18t30 -31q11 14 11 18q0 8 -8.5 15.5l-18.5 17t-18.5 22.5t-8.5 32v570q0 17 -16.5 32t-27.5 22q-3 -7 -6.5 -13t-8.5 -13zM15 448q1 58 27 75t60 17q1 31 -2 60t5 73q50 57 99 99t99 42q28 0 45.5 -21 t17.5 -47q0 -18 -4 -29t-10.5 -18t-14.5 -12.5t-17 -13.5h-59q0 6 -2 7t-2 3t12 12.5t12 26.5q0 6 -8 19t-24 13q-14 0 -23.5 -8t-11.5 -34q-2 -23 -2.5 -41.5t-0.5 -36.5t0.5 -37t2.5 -42q1 -18 12 -22t26.5 -3t33.5 2.5t34 -5.5q-8 -31 -17.5 -49t-13.5 -49h-78v-191 q0 -4 -3 -6t-3 -6q0 -5 4.5 -4.5t4.5 -0.5q1 -22 0 -34t1 -22t9.5 -21t25.5 -30q20 15 36.5 45t37.5 51q4 -7 12 -13l-125 -211q-12 7 -25 21.5l-26.5 31l-26.5 33t-24 27.5q-15 -11 -26 -31.5t-29 -42.5h-12q0 3 -2.5 4.5t-2.5 3.5q0 1 9 16l20.5 33t20.5 34t9 19 q2 5 3 12.5t1.5 23t1 41t0.5 65.5v157q-20 1 -33 0.5t-33 -0.5q-5 0 -13 2t-8 12zM50 464h46q-12 9 -25.5 10.5t-20.5 -10.5zM120 138q0 -4 10.5 -19.5t25 -33.5t29 -34t22.5 -22q3 9 12 20q-33 40 -47.5 61.5t-18.5 37.5t-2 34t1 50q-2 67 -2 122t1 107.5t2.5 107.5 t2.5 122q-13 -7 -19 -16t-7.5 -25t-1 -42.5t-0.5 -67.5q-1 -59 -2.5 -107l-3 -94t-2 -94t-0.5 -107zM219 464q15 -3 28.5 -4t26.5 9q-18 4 -30.5 4.5t-24.5 -9.5zM274 775q19 -14 22.5 -34.5t-4.5 -43.5h13q9 13 16.5 25t7.5 24q0 18 -12 28t-25 10q-6 0 -9.5 -3t-8.5 -6z " />
<glyph unicode="&#xfb03;" horiz-adv-x="1040" d="M777 40q0 2 10 8.5t22 23.5t21.5 47t9.5 78v224q0 1 -5 16t-15 15q-6 0 -11.5 -6.5t-12.5 -13.5h-11q-1 5 -2.5 8.5t-1.5 8.5l69 85t33 37l9.5 -10l21 -23t22 -23.5t12.5 -10.5q7 0 14.5 11t11.5 15h16q1 -22 -14 -38t-19 -28q0 -1 -0.5 -17.5t-1.5 -42.5t-1.5 -59 t-0.5 -68q0 -17 -0.5 -43.5t1.5 -52t8.5 -44t20.5 -18.5q6 0 10 6.5t12 16.5h15q5 -8 5 -14t-15 -26.5t-34 -42.5t-36 -39.5t-20 -17.5q-15 0 -29.5 20t-46.5 57q-25 -22 -43 -51h-20q0 3 -2 6t-2 6zM819 764q0 1 14.5 17.5l33 36l35 35.5t20.5 16q2 0 13 -14l23 -30.5 l22 -31.5t10 -16q0 -5 -12 -19.5t-28.5 -31.5t-35 -32.5t-31.5 -21.5q-14 28 -26 42.5t-20.5 22.5t-13 13t-4.5 14zM844 481q0 -11 8 -14t12 -11q2 -4 1.5 -18.5t-2 -31t-3 -30.5t-1.5 -15v-121q0 -66 0.5 -93.5t5.5 -40.5t16.5 -24.5t32.5 -45.5q3 4 9 10.5t6 11.5 q0 10 -6 18t-13.5 15.5t-15 16t-11.5 18.5q-5 14 -4 55.5t3.5 92t4.5 100.5t0 82q-1 6 -7.5 16.5t-14.5 17.5t-14.5 6.5t-6.5 -15.5zM857 763q3 -3 8 -10.5t11 -15.5t12.5 -14.5t11.5 -6.5q8 0 7 6.5t-4.5 16t-6.5 19.5t0 17q4 13 17.5 22t13.5 22q0 18 -10 12.5 t-22.5 -19.5t-23.5 -29.5zM396 448q1 58 27 75t60 17q1 31 -2 60t5 73q50 57 99 99t99 42q28 0 45.5 -21t17.5 -47q0 -18 -4 -29t-10.5 -18t-14.5 -12.5t-17 -13.5h-59q0 6 -2 7t-2 3t12 12.5t12 26.5q0 6 -8 19t-24 13q-14 0 -23.5 -8t-11.5 -34q-2 -23 -2.5 -41.5 t-0.5 -36.5t0.5 -37t2.5 -42q1 -18 12 -22t26.5 -3t33.5 2.5t34 -5.5q-8 -31 -17.5 -49t-13.5 -49h-78v-191q0 -4 -3 -6t-3 -6q0 -5 4.5 -4.5t4.5 -0.5q1 -22 0 -34t1 -22t9.5 -21t25.5 -30q20 15 36.5 45t37.5 51q4 -7 12 -13l-125 -211q-12 7 -25 21.5l-26.5 31l-26.5 33 t-24 27.5q-15 -11 -26 -31.5t-29 -42.5h-12q0 3 -2.5 4.5t-2.5 3.5q0 1 9 16l20.5 33t20.5 34t9 19q2 5 3 12.5t1.5 23t1 41t0.5 65.5v157q-20 1 -33 0.5t-33 -0.5q-5 0 -13 2t-8 12zM431 464h46q-12 9 -25.5 10.5t-20.5 -10.5zM501 138q0 -4 10.5 -19.5t25 -33.5t29 -34 t22.5 -22q3 9 12 20q-33 40 -47.5 61.5t-18.5 37.5t-2 34t1 50q-2 67 -2 122t1 107.5t2.5 107.5t2.5 122q-13 -7 -19 -16t-7.5 -25t-1 -42.5t-0.5 -67.5q-1 -59 -2.5 -107l-3 -94t-2 -94t-0.5 -107zM600 464q15 -3 28.5 -4t26.5 9q-18 4 -30.5 4.5t-24.5 -9.5zM655 775 q19 -14 22.5 -34.5t-4.5 -43.5h13q9 13 16.5 25t7.5 24q0 18 -12 28t-25 10q-6 0 -9.5 -3t-8.5 -6zM15 448q1 58 27 75t60 17q1 31 -2 60t5 73q50 57 99 99t99 42q28 0 45.5 -21t17.5 -47q0 -18 -4 -29t-10.5 -18t-14.5 -12.5t-17 -13.5h-59q0 6 -2 7t-2 3t12 12.5t12 26.5 q0 6 -8 19t-24 13q-14 0 -23.5 -8t-11.5 -34q-2 -23 -2.5 -41.5t-0.5 -36.5t0.5 -37t2.5 -42q1 -18 12 -22t26.5 -3t33.5 2.5t34 -5.5q-8 -31 -17.5 -49t-13.5 -49h-78v-191q0 -4 -3 -6t-3 -6q0 -5 4.5 -4.5t4.5 -0.5q1 -22 0 -34t1 -22t9.5 -21t25.5 -30q20 15 36.5 45 t37.5 51q4 -7 12 -13l-125 -211q-12 7 -25 21.5l-26.5 31l-26.5 33t-24 27.5q-15 -11 -26 -31.5t-29 -42.5h-12q0 3 -2.5 4.5t-2.5 3.5q0 1 9 16l20.5 33t20.5 34t9 19q2 5 3 12.5t1.5 23t1 41t0.5 65.5v157q-20 1 -33 0.5t-33 -0.5q-5 0 -13 2t-8 12zM50 464h46 q-12 9 -25.5 10.5t-20.5 -10.5zM120 138q0 -4 10.5 -19.5t25 -33.5t29 -34t22.5 -22q3 9 12 20q-33 40 -47.5 61.5t-18.5 37.5t-2 34t1 50q-2 67 -2 122t1 107.5t2.5 107.5t2.5 122q-13 -7 -19 -16t-7.5 -25t-1 -42.5t-0.5 -67.5q-1 -59 -2.5 -107l-3 -94t-2 -94t-0.5 -107z M219 464q15 -3 28.5 -4t26.5 9q-18 4 -30.5 4.5t-24.5 -9.5zM274 775q19 -14 22.5 -34.5t-4.5 -43.5h13q9 13 16.5 25t7.5 24q0 18 -12 28t-25 10q-6 0 -9.5 -3t-8.5 -6z" />
<glyph unicode="&#xfb04;" horiz-adv-x="1058" d="M790 677q-5 6 2.5 31t21 53t29 50t26.5 22q14 0 29 -18l48 -56q16 18 18.5 23t9.5 16q6 0 5 -11.5t-4.5 -24.5t-7.5 -23t-4 -8q-2 -71 -3.5 -129.5t-2.5 -114.5t-1 -115t2 -131q1 -35 4 -55.5t8.5 -32t12 -18l14.5 -14.5l14 17t15 15.5t12 4.5t5 -15q0 -48 -11 -72 t-29 -33t-40 -5.5t-43 10.5t-39.5 14.5t-29.5 7.5q-3 0 -11 -8.5t-22 -19.5h-12q-1 4 -3 6t-2 5q0 7 7 15l15.5 17t15.5 19t7 22q1 73 0.5 153t-2 156t-3 141.5t-1.5 109.5q0 21 -6 25.5t-14 -0.5t-16.5 -14t-13.5 -15zM833 737q1 -2 15.5 -18t15.5 -34q3 -69 4.5 -126 t1.5 -111.5v-111.5t1 -126q-5 -63 -2 -89.5t12.5 -37.5t23.5 -18t30 -31q11 14 11 18q0 8 -8.5 15.5l-18.5 17t-18.5 22.5t-8.5 32v570q0 17 -16.5 32t-27.5 22q-3 -7 -6.5 -13t-8.5 -13zM396 448q1 58 27 75t60 17q1 31 -2 60t5 73q50 57 99 99t99 42q28 0 45.5 -21 t17.5 -47q0 -18 -4 -29t-10.5 -18t-14.5 -12.5t-17 -13.5h-59q0 6 -2 7t-2 3t12 12.5t12 26.5q0 6 -8 19t-24 13q-14 0 -23.5 -8t-11.5 -34q-2 -23 -2.5 -41.5t-0.5 -36.5t0.5 -37t2.5 -42q1 -18 12 -22t26.5 -3t33.5 2.5t34 -5.5q-8 -31 -17.5 -49t-13.5 -49h-78v-191 q0 -4 -3 -6t-3 -6q0 -5 4.5 -4.5t4.5 -0.5q1 -22 0 -34t1 -22t9.5 -21t25.5 -30q20 15 36.5 45t37.5 51q4 -7 12 -13l-125 -211q-12 7 -25 21.5l-26.5 31l-26.5 33t-24 27.5q-15 -11 -26 -31.5t-29 -42.5h-12q0 3 -2.5 4.5t-2.5 3.5q0 1 9 16l20.5 33t20.5 34t9 19 q2 5 3 12.5t1.5 23t1 41t0.5 65.5v157q-20 1 -33 0.5t-33 -0.5q-5 0 -13 2t-8 12zM431 464h46q-12 9 -25.5 10.5t-20.5 -10.5zM501 138q0 -4 10.5 -19.5t25 -33.5t29 -34t22.5 -22q3 9 12 20q-33 40 -47.5 61.5t-18.5 37.5t-2 34t1 50q-2 67 -2 122t1 107.5t2.5 107.5 t2.5 122q-13 -7 -19 -16t-7.5 -25t-1 -42.5t-0.5 -67.5q-1 -59 -2.5 -107l-3 -94t-2 -94t-0.5 -107zM600 464q15 -3 28.5 -4t26.5 9q-18 4 -30.5 4.5t-24.5 -9.5zM655 775q19 -14 22.5 -34.5t-4.5 -43.5h13q9 13 16.5 25t7.5 24q0 18 -12 28t-25 10q-6 0 -9.5 -3t-8.5 -6z M15 448q1 58 27 75t60 17q1 31 -2 60t5 73q50 57 99 99t99 42q28 0 45.5 -21t17.5 -47q0 -18 -4 -29t-10.5 -18t-14.5 -12.5t-17 -13.5h-59q0 6 -2 7t-2 3t12 12.5t12 26.5q0 6 -8 19t-24 13q-14 0 -23.5 -8t-11.5 -34q-2 -23 -2.5 -41.5t-0.5 -36.5t0.5 -37t2.5 -42 q1 -18 12 -22t26.5 -3t33.5 2.5t34 -5.5q-8 -31 -17.5 -49t-13.5 -49h-78v-191q0 -4 -3 -6t-3 -6q0 -5 4.5 -4.5t4.5 -0.5q1 -22 0 -34t1 -22t9.5 -21t25.5 -30q20 15 36.5 45t37.5 51q4 -7 12 -13l-125 -211q-12 7 -25 21.5l-26.5 31l-26.5 33t-24 27.5q-15 -11 -26 -31.5 t-29 -42.5h-12q0 3 -2.5 4.5t-2.5 3.5q0 1 9 16l20.5 33t20.5 34t9 19q2 5 3 12.5t1.5 23t1 41t0.5 65.5v157q-20 1 -33 0.5t-33 -0.5q-5 0 -13 2t-8 12zM50 464h46q-12 9 -25.5 10.5t-20.5 -10.5zM120 138q0 -4 10.5 -19.5t25 -33.5t29 -34t22.5 -22q3 9 12 20 q-33 40 -47.5 61.5t-18.5 37.5t-2 34t1 50q-2 67 -2 122t1 107.5t2.5 107.5t2.5 122q-13 -7 -19 -16t-7.5 -25t-1 -42.5t-0.5 -67.5q-1 -59 -2.5 -107l-3 -94t-2 -94t-0.5 -107zM219 464q15 -3 28.5 -4t26.5 9q-18 4 -30.5 4.5t-24.5 -9.5zM274 775q19 -14 22.5 -34.5 t-4.5 -43.5h13q9 13 16.5 25t7.5 24q0 18 -12 28t-25 10q-6 0 -9.5 -3t-8.5 -6z" />
</font>
</defs>
</svg>
